<?xml version="1.0" encoding="utf-8"?>
<!-- Generator: Adobe Illustrator 25.0.0, SVG Export Plug-In . SVG Version: 6.00 Build 0)  -->
<svg version="1.1" id="Capa_1" xmlns="http://www.w3.org/2000/svg" xmlns:xlink="http://www.w3.org/1999/xlink" x="0px" y="0px"
	 viewBox="0 0 253.54 254.55" style="enable-background:new 0 0 253.54 254.55;" xml:space="preserve">
<style type="text/css">
	.st0{fill:none;stroke:url(#SVGID_1_);stroke-width:3;stroke-miterlimit:10;}
	.st1{fill:#360D19;}
	.st2{fill:#F49600;}
</style>
<linearGradient id="SVGID_1_" gradientUnits="userSpaceOnUse" x1="5.7172" y1="128.2727" x2="249.8181" y2="128.2727">
	<stop  offset="0" style="stop-color:#F3941B"/>
	<stop  offset="1" style="stop-color:#E7401F"/>
</linearGradient>
<path class="st0" d="M204.32,248.82H51.22c-24.3,0-44-19.7-44-44V51.72c0-24.3,19.7-44,44-44h153.1c24.3,0,44,19.7,44,44v153.1
	C248.32,229.12,228.62,248.82,204.32,248.82z"/>
<g>
	<path class="st1" d="M35.05,112.22v-0.05c0-3.44,2.28-4.92,5.35-5.66l0.3-1.75h3.32l0.71,4.56l-0.25,0.25
		c-3.18,0.27-4.31,1.01-4.31,2.19v0.03c0,0.93,0.77,1.5,2.09,1.5c1.26,0,2.69-0.66,3.98-1.8l2.77,3.61
		c-1.67,1.67-3.98,2.87-7.14,2.87C37.88,117.96,35.05,115.77,35.05,112.22z M39.74,98.53h5.44v4.65h-5.44V98.53z"/>
	<path class="st1" d="M50.31,108.14v-0.05c0-5.58,4.31-9.95,10.13-9.95c3.93,0,6.45,1.64,8.15,3.99l-4.01,3.09
		c-1.1-1.37-2.36-2.24-4.2-2.24c-2.69,0-4.58,2.27-4.58,5.06v0.05c0,2.87,1.89,5.11,4.58,5.11c2,0,3.18-0.93,4.34-2.32l4.01,2.84
		c-1.81,2.49-4.25,4.32-8.51,4.32C54.73,118.04,50.31,113.86,50.31,108.14z"/>
	<path class="st1" d="M70.11,110.33v-0.05c0-4.21,3.46-7.73,8.24-7.73c4.75,0,8.18,3.47,8.18,7.68v0.05c0,4.21-3.46,7.73-8.23,7.73
		C73.54,118.01,70.11,114.54,70.11,110.33z M81.45,110.33v-0.05c0-1.8-1.32-3.33-3.16-3.33c-1.89,0-3.1,1.5-3.1,3.28v0.05
		c0,1.8,1.32,3.33,3.16,3.33C80.24,113.61,81.45,112.11,81.45,110.33z M79.17,96.5l4.86,1.56l-4.04,3.5h-3.68L79.17,96.5z"/>
	<path class="st1" d="M88.72,102.87h5.22v2.02c0.96-1.23,2.33-2.35,4.42-2.35c1.98,0,3.49,0.87,4.28,2.41
		c1.29-1.48,2.8-2.41,4.97-2.41c3.16,0,5.08,1.97,5.08,5.41v9.7h-5.22v-8.03c0-1.61-0.8-2.46-2.03-2.46c-1.23,0-2.14,0.85-2.14,2.46
		v8.03h-5.22v-8.03c0-1.61-0.8-2.46-2.03-2.46c-1.24,0-2.11,0.85-2.11,2.46v8.03h-5.22V102.87z"/>
	<path class="st1" d="M114.78,110.33v-0.05c0-4.21,3.46-7.73,8.24-7.73c4.75,0,8.18,3.47,8.18,7.68v0.05c0,4.21-3.46,7.73-8.23,7.73
		C118.21,118.01,114.78,114.54,114.78,110.33z M126.11,110.33v-0.05c0-1.8-1.32-3.33-3.16-3.33c-1.89,0-3.1,1.5-3.1,3.28v0.05
		c0,1.8,1.32,3.33,3.16,3.33C124.91,113.61,126.11,112.11,126.11,110.33z"/>
	<path class="st1" d="M140.39,110.33v-0.05c0-4.18,3.27-7.71,7.96-7.71c3.05,0,5.08,1.31,6.34,3.31l-3.54,2.62
		c-0.71-0.98-1.51-1.56-2.77-1.56c-1.67,0-2.91,1.48-2.91,3.28v0.05c0,1.91,1.21,3.36,2.96,3.36c1.24,0,2.03-0.57,2.85-1.53
		l3.49,2.51c-1.37,2.02-3.35,3.39-6.62,3.39C143.69,118.01,140.39,114.51,140.39,110.33z"/>
	<path class="st1" d="M156.62,102.87h5.22v2.98c0.85-2.02,2.22-3.33,4.69-3.23v5.47h-0.44c-2.72,0-4.25,1.56-4.25,4.97v4.59h-5.22
		V102.87z"/>
	<path class="st1" d="M167.76,110.33v-0.05c0-4.32,3.1-7.73,7.49-7.73c5.13,0,7.49,3.74,7.49,8.09c0,0.33,0,0.71-0.03,1.07h-9.94
		c0.41,1.61,1.59,2.43,3.21,2.43c1.24,0,2.22-0.46,3.29-1.5l2.88,2.38c-1.43,1.8-3.49,3.01-6.45,3.01
		C171.06,118.01,167.76,114.92,167.76,110.33z M177.87,109.05c-0.19-1.64-1.15-2.68-2.58-2.68c-1.37,0-2.31,1.07-2.58,2.68H177.87z"
		/>
	<path class="st1" d="M184.37,110.33v-0.05c0-4.21,3.46-7.73,8.24-7.73c4.75,0,8.18,3.47,8.18,7.68v0.05c0,4.21-3.46,7.73-8.23,7.73
		C187.81,118.01,184.37,114.54,184.37,110.33z M195.71,110.33v-0.05c0-1.8-1.32-3.33-3.16-3.33c-1.89,0-3.1,1.5-3.1,3.28v0.05
		c0,1.8,1.32,3.33,3.16,3.33C194.5,113.61,195.71,112.11,195.71,110.33z"/>
	<path class="st1" d="M35.85,131.88h5.22v2.02c0.96-1.23,2.33-2.35,4.42-2.35c1.98,0,3.49,0.87,4.28,2.41
		c1.29-1.48,2.8-2.41,4.97-2.41c3.16,0,5.08,1.97,5.08,5.41v9.7h-5.22v-8.03c0-1.61-0.8-2.46-2.03-2.46c-1.23,0-2.14,0.85-2.14,2.46
		v8.03h-5.22v-8.03c0-1.61-0.8-2.46-2.03-2.46c-1.24,0-2.11,0.85-2.11,2.46v8.03h-5.22V131.88z"/>
	<path class="st1" d="M62.5,126.71h5.44v3.83H62.5V126.71z M62.61,131.88h5.22v14.78h-5.22V131.88z"/>
	<path class="st1" d="M69.61,144.8l1.95-3.14c1.7,1.12,3.57,1.69,5.11,1.69c0.91,0,1.32-0.27,1.32-0.79v-0.05
		c0-0.57-0.82-0.82-2.39-1.26c-2.94-0.77-5.27-1.75-5.27-4.73v-0.05c0-3.14,2.53-4.89,5.96-4.89c2.17,0,4.42,0.63,6.12,1.72
		l-1.78,3.28c-1.54-0.85-3.21-1.37-4.39-1.37c-0.8,0-1.21,0.3-1.21,0.71v0.05c0,0.57,0.85,0.85,2.42,1.31
		c2.94,0.82,5.27,1.83,5.27,4.7v0.05c0,3.25-2.44,4.95-6.07,4.95C74.14,146.99,71.67,146.28,69.61,144.8z"/>
	<path class="st1" d="M92.46,131.88h5.22v1.97c1.02-1.23,2.28-2.3,4.5-2.3c3.54,0,6.59,2.92,6.59,7.65v0.05
		c0,4.81-3.05,7.73-6.56,7.73c-2.25,0-3.57-1.01-4.53-2.13v6.18h-5.22V131.88z M103.63,139.28v-0.05c0-1.94-1.35-3.33-3.05-3.33
		c-1.67,0-3.02,1.39-3.02,3.33v0.05c0,1.97,1.35,3.36,3.02,3.36C102.28,142.65,103.63,141.28,103.63,139.28z"/>
	<path class="st1" d="M110.41,139.34v-0.05c0-4.21,3.46-7.73,8.24-7.73c4.75,0,8.18,3.47,8.18,7.68v0.05c0,4.21-3.46,7.73-8.23,7.73
		C113.84,147.02,110.41,143.55,110.41,139.34z M121.75,139.34v-0.05c0-1.8-1.32-3.33-3.16-3.33c-1.89,0-3.1,1.5-3.1,3.28v0.05
		c0,1.8,1.32,3.33,3.16,3.33C120.54,142.62,121.75,141.11,121.75,139.34z"/>
	<path class="st1" d="M127.9,144.8l1.95-3.14c1.7,1.12,3.57,1.69,5.11,1.69c0.91,0,1.32-0.27,1.32-0.79v-0.05
		c0-0.57-0.82-0.82-2.39-1.26c-2.94-0.77-5.27-1.75-5.27-4.73v-0.05c0-3.14,2.53-4.89,5.96-4.89c2.17,0,4.42,0.63,6.12,1.72
		l-1.78,3.28c-1.54-0.85-3.21-1.37-4.39-1.37c-0.8,0-1.21,0.3-1.21,0.71v0.05c0,0.57,0.85,0.85,2.42,1.31
		c2.94,0.82,5.27,1.83,5.27,4.7v0.05c0,3.25-2.44,4.95-6.07,4.95C132.43,146.99,129.96,146.28,127.9,144.8z"/>
	<path class="st1" d="M144.04,142.07v-6.01h-1.76v-4.18h1.76v-3.74h5.22v3.74h3.46v4.18h-3.46v5c0,1.04,0.47,1.48,1.43,1.48
		c0.69,0,1.34-0.19,1.98-0.49v4.07c-0.93,0.52-2.17,0.85-3.62,0.85C145.91,146.96,144.04,145.6,144.04,142.07z"/>
	<path class="st1" d="M158.13,135.87l0.22-0.25c3.18-0.27,4.31-1.01,4.31-2.19v-0.03c0-0.93-0.74-1.5-2.06-1.5
		c-1.29,0-2.72,0.66-4.01,1.8l-2.75-3.61c1.67-1.67,3.95-2.87,7.11-2.87c4.04,0,6.86,2.19,6.86,5.74v0.05
		c0,3.44-2.31,4.92-5.35,5.66l-0.33,1.75h-3.32L158.13,135.87z M157.69,142.02h5.41v4.65h-5.41V142.02z"/>
</g>
<g>
	<path class="st2" d="M33.67,160.65h8.13c4.8,0,7.89,2.46,7.89,6.64v0.05c0,4.45-3.44,6.8-8.16,6.8h-2.6v5.4h-5.26V160.65z
		 M41.42,170.03c1.87,0,3.01-0.97,3.01-2.46v-0.05c0-1.62-1.14-2.48-3.04-2.48h-2.47v4.99H41.42z"/>
	<path class="st2" d="M58.47,160.51h5.07l8.08,19.02h-5.64l-1.38-3.37h-7.32l-1.35,3.37h-5.53L58.47,160.51z M63.07,172.09
		l-2.11-5.37l-2.14,5.37H63.07z"/>
	<path class="st2" d="M72.02,176.73l2.93-3.48c1.87,1.48,3.96,2.27,6.15,2.27c1.41,0,2.17-0.49,2.17-1.29v-0.05
		c0-0.78-0.62-1.21-3.2-1.81c-4.04-0.92-7.15-2.05-7.15-5.94v-0.05c0-3.51,2.79-6.04,7.34-6.04c3.23,0,5.75,0.86,7.8,2.51l-2.63,3.7
		c-1.73-1.21-3.63-1.86-5.31-1.86c-1.27,0-1.9,0.54-1.9,1.21v0.05c0,0.86,0.65,1.24,3.28,1.83c4.36,0.94,7.07,2.35,7.07,5.88v0.05
		c0,3.86-3.06,6.15-7.67,6.15C77.54,179.85,74.35,178.8,72.02,176.73z"/>
	<path class="st2" d="M90.47,170.14v-0.05c0-5.42,4.39-9.82,10.24-9.82s10.19,4.34,10.19,9.77v0.05c0,5.42-4.39,9.82-10.24,9.82
		S90.47,175.57,90.47,170.14z M105.54,170.14v-0.05c0-2.72-1.98-5.1-4.88-5.1c-2.87,0-4.8,2.32-4.8,5.04v0.05
		c0,2.73,1.98,5.1,4.85,5.1C103.62,175.19,105.54,172.87,105.54,170.14z"/>
	<path class="st2" d="M127.71,160.51h5.07l8.08,19.02h-5.64l-1.38-3.37h-7.32l-1.35,3.37h-5.53L127.71,160.51z M132.32,172.09
		l-2.11-5.37l-2.14,5.37H132.32z"/>
	<path class="st2" d="M150.2,160.65h8.13c4.8,0,7.89,2.46,7.89,6.64v0.05c0,4.45-3.44,6.8-8.16,6.8h-2.6v5.4h-5.26V160.65z
		 M157.96,170.03c1.87,0,3.01-0.97,3.01-2.46v-0.05c0-1.62-1.14-2.48-3.04-2.48h-2.47v4.99H157.96z"/>
	<path class="st2" d="M175,160.51h5.07l8.08,19.02h-5.64l-1.38-3.37h-7.32l-1.36,3.37h-5.53L175,160.51z M179.61,172.09l-2.11-5.37
		l-2.14,5.37H179.61z"/>
	<path class="st2" d="M188.55,176.73l2.93-3.48c1.87,1.48,3.96,2.27,6.15,2.27c1.41,0,2.17-0.49,2.17-1.29v-0.05
		c0-0.78-0.62-1.21-3.2-1.81c-4.04-0.92-7.15-2.05-7.15-5.94v-0.05c0-3.51,2.79-6.04,7.34-6.04c3.22,0,5.75,0.86,7.8,2.51l-2.63,3.7
		c-1.73-1.21-3.63-1.86-5.31-1.86c-1.27,0-1.9,0.54-1.9,1.21v0.05c0,0.86,0.65,1.24,3.28,1.83c4.36,0.94,7.07,2.35,7.07,5.88v0.05
		c0,3.86-3.06,6.15-7.67,6.15C194.08,179.85,190.88,178.8,188.55,176.73z"/>
	<path class="st2" d="M207.01,170.14v-0.05c0-5.42,4.39-9.82,10.24-9.82s10.19,4.34,10.19,9.77v0.05c0,5.42-4.39,9.82-10.24,9.82
		S207.01,175.57,207.01,170.14z M222.08,170.14v-0.05c0-2.72-1.98-5.1-4.88-5.1c-2.87,0-4.8,2.32-4.8,5.04v0.05
		c0,2.73,1.98,5.1,4.85,5.1C220.15,175.19,222.08,172.87,222.08,170.14z"/>
</g>
</svg>
