<?xml version="1.0" encoding="utf-8"?>
<!-- Generator: Adobe Illustrator 25.0.0, SVG Export Plug-In . SVG Version: 6.00 Build 0)  -->
<svg version="1.1" id="Capa_1" xmlns="http://www.w3.org/2000/svg" xmlns:xlink="http://www.w3.org/1999/xlink" x="0px" y="0px"
	 viewBox="0 0 253.54 254.55" style="enable-background:new 0 0 253.54 254.55;" xml:space="preserve">
<style type="text/css">
	.st0{fill:none;stroke:url(#SVGID_1_);stroke-width:3;stroke-miterlimit:10;}
	.st1{fill:#360D19;}
</style>
<g>
	<linearGradient id="SVGID_1_" gradientUnits="userSpaceOnUse" x1="5.7172" y1="128.2727" x2="249.8181" y2="128.2727">
		<stop  offset="0" style="stop-color:#F3941B"/>
		<stop  offset="1" style="stop-color:#E7401F"/>
	</linearGradient>
	<path class="st0" d="M204.32,248.82H51.22c-24.3,0-44-19.7-44-44V51.72c0-24.3,19.7-44,44-44h153.1c24.3,0,44,19.7,44,44v153.1
		C248.32,229.12,228.62,248.82,204.32,248.82z"/>
	<g>
		<path class="st1" d="M57.09,99.35h15.45v4.51H62.36v2.9h9.22v4.18h-9.22v3.03h10.32v4.51H57.09V99.35z"/>
		<path class="st1" d="M73.98,116.62l1.95-3.14c1.7,1.12,3.57,1.69,5.11,1.69c0.91,0,1.32-0.27,1.32-0.79v-0.05
			c0-0.57-0.82-0.82-2.39-1.26c-2.94-0.77-5.27-1.75-5.27-4.73v-0.05c0-3.14,2.53-4.89,5.96-4.89c2.17,0,4.42,0.63,6.12,1.72
			l-1.78,3.28c-1.54-0.85-3.21-1.37-4.39-1.37c-0.8,0-1.21,0.3-1.21,0.71v0.05c0,0.57,0.85,0.85,2.42,1.31
			c2.94,0.82,5.27,1.83,5.27,4.7v0.05c0,3.25-2.44,4.95-6.07,4.95C78.51,118.81,76.04,118.1,73.98,116.62z"/>
		<path class="st1" d="M90.12,113.89v-6.01h-1.76v-4.18h1.76v-3.74h5.22v3.74h3.46v4.18h-3.46v5c0,1.04,0.47,1.48,1.43,1.48
			c0.69,0,1.35-0.19,1.98-0.49v4.07c-0.93,0.52-2.17,0.85-3.62,0.85C91.99,118.78,90.12,117.41,90.12,113.89z"/>
		<path class="st1" d="M100.31,114.24v-0.05c0-3.06,2.33-4.65,5.82-4.65c1.37,0,2.72,0.27,3.57,0.57v-0.25c0-1.53-0.96-2.4-2.96-2.4
			c-1.56,0-2.77,0.3-4.09,0.82l-1.07-3.66c1.67-0.68,3.46-1.15,6.01-1.15c2.66,0,4.47,0.63,5.65,1.8c1.13,1.09,1.59,2.62,1.59,4.7
			v8.5h-5.16v-1.53c-1.02,1.12-2.42,1.86-4.36,1.86C102.48,118.81,100.31,117.2,100.31,114.24z M109.75,113.12v-0.68
			c-0.52-0.22-1.26-0.38-2.03-0.38c-1.51,0-2.39,0.74-2.39,1.83v0.05c0,1.01,0.77,1.61,1.84,1.61
			C108.68,115.56,109.75,114.6,109.75,113.12z"/>
		<path class="st1" d="M116.94,111.16v-0.05c0-4.81,3.02-7.73,6.53-7.73c2.25,0,3.57,1.01,4.56,2.13v-6.97h5.22v19.95h-5.22v-1.97
			c-1.02,1.23-2.31,2.3-4.53,2.3C119.99,118.81,116.94,115.88,116.94,111.16z M128.12,111.1v-0.05c0-1.94-1.35-3.33-3.02-3.33
			c-1.67,0-3.05,1.37-3.05,3.33v0.05c0,1.97,1.37,3.36,3.05,3.36C126.77,114.46,128.12,113.07,128.12,111.1z"/>
		<path class="st1" d="M135.45,111.16v-0.05c0-4.21,3.46-7.73,8.24-7.73c4.75,0,8.18,3.47,8.18,7.68v0.05
			c0,4.21-3.46,7.73-8.24,7.73C138.88,118.84,135.45,115.36,135.45,111.16z M146.79,111.16v-0.05c0-1.8-1.32-3.33-3.16-3.33
			c-1.89,0-3.1,1.5-3.1,3.28v0.05c0,1.8,1.32,3.33,3.16,3.33C145.58,114.44,146.79,112.93,146.79,111.16z"/>
		<path class="st1" d="M161.12,111.16v-0.05c0-4.81,3.02-7.73,6.53-7.73c2.25,0,3.57,1.01,4.56,2.13v-6.97h5.21v19.95h-5.21v-1.97
			c-1.02,1.23-2.31,2.3-4.53,2.3C164.17,118.81,161.12,115.88,161.12,111.16z M172.29,111.1v-0.05c0-1.94-1.34-3.33-3.02-3.33
			s-3.05,1.37-3.05,3.33v0.05c0,1.97,1.37,3.36,3.05,3.36S172.29,113.07,172.29,111.1z"/>
		<path class="st1" d="M179.62,111.16v-0.05c0-4.32,3.1-7.73,7.49-7.73c5.13,0,7.49,3.74,7.49,8.09c0,0.33,0,0.71-0.03,1.07h-9.94
			c0.41,1.61,1.59,2.43,3.21,2.43c1.24,0,2.22-0.46,3.29-1.5l2.88,2.38c-1.43,1.8-3.49,3.01-6.45,3.01
			C182.92,118.84,179.62,115.75,179.62,111.16z M189.72,109.87c-0.19-1.64-1.15-2.68-2.58-2.68c-1.37,0-2.31,1.07-2.58,2.68H189.72z
			"/>
		<path class="st1" d="M54.01,145.63l1.95-3.14c1.7,1.12,3.57,1.69,5.11,1.69c0.91,0,1.32-0.27,1.32-0.79v-0.05
			c0-0.57-0.82-0.82-2.39-1.26c-2.94-0.77-5.27-1.75-5.27-4.73v-0.05c0-3.14,2.53-4.89,5.96-4.89c2.17,0,4.42,0.63,6.12,1.72
			l-1.78,3.28c-1.54-0.85-3.21-1.37-4.39-1.37c-0.8,0-1.21,0.3-1.21,0.71v0.05c0,0.57,0.85,0.85,2.42,1.31
			c2.94,0.82,5.27,1.83,5.27,4.7v0.05c0,3.25-2.44,4.95-6.07,4.95C58.53,147.82,56.06,147.11,54.01,145.63z"/>
		<path class="st1" d="M68.64,140.16v-0.05c0-4.21,3.46-7.73,8.24-7.73c4.75,0,8.18,3.47,8.18,7.68v0.05c0,4.21-3.46,7.73-8.23,7.73
			C72.07,147.84,68.64,144.37,68.64,140.16z M79.98,140.16v-0.05c0-1.8-1.32-3.33-3.16-3.33c-1.89,0-3.1,1.5-3.1,3.28v0.05
			c0,1.8,1.32,3.33,3.16,3.33C78.77,143.44,79.98,141.94,79.98,140.16z"/>
		<path class="st1" d="M87.36,127.54h5.22v19.95h-5.22V127.54z"/>
		<path class="st1" d="M95.49,127.54h5.44v3.83h-5.44V127.54z M95.6,132.7h5.22v14.78H95.6V132.7z"/>
		<path class="st1" d="M103.12,140.16v-0.05c0-4.18,3.27-7.71,7.96-7.71c3.05,0,5.08,1.31,6.34,3.31l-3.54,2.62
			c-0.71-0.98-1.51-1.56-2.77-1.56c-1.67,0-2.91,1.48-2.91,3.28v0.05c0,1.91,1.21,3.36,2.96,3.36c1.24,0,2.03-0.57,2.85-1.53
			l3.49,2.51c-1.37,2.02-3.35,3.39-6.62,3.39C106.42,147.84,103.12,144.35,103.12,140.16z"/>
		<path class="st1" d="M119.35,127.54h5.44v3.83h-5.44V127.54z M119.46,132.7h5.22v14.78h-5.22V132.7z"/>
		<path class="st1" d="M128.49,142.9v-6.01h-1.76v-4.18h1.76v-3.74h5.22v3.74h3.46v4.18h-3.46v5c0,1.04,0.47,1.48,1.43,1.48
			c0.69,0,1.35-0.19,1.98-0.49v4.07c-0.93,0.52-2.17,0.85-3.62,0.85C130.35,147.79,128.49,146.42,128.49,142.9z"/>
		<path class="st1" d="M139.31,142.38v-9.67h5.22v8.01c0,1.61,0.85,2.49,2.11,2.49c1.24,0,2.17-0.87,2.17-2.49v-8.01h5.22v14.78
			h-5.22v-2.02c-0.96,1.23-2.33,2.35-4.45,2.35C141.2,147.82,139.31,145.74,139.31,142.38z"/>
		<path class="st1" d="M156.27,140.16v-0.05c0-4.81,3.02-7.73,6.53-7.73c2.25,0,3.57,1.01,4.56,2.13v-6.97h5.21v19.95h-5.21v-1.97
			c-1.02,1.23-2.31,2.3-4.53,2.3C159.32,147.82,156.27,144.89,156.27,140.16z M167.44,140.11v-0.05c0-1.94-1.34-3.33-3.02-3.33
			s-3.05,1.37-3.05,3.33v0.05c0,1.97,1.37,3.36,3.05,3.36S167.44,142.08,167.44,140.11z"/>
		<path class="st1" d="M174.78,140.16v-0.05c0-4.32,3.1-7.73,7.49-7.73c5.13,0,7.49,3.74,7.49,8.09c0,0.33,0,0.71-0.03,1.07h-9.94
			c0.41,1.61,1.59,2.43,3.21,2.43c1.24,0,2.22-0.46,3.29-1.5l2.88,2.38c-1.43,1.8-3.49,3.01-6.45,3.01
			C178.07,147.84,174.78,144.76,174.78,140.16z M184.88,138.88c-0.19-1.64-1.15-2.68-2.58-2.68c-1.37,0-2.31,1.07-2.58,2.68H184.88z
			"/>
		<path class="st1" d="M190.86,145.63l1.95-3.14c1.7,1.12,3.57,1.69,5.11,1.69c0.91,0,1.32-0.27,1.32-0.79v-0.05
			c0-0.57-0.82-0.82-2.39-1.26c-2.94-0.77-5.27-1.75-5.27-4.73v-0.05c0-3.14,2.53-4.89,5.96-4.89c2.17,0,4.42,0.63,6.12,1.72
			l-1.78,3.28c-1.54-0.85-3.21-1.37-4.39-1.37c-0.8,0-1.21,0.3-1.21,0.71v0.05c0,0.57,0.85,0.85,2.42,1.31
			c2.94,0.82,5.27,1.83,5.27,4.7v0.05c0,3.25-2.44,4.95-6.07,4.95C195.39,147.82,192.92,147.11,190.86,145.63z"/>
	</g>
</g>
</svg>
