<?xml version="1.0" encoding="utf-8"?>
<!-- Generator: Adobe Illustrator 25.0.0, SVG Export Plug-In . SVG Version: 6.00 Build 0)  -->
<svg version="1.1" id="Capa_1" xmlns="http://www.w3.org/2000/svg" xmlns:xlink="http://www.w3.org/1999/xlink" x="0px" y="0px"
	 viewBox="0 0 253.54 254.55" style="enable-background:new 0 0 253.54 254.55;" xml:space="preserve">
<style type="text/css">
	.st0{fill:none;stroke:url(#SVGID_1_);stroke-width:3;stroke-miterlimit:10;}
	.st1{fill:#360D19;}
</style>
<linearGradient id="SVGID_1_" gradientUnits="userSpaceOnUse" x1="4.8738" y1="126.9411" x2="248.9747" y2="126.9411">
	<stop  offset="0" style="stop-color:#F3941B"/>
	<stop  offset="1" style="stop-color:#E7401F"/>
</linearGradient>
<path class="st0" d="M203.47,247.49H50.37c-24.3,0-44-19.7-44-44V50.39c0-24.3,19.7-44,44-44h153.1c24.3,0,44,19.7,44,44v153.1
	C247.47,227.79,227.78,247.49,203.47,247.49z"/>
<g>
	<path class="st1" d="M50.27,103.46H44.5v-4.65h16.85v4.65h-5.76v14.48h-5.33V103.46z"/>
	<path class="st1" d="M62.79,110.62v-0.05c0-4.32,3.1-7.73,7.49-7.73c5.13,0,7.49,3.74,7.49,8.09c0,0.33,0,0.71-0.03,1.07h-9.94
		c0.41,1.61,1.59,2.43,3.21,2.43c1.24,0,2.22-0.46,3.29-1.5l2.88,2.38c-1.43,1.8-3.49,3.01-6.45,3.01
		C66.08,118.3,62.79,115.21,62.79,110.62z M72.89,109.33c-0.19-1.64-1.15-2.68-2.58-2.68c-1.37,0-2.31,1.07-2.58,2.68H72.89z
		 M71.11,96.79l4.86,1.56l-4.04,3.5h-3.68L71.11,96.79z"/>
	<path class="st1" d="M80,103.16h5.21v2.98c0.85-2.02,2.22-3.33,4.69-3.23v5.47h-0.44c-2.72,0-4.25,1.56-4.25,4.97v4.59H80V103.16z"
		/>
	<path class="st1" d="M91.75,103.16h5.21v2.02c0.96-1.23,2.33-2.35,4.42-2.35c1.98,0,3.49,0.88,4.28,2.41
		c1.29-1.48,2.8-2.41,4.97-2.41c3.16,0,5.08,1.97,5.08,5.41v9.7h-5.22v-8.04c0-1.61-0.8-2.46-2.03-2.46s-2.14,0.85-2.14,2.46v8.04
		h-5.22v-8.04c0-1.61-0.8-2.46-2.03-2.46s-2.11,0.85-2.11,2.46v8.04h-5.21V103.16z"/>
	<path class="st1" d="M118.41,97.99h5.43v3.83h-5.43V97.99z M118.52,103.16h5.22v14.79h-5.22V103.16z"/>
	<path class="st1" d="M126.65,103.16h5.21v2.08c0.96-1.23,2.33-2.41,4.45-2.41c3.16,0,5.05,2.08,5.05,5.44v9.67h-5.22v-8.01
		c0-1.61-0.85-2.49-2.09-2.49c-1.26,0-2.2,0.87-2.2,2.49v8.01h-5.21V103.16z"/>
	<path class="st1" d="M143.45,110.62v-0.05c0-4.21,3.46-7.73,8.24-7.73c4.75,0,8.18,3.47,8.18,7.68v0.05c0,4.21-3.46,7.73-8.24,7.73
		C146.88,118.3,143.45,114.83,143.45,110.62z M154.79,110.62v-0.05c0-1.8-1.32-3.33-3.16-3.33c-1.89,0-3.1,1.5-3.1,3.28v0.05
		c0,1.8,1.32,3.33,3.16,3.33C153.58,113.9,154.79,112.39,154.79,110.62z"/>
	<path class="st1" d="M160.94,116.08l1.95-3.14c1.7,1.12,3.57,1.69,5.11,1.69c0.91,0,1.32-0.27,1.32-0.79v-0.05
		c0-0.57-0.82-0.82-2.39-1.26c-2.94-0.77-5.27-1.75-5.27-4.73v-0.05c0-3.14,2.53-4.89,5.96-4.89c2.17,0,4.42,0.63,6.12,1.72
		l-1.78,3.28c-1.54-0.85-3.21-1.37-4.39-1.37c-0.8,0-1.21,0.3-1.21,0.71v0.05c0,0.57,0.85,0.85,2.42,1.31
		c2.94,0.82,5.27,1.83,5.27,4.7v0.05c0,3.25-2.44,4.95-6.07,4.95C165.47,118.27,163,117.56,160.94,116.08z"/>
	<path class="st1" d="M183.4,121.11l1.62-3.63c0.82,0.49,1.7,0.79,2.28,0.79c0.52,0,0.88-0.14,1.21-0.6l-5.82-14.51h5.46l2.96,8.91
		l2.8-8.91h5.35l-5.43,14.43c-1.29,3.44-2.69,4.81-5.66,4.81C186.33,122.4,184.77,121.88,183.4,121.11z"/>
	<path class="st1" d="M44.67,139.63v-0.05c0-4.18,3.27-7.71,7.96-7.71c3.05,0,5.08,1.31,6.34,3.31l-3.54,2.62
		c-0.71-0.98-1.51-1.56-2.77-1.56c-1.67,0-2.91,1.48-2.91,3.28v0.05c0,1.91,1.21,3.36,2.96,3.36c1.24,0,2.03-0.57,2.86-1.53
		l3.49,2.51c-1.37,2.02-3.35,3.39-6.62,3.39C47.96,147.3,44.67,143.81,44.67,139.63z"/>
	<path class="st1" d="M60.29,139.63v-0.05c0-4.21,3.46-7.73,8.24-7.73c4.75,0,8.18,3.47,8.18,7.68v0.05c0,4.21-3.46,7.73-8.24,7.73
		C63.72,147.3,60.29,143.83,60.29,139.63z M71.63,139.63v-0.05c0-1.8-1.32-3.33-3.16-3.33c-1.89,0-3.1,1.5-3.1,3.28v0.05
		c0,1.8,1.32,3.33,3.16,3.33C70.42,142.9,71.63,141.4,71.63,139.63z"/>
	<path class="st1" d="M78.9,132.16h5.21v2.08c0.96-1.23,2.33-2.41,4.45-2.41c3.16,0,5.05,2.08,5.05,5.44v9.67H88.4v-8.01
		c0-1.61-0.85-2.49-2.09-2.49c-1.26,0-2.2,0.87-2.2,2.49v8.01H78.9V132.16z"/>
	<path class="st1" d="M95.76,139.63v-0.05c0-4.81,3.02-7.73,6.53-7.73c2.25,0,3.57,1.01,4.56,2.13V127h5.21v19.95h-5.21v-1.97
		c-1.02,1.23-2.31,2.3-4.53,2.3C98.81,147.28,95.76,144.35,95.76,139.63z M106.93,139.57v-0.05c0-1.94-1.34-3.33-3.02-3.33
		s-3.05,1.37-3.05,3.33v0.05c0,1.97,1.37,3.36,3.05,3.36S106.93,141.54,106.93,139.57z"/>
	<path class="st1" d="M114.87,127h5.43v3.83h-5.43V127z M114.98,132.16h5.22v14.79h-5.22V132.16z"/>
	<path class="st1" d="M122.5,139.63v-0.05c0-4.18,3.27-7.71,7.96-7.71c3.05,0,5.08,1.31,6.34,3.31l-3.54,2.62
		c-0.71-0.98-1.51-1.56-2.77-1.56c-1.67,0-2.91,1.48-2.91,3.28v0.05c0,1.91,1.21,3.36,2.96,3.36c1.24,0,2.03-0.57,2.86-1.53
		l3.49,2.51c-1.37,2.02-3.35,3.39-6.62,3.39C125.8,147.3,122.5,143.81,122.5,139.63z"/>
	<path class="st1" d="M138.73,127h5.43v3.83h-5.43V127z M138.84,132.16h5.22v14.79h-5.22V132.16z"/>
	<path class="st1" d="M146.36,139.63v-0.05c0-4.21,3.46-7.73,8.24-7.73c4.75,0,8.18,3.47,8.18,7.68v0.05c0,4.21-3.46,7.73-8.24,7.73
		C149.79,147.3,146.36,143.83,146.36,139.63z M157.7,139.63v-0.05c0-1.8-1.32-3.33-3.16-3.33c-1.89,0-3.1,1.5-3.1,3.28v0.05
		c0,1.8,1.32,3.33,3.16,3.33C156.49,142.9,157.7,141.4,157.7,139.63z"/>
	<path class="st1" d="M164.97,132.16h5.21v2.08c0.96-1.23,2.33-2.41,4.45-2.41c3.16,0,5.05,2.08,5.05,5.44v9.67h-5.22v-8.01
		c0-1.61-0.85-2.49-2.09-2.49c-1.26,0-2.2,0.87-2.2,2.49v8.01h-5.21V132.16z"/>
	<path class="st1" d="M181.77,139.63v-0.05c0-4.32,3.1-7.73,7.49-7.73c5.13,0,7.49,3.74,7.49,8.09c0,0.33,0,0.71-0.03,1.07h-9.94
		c0.41,1.61,1.59,2.43,3.21,2.43c1.24,0,2.22-0.46,3.29-1.5l2.88,2.38c-1.43,1.8-3.49,3.01-6.45,3.01
		C185.07,147.3,181.77,144.22,181.77,139.63z M191.88,138.34c-0.19-1.64-1.15-2.68-2.58-2.68c-1.37,0-2.31,1.07-2.58,2.68H191.88z"
		/>
	<path class="st1" d="M197.86,145.09l1.95-3.14c1.7,1.12,3.57,1.69,5.11,1.69c0.91,0,1.32-0.27,1.32-0.79v-0.05
		c0-0.57-0.82-0.82-2.39-1.26c-2.94-0.77-5.27-1.75-5.27-4.73v-0.05c0-3.14,2.53-4.89,5.96-4.89c2.17,0,4.42,0.63,6.12,1.72
		l-1.78,3.28c-1.54-0.85-3.21-1.37-4.39-1.37c-0.8,0-1.21,0.3-1.21,0.71v0.05c0,0.57,0.85,0.85,2.42,1.31
		c2.94,0.82,5.27,1.83,5.27,4.7v0.05c0,3.25-2.44,4.95-6.07,4.95C202.39,147.28,199.92,146.57,197.86,145.09z"/>
</g>
</svg>
