<?xml version="1.0" encoding="utf-8"?>
<!-- Generator: Adobe Illustrator 25.0.0, SVG Export Plug-In . SVG Version: 6.00 Build 0)  -->
<svg version="1.1" id="Capa_1" xmlns="http://www.w3.org/2000/svg" xmlns:xlink="http://www.w3.org/1999/xlink" x="0px" y="0px"
	 viewBox="0 0 372.73 376.77" style="enable-background:new 0 0 372.73 376.77;" xml:space="preserve">
<style type="text/css">
	.st0{fill:url(#SVGID_1_);}
</style>
<linearGradient id="SVGID_1_" gradientUnits="userSpaceOnUse" x1="0" y1="186.3625" x2="372.7296" y2="186.3625">
	<stop  offset="0" style="stop-color:#F3941B"/>
	<stop  offset="1" style="stop-color:#E7401F"/>
</linearGradient>
<path class="st0" d="M186.7,0C84.04-0.32,0.4,82.58,0,185.05c-0.4,102.93,82.09,186.55,183.74,187.67
	c102.44,1.13,188.51-80.88,188.98-186.36C373.19,84.11,289.6,0.32,186.7,0z M98.67,126.29c14.45-0.01,26.1,11.67,25.98,26.06
	c-0.12,14.26-11.69,25.72-25.93,25.67c-14.3-0.05-25.97-11.52-26.09-25.64C72.5,138.1,84.27,126.31,98.67,126.29z M294.19,229.57
	c-0.96,2.25-2.34,4.51-4.07,6.21c-25.38,24.8-55.57,39.63-91,43.27c-4.27,0.44-8.63,0.06-12.95,0.06
	c-40.79-0.07-75.3-15.44-104.14-43.87c-2.37-2.34-3.81-6.19-4.42-9.57c-0.6-3.3,1.08-6.57,4.42-8.34c3.78-2,7.4-1.26,10.56,1.25
	c3.59,2.86,6.82,6.16,10.4,9.04c39.38,31.76,82.85,39.7,130.47,21.86c15.82-5.93,29.62-15.36,41.99-26.86
	c1.33-1.23,2.59-2.54,3.99-3.68c3.82-3.14,8.54-3.54,12-1.12C294.64,220.07,296.03,225.23,294.19,229.57z M273.56,178.01
	c-14.23-0.05-25.75-11.68-25.69-25.92c0.06-14.26,11.56-25.76,25.83-25.82c14.43-0.06,26.11,11.56,26.08,25.97
	C299.76,166.67,288.17,178.07,273.56,178.01z"/>
</svg>
