<svg id="Capa_1" data-name="Capa 1" xmlns="http://www.w3.org/2000/svg" xmlns:xlink="http://www.w3.org/1999/xlink" viewBox="0 0 619 341.39"><defs><style>.cls-1{fill:#a4a4a6;}.cls-2{fill:url(#Degradado_sin_nombre_38);}.cls-3{fill:#e22019;}.cls-4{fill:#434141;}</style><linearGradient id="Degradado_sin_nombre_38" x1="246.43" y1="187.1" x2="445.56" y2="386.24" gradientUnits="userSpaceOnUse"><stop offset="0" stop-color="#ae801c"/><stop offset="0.51" stop-color="#e1be73"/><stop offset="0.65" stop-color="#d2ae5d"/><stop offset="0.96" stop-color="#ac8323"/><stop offset="0.99" stop-color="#a77e1c"/></linearGradient></defs><path class="cls-1" d="M44.83,32.88a6.69,6.69,0,0,0-2.47-2.94,6.79,6.79,0,0,0-3.75-1,7.32,7.32,0,0,0-3.86,1,7.14,7.14,0,0,0-2.7,3,9.77,9.77,0,0,0-1,4.49,9.67,9.67,0,0,0,1,4.48,7.08,7.08,0,0,0,2.7,3,7.24,7.24,0,0,0,3.86,1.05A6.8,6.8,0,0,0,43.54,44a8,8,0,0,0,2.25-5.13H37.64V36.58h11v2.18a11.24,11.24,0,0,1-1.58,4.9,10.14,10.14,0,0,1-3.55,3.52,9.52,9.52,0,0,1-4.9,1.29,9.84,9.84,0,0,1-5.2-1.42,10.11,10.11,0,0,1-3.71-3.93,11.77,11.77,0,0,1-1.36-5.7,11.83,11.83,0,0,1,1.36-5.7,10.1,10.1,0,0,1,3.71-3.95,9.84,9.84,0,0,1,5.2-1.42,10,10,0,0,1,5.76,1.71A9.7,9.7,0,0,1,48,32.88Z" transform="translate(-21.59 -24.61)"/><path class="cls-1" d="M56.84,31.73A5.92,5.92,0,0,1,60,30.92v2.93h-.7q-4.49,0-4.49,5.16v9.27H52.16v-17h2.67V34A5.35,5.35,0,0,1,56.84,31.73Z" transform="translate(-21.59 -24.61)"/><path class="cls-1" d="M63.1,35.11A7.53,7.53,0,0,1,65.85,32,7.24,7.24,0,0,1,69.74,31a6.82,6.82,0,0,1,3.66,1,6.24,6.24,0,0,1,2.32,2.42V31.23h2.7V48.28h-2.7V45.11a6.48,6.48,0,0,1-2.36,2.47,6.78,6.78,0,0,1-3.65,1,7,7,0,0,1-3.88-1.12A7.77,7.77,0,0,1,63.1,44.3a10.34,10.34,0,0,1-1-4.61A10.06,10.06,0,0,1,63.1,35.11ZM75,36.37a5.37,5.37,0,0,0-2-2.2,5.25,5.25,0,0,0-2.75-.76,5.13,5.13,0,0,0-2.72.75,5.27,5.27,0,0,0-2,2.17,7.3,7.3,0,0,0-.73,3.36,7.42,7.42,0,0,0,.73,3.41,5.38,5.38,0,0,0,2,2.21,5.05,5.05,0,0,0,2.72.76A5.15,5.15,0,0,0,73,45.31a5.4,5.4,0,0,0,2-2.21,7.34,7.34,0,0,0,.73-3.37A7.24,7.24,0,0,0,75,36.37Z" transform="translate(-21.59 -24.61)"/><path class="cls-1" d="M82.94,35.11A7.44,7.44,0,0,1,85.71,32,7.7,7.7,0,0,1,89.78,31a7.59,7.59,0,0,1,4.88,1.53,7.22,7.22,0,0,1,2.54,4.23H94.32a4.32,4.32,0,0,0-1.6-2.46,4.72,4.72,0,0,0-2.94-.9A4.6,4.6,0,0,0,86.08,35a7.09,7.09,0,0,0-1.41,4.72,7.16,7.16,0,0,0,1.41,4.75,4.59,4.59,0,0,0,3.7,1.68,4.78,4.78,0,0,0,2.93-.87,4.42,4.42,0,0,0,1.61-2.48H97.2A7.55,7.55,0,0,1,94.62,47a7.43,7.43,0,0,1-4.84,1.57,7.61,7.61,0,0,1-4.07-1.09,7.35,7.35,0,0,1-2.77-3.08,10.22,10.22,0,0,1-1-4.66A10,10,0,0,1,82.94,35.11Z" transform="translate(-21.59 -24.61)"/><path class="cls-1" d="M100.84,27.91a2,2,0,0,1,0-2.74,1.68,1.68,0,0,1,1.29-.56,1.62,1.62,0,0,1,1.25.56,2.1,2.1,0,0,1,0,2.74,1.66,1.66,0,0,1-1.25.56A1.71,1.71,0,0,1,100.84,27.91Zm2.58,3.32V48.28h-2.67v-17Z" transform="translate(-21.59 -24.61)"/><path class="cls-1" d="M108,35.11A7.51,7.51,0,0,1,110.71,32,7.24,7.24,0,0,1,114.6,31a6.86,6.86,0,0,1,3.67,1,6.29,6.29,0,0,1,2.31,2.42V31.23h2.7V48.28h-2.7V45.11a6.41,6.41,0,0,1-2.36,2.47,6.78,6.78,0,0,1-3.65,1,6.93,6.93,0,0,1-3.87-1.12A7.63,7.63,0,0,1,108,44.3a10.21,10.21,0,0,1-1-4.61A9.94,9.94,0,0,1,108,35.11Zm11.88,1.26a5.37,5.37,0,0,0-2-2.2,5.24,5.24,0,0,0-2.74-.76,5.14,5.14,0,0,0-2.73.75,5.33,5.33,0,0,0-2,2.17,7.3,7.3,0,0,0-.73,3.36,7.42,7.42,0,0,0,.73,3.41,5.45,5.45,0,0,0,2,2.21,5.06,5.06,0,0,0,2.73.76,5.15,5.15,0,0,0,2.74-.76,5.4,5.4,0,0,0,2-2.21,7.34,7.34,0,0,0,.73-3.37A7.24,7.24,0,0,0,119.85,36.37Z" transform="translate(-21.59 -24.61)"/><path class="cls-1" d="M130.18,47.89A5.6,5.6,0,0,1,127.86,46a5.1,5.1,0,0,1-.94-2.75h2.76a2.91,2.91,0,0,0,1.13,2.09,4.1,4.1,0,0,0,2.65.8,3.7,3.7,0,0,0,2.41-.71,2.22,2.22,0,0,0,.88-1.8,1.79,1.79,0,0,0-.94-1.67,12.57,12.57,0,0,0-2.9-1.07,20.14,20.14,0,0,1-2.92-1,5.22,5.22,0,0,1-1.94-1.53,4.12,4.12,0,0,1-.81-2.66,4.17,4.17,0,0,1,.74-2.39,5,5,0,0,1,2.08-1.73,7.22,7.22,0,0,1,3.08-.64,6.33,6.33,0,0,1,4.31,1.43,5.26,5.26,0,0,1,1.76,3.92h-2.67a2.93,2.93,0,0,0-1-2.14,3.61,3.61,0,0,0-2.48-.81,3.71,3.71,0,0,0-2.29.65,2.09,2.09,0,0,0-.85,1.71,1.93,1.93,0,0,0,.52,1.39,3.76,3.76,0,0,0,1.29.87,21.13,21.13,0,0,0,2.16.73,22.13,22.13,0,0,1,2.81,1,4.76,4.76,0,0,1,1.86,1.45,4,4,0,0,1,.81,2.52,4.45,4.45,0,0,1-.73,2.51,4.91,4.91,0,0,1-2.07,1.76,7,7,0,0,1-3.07.64A7.83,7.83,0,0,1,130.18,47.89Z" transform="translate(-21.59 -24.61)"/><path class="cls-1" d="M156,31.93a6.81,6.81,0,0,1,3.66-1A7.23,7.23,0,0,1,163.52,32a7.53,7.53,0,0,1,2.75,3.07,10.06,10.06,0,0,1,1,4.58,10.34,10.34,0,0,1-1,4.61,7.67,7.67,0,0,1-2.75,3.14,7,7,0,0,1-3.88,1.12,6.76,6.76,0,0,1-3.63-1,6.88,6.88,0,0,1-2.39-2.44V56.37H151V31.23h2.67v3.15A6.65,6.65,0,0,1,156,31.93Zm7.82,4.4a5.29,5.29,0,0,0-2-2.17,5.31,5.31,0,0,0-5.46,0,5.49,5.49,0,0,0-2,2.21,7.9,7.9,0,0,0,0,6.72,5.49,5.49,0,0,0,2,2.21,5.28,5.28,0,0,0,5.46,0,5.4,5.4,0,0,0,2-2.21,7.42,7.42,0,0,0,.74-3.41A7.3,7.3,0,0,0,163.8,36.33Z" transform="translate(-21.59 -24.61)"/><path class="cls-1" d="M173.71,47.47a7.48,7.48,0,0,1-2.88-3.09,10,10,0,0,1-1-4.65,9.55,9.55,0,0,1,1.07-4.62A7.56,7.56,0,0,1,173.78,32a8.46,8.46,0,0,1,8.27,0A7.5,7.5,0,0,1,185,35.09,9.58,9.58,0,0,1,186,39.73a9.46,9.46,0,0,1-1.1,4.65,7.78,7.78,0,0,1-3,3.09,8.1,8.1,0,0,1-4.16,1.09A7.8,7.8,0,0,1,173.71,47.47Zm6.79-2.11a5.37,5.37,0,0,0,2-2.15,7.3,7.3,0,0,0,.77-3.48,7.35,7.35,0,0,0-.76-3.49,5.21,5.21,0,0,0-2-2.13,5.33,5.33,0,0,0-2.67-.7,5.27,5.27,0,0,0-2.69.7,5.06,5.06,0,0,0-1.95,2.13,7.6,7.6,0,0,0-.73,3.49,7.73,7.73,0,0,0,.72,3.51,4.88,4.88,0,0,0,1.92,2.13,5.11,5.11,0,0,0,2.64.7A5.45,5.45,0,0,0,180.5,45.36Z" transform="translate(-21.59 -24.61)"/><path class="cls-1" d="M194.24,31.73a6,6,0,0,1,3.19-.81v2.93h-.71q-4.49,0-4.49,5.16v9.27h-2.67v-17h2.67V34A5.35,5.35,0,0,1,194.24,31.73Z" transform="translate(-21.59 -24.61)"/><path class="cls-1" d="M222.6,31.23V48.28h-2.67V45.76a5.36,5.36,0,0,1-2.13,2,6.34,6.34,0,0,1-3,.73,6.88,6.88,0,0,1-3.38-.83,5.76,5.76,0,0,1-2.36-2.47,8.52,8.52,0,0,1-.86-4v-10h2.64v9.62a5.64,5.64,0,0,0,1.2,3.87,4.18,4.18,0,0,0,3.29,1.35,4.27,4.27,0,0,0,3.37-1.4,6,6,0,0,0,1.23-4.07V31.23Z" transform="translate(-21.59 -24.61)"/><path class="cls-1" d="M230.38,33.57v10a2.45,2.45,0,0,0,.5,1.76,2.37,2.37,0,0,0,1.73.51h2v2.4h-2.4a4.6,4.6,0,0,1-3.35-1.09,4.86,4.86,0,0,1-1.11-3.58v-10h-2.09V31.23h2.09V26.94h2.67v4.29h4.19v2.34Z" transform="translate(-21.59 -24.61)"/><path class="cls-1" d="M237.89,27.91a2,2,0,0,1,0-2.74,1.68,1.68,0,0,1,1.29-.56,1.62,1.62,0,0,1,1.25.56,2.1,2.1,0,0,1,0,2.74,1.66,1.66,0,0,1-1.25.56A1.71,1.71,0,0,1,237.89,27.91Zm2.58,3.32V48.28H237.8v-17Z" transform="translate(-21.59 -24.61)"/><path class="cls-1" d="M247.69,25.26v23H245v-23Z" transform="translate(-21.59 -24.61)"/><path class="cls-1" d="M252.32,27.91a2,2,0,0,1,0-2.74,1.68,1.68,0,0,1,1.29-.56,1.61,1.61,0,0,1,1.25.56,2.1,2.1,0,0,1,0,2.74,1.64,1.64,0,0,1-1.25.56A1.71,1.71,0,0,1,252.32,27.91Zm2.58,3.32V48.28h-2.67v-17Z" transform="translate(-21.59 -24.61)"/><path class="cls-1" d="M261.45,46h7.89v2.33H258.4V46l7.8-12.41h-7.75V31.23h10.83v2.31Z" transform="translate(-21.59 -24.61)"/><path class="cls-1" d="M272.8,35.11A7.58,7.58,0,0,1,275.54,32,7.27,7.27,0,0,1,279.43,31a6.86,6.86,0,0,1,3.67,1,6.24,6.24,0,0,1,2.32,2.42V31.23h2.7V48.28h-2.7V45.11a6.55,6.55,0,0,1-2.36,2.47,6.81,6.81,0,0,1-3.66,1,7,7,0,0,1-3.87-1.12,7.77,7.77,0,0,1-2.73-3.14,10.35,10.35,0,0,1-1-4.61A10.06,10.06,0,0,1,272.8,35.11Zm11.89,1.26a5.33,5.33,0,0,0-2-2.2,5.21,5.21,0,0,0-2.74-.76,5.14,5.14,0,0,0-2.73.75,5.25,5.25,0,0,0-2,2.17,7.3,7.3,0,0,0-.74,3.36,7.42,7.42,0,0,0,.74,3.41,5.36,5.36,0,0,0,2,2.21,5.06,5.06,0,0,0,2.73.76,5.12,5.12,0,0,0,2.74-.76,5.36,5.36,0,0,0,2-2.21,7.47,7.47,0,0,0,.73-3.37A7.36,7.36,0,0,0,284.69,36.37Z" transform="translate(-21.59 -24.61)"/><path class="cls-1" d="M297.32,31.73a5.92,5.92,0,0,1,3.18-.81v2.93h-.7c-3,0-4.49,1.72-4.49,5.16v9.27h-2.67v-17h2.67V34A5.35,5.35,0,0,1,297.32,31.73Z" transform="translate(-21.59 -24.61)"/><path class="cls-1" d="M326,40.81H313.15a5.67,5.67,0,0,0,1.62,3.94,5,5,0,0,0,3.6,1.41,4.76,4.76,0,0,0,2.89-.85A4.55,4.55,0,0,0,322.89,43h2.87a7.37,7.37,0,0,1-2.58,4,7.48,7.48,0,0,1-4.81,1.54,7.76,7.76,0,0,1-4.1-1.09,7.57,7.57,0,0,1-2.83-3.09,10.14,10.14,0,0,1-1-4.65,10.29,10.29,0,0,1,1-4.64A7.19,7.19,0,0,1,314.22,32,7.9,7.9,0,0,1,318.37,31,7.79,7.79,0,0,1,322.42,32a7.17,7.17,0,0,1,2.71,2.91,8.94,8.94,0,0,1,.95,4.18A17.1,17.1,0,0,1,326,40.81Zm-3.35-5.08A4.45,4.45,0,0,0,320.82,34a5.42,5.42,0,0,0-2.57-.61,4.81,4.81,0,0,0-3.45,1.37,5.73,5.73,0,0,0-1.63,3.79h10.16A5.45,5.45,0,0,0,322.65,35.73Z" transform="translate(-21.59 -24.61)"/><path class="cls-1" d="M332.28,25.26v23h-2.67v-23Z" transform="translate(-21.59 -24.61)"/><path class="cls-1" d="M359.24,40.81H346.39A5.67,5.67,0,0,0,348,44.75a5,5,0,0,0,3.59,1.41,4.74,4.74,0,0,0,2.89-.85A4.49,4.49,0,0,0,356.13,43H359a7.37,7.37,0,0,1-2.58,4,7.46,7.46,0,0,1-4.81,1.54,7.7,7.7,0,0,1-4.09-1.09,7.44,7.44,0,0,1-2.83-3.09,10,10,0,0,1-1-4.65,10.16,10.16,0,0,1,1-4.64,7.17,7.17,0,0,1,2.8-3.06A7.93,7.93,0,0,1,351.61,31,7.74,7.74,0,0,1,355.66,32a7.17,7.17,0,0,1,2.71,2.91,8.94,8.94,0,0,1,1,4.18Q359.33,39.91,359.24,40.81Zm-3.35-5.08A4.45,4.45,0,0,0,354.06,34a5.39,5.39,0,0,0-2.57-.61,4.77,4.77,0,0,0-3.44,1.37,5.69,5.69,0,0,0-1.63,3.79h10.15A5.45,5.45,0,0,0,355.89,35.73Z" transform="translate(-21.59 -24.61)"/><path class="cls-1" d="M362.85,35.11A7.51,7.51,0,0,1,365.59,32,7.3,7.3,0,0,1,369.51,31a7,7,0,0,1,3.49.92,6.34,6.34,0,0,1,2.46,2.41v-9h2.7v23h-2.7v-3.2a6.43,6.43,0,0,1-2.34,2.5,6.72,6.72,0,0,1-3.64,1,7,7,0,0,1-3.89-1.12,7.65,7.65,0,0,1-2.74-3.14,10.21,10.21,0,0,1-1-4.61A9.94,9.94,0,0,1,362.85,35.11Zm11.88,1.26a5.37,5.37,0,0,0-2-2.2,5.24,5.24,0,0,0-2.74-.76,5.14,5.14,0,0,0-2.73.75,5.33,5.33,0,0,0-2,2.17,7.3,7.3,0,0,0-.73,3.36,7.42,7.42,0,0,0,.73,3.41,5.45,5.45,0,0,0,2,2.21,5.06,5.06,0,0,0,2.73.76,5.15,5.15,0,0,0,2.74-.76,5.4,5.4,0,0,0,2-2.21,7.34,7.34,0,0,0,.73-3.37A7.24,7.24,0,0,0,374.73,36.37Z" transform="translate(-21.59 -24.61)"/><path class="cls-1" d="M382.77,27.91a2,2,0,0,1,0-2.74,1.68,1.68,0,0,1,1.29-.56,1.61,1.61,0,0,1,1.25.56,2.1,2.1,0,0,1,0,2.74,1.64,1.64,0,0,1-1.25.56A1.71,1.71,0,0,1,382.77,27.91Zm2.58,3.32V48.28h-2.67v-17Z" transform="translate(-21.59 -24.61)"/><path class="cls-1" d="M393.16,33.57v10a2.45,2.45,0,0,0,.5,1.76,2.35,2.35,0,0,0,1.73.51h2v2.4H395a4.6,4.6,0,0,1-3.35-1.09,4.86,4.86,0,0,1-1.11-3.58v-10H388.4V31.23h2.09V26.94h2.67v4.29h4.19v2.34Z" transform="translate(-21.59 -24.61)"/><path class="cls-1" d="M403.5,47.47a7.62,7.62,0,0,1-2.88-3.09,10,10,0,0,1-1-4.65,9.67,9.67,0,0,1,1.07-4.62A7.62,7.62,0,0,1,403.57,32a8.48,8.48,0,0,1,8.28,0,7.63,7.63,0,0,1,2.92,3.06,9.69,9.69,0,0,1,1.07,4.64,9.57,9.57,0,0,1-1.1,4.65,7.92,7.92,0,0,1-3,3.09,8.11,8.11,0,0,1-4.17,1.09A7.83,7.83,0,0,1,403.5,47.47Zm6.79-2.11a5.37,5.37,0,0,0,2-2.15,7.19,7.19,0,0,0,.78-3.48,7.47,7.47,0,0,0-.76-3.49A5.33,5.33,0,0,0,405,34.11a5,5,0,0,0-2,2.13,7.73,7.73,0,0,0-.73,3.49,7.73,7.73,0,0,0,.72,3.51A5,5,0,0,0,405,45.37a5.11,5.11,0,0,0,2.64.7A5.45,5.45,0,0,0,410.29,45.36Z" transform="translate(-21.59 -24.61)"/><path class="cls-1" d="M424,31.73a5.92,5.92,0,0,1,3.18-.81v2.93h-.7c-3,0-4.49,1.72-4.49,5.16v9.27h-2.67v-17H422V34A5.35,5.35,0,0,1,424,31.73Z" transform="translate(-21.59 -24.61)"/><path class="cls-1" d="M446,35.11A7.51,7.51,0,0,1,448.71,32,7.32,7.32,0,0,1,452.63,31a7,7,0,0,1,3.49.92,6.43,6.43,0,0,1,2.47,2.41v-9h2.7v23h-2.7v-3.2a6.46,6.46,0,0,1-2.35,2.5,6.72,6.72,0,0,1-3.64,1,7,7,0,0,1-3.89-1.12A7.65,7.65,0,0,1,446,44.3a10.35,10.35,0,0,1-1-4.61A10.06,10.06,0,0,1,446,35.11Zm11.88,1.26a5.37,5.37,0,0,0-2-2.2,5.21,5.21,0,0,0-2.74-.76,5.14,5.14,0,0,0-2.73.75,5.25,5.25,0,0,0-2,2.17,7.3,7.3,0,0,0-.74,3.36,7.42,7.42,0,0,0,.74,3.41,5.36,5.36,0,0,0,2,2.21,5.06,5.06,0,0,0,2.73.76,5.12,5.12,0,0,0,2.74-.76,5.4,5.4,0,0,0,2-2.21,7.34,7.34,0,0,0,.74-3.37A7.24,7.24,0,0,0,457.85,36.37Z" transform="translate(-21.59 -24.61)"/><path class="cls-1" d="M480.39,40.81H467.54a5.67,5.67,0,0,0,1.62,3.94,5,5,0,0,0,3.6,1.41,4.74,4.74,0,0,0,2.89-.85A4.55,4.55,0,0,0,477.28,43h2.87a7.37,7.37,0,0,1-2.58,4,7.46,7.46,0,0,1-4.81,1.54,7.7,7.7,0,0,1-4.09-1.09,7.53,7.53,0,0,1-2.84-3.09,10.14,10.14,0,0,1-1-4.65,10.29,10.29,0,0,1,1-4.64A7.19,7.19,0,0,1,468.61,32,7.9,7.9,0,0,1,472.76,31,7.79,7.79,0,0,1,476.81,32a7.17,7.17,0,0,1,2.71,2.91,8.94,8.94,0,0,1,1,4.18Q480.48,39.91,480.39,40.81ZM477,35.73A4.45,4.45,0,0,0,475.21,34a5.39,5.39,0,0,0-2.57-.61,4.81,4.81,0,0,0-3.45,1.37,5.73,5.73,0,0,0-1.63,3.79h10.16A5.45,5.45,0,0,0,477,35.73Z" transform="translate(-21.59 -24.61)"/><path class="cls-1" d="M496.86,31.93a6.81,6.81,0,0,1,3.66-1A7.23,7.23,0,0,1,504.4,32a7.53,7.53,0,0,1,2.75,3.07,10.06,10.06,0,0,1,1,4.58,10.34,10.34,0,0,1-1,4.61,7.67,7.67,0,0,1-2.75,3.14,7,7,0,0,1-3.88,1.12,6.82,6.82,0,0,1-6-3.42V56.37h-2.67V31.23h2.67v3.15A6.65,6.65,0,0,1,496.86,31.93Zm7.82,4.4a5.29,5.29,0,0,0-2-2.17,5.31,5.31,0,0,0-5.46,0,5.49,5.49,0,0,0-2,2.21,7.9,7.9,0,0,0,0,6.72,5.49,5.49,0,0,0,2,2.21,5.28,5.28,0,0,0,5.46,0,5.4,5.4,0,0,0,2-2.21,7.42,7.42,0,0,0,.74-3.41A7.3,7.3,0,0,0,504.68,36.33Z" transform="translate(-21.59 -24.61)"/><path class="cls-1" d="M514.58,47.47a7.53,7.53,0,0,1-2.87-3.09,9.9,9.9,0,0,1-1-4.65,9.55,9.55,0,0,1,1.07-4.62A7.49,7.49,0,0,1,514.66,32a8.46,8.46,0,0,1,8.27,0,7.56,7.56,0,0,1,2.92,3.06,9.69,9.69,0,0,1,1.07,4.64,9.46,9.46,0,0,1-1.1,4.65,7.78,7.78,0,0,1-3,3.09,8.1,8.1,0,0,1-4.16,1.09A7.86,7.86,0,0,1,514.58,47.47Zm6.8-2.11a5.37,5.37,0,0,0,2-2.15,7.3,7.3,0,0,0,.77-3.48,7.35,7.35,0,0,0-.76-3.49,5.21,5.21,0,0,0-2-2.13,5.33,5.33,0,0,0-2.67-.7,5.27,5.27,0,0,0-2.69.7,5.06,5.06,0,0,0-2,2.13,7.6,7.6,0,0,0-.73,3.49,7.73,7.73,0,0,0,.71,3.51A5,5,0,0,0,516,45.37a5.11,5.11,0,0,0,2.64.7A5.45,5.45,0,0,0,521.38,45.36Z" transform="translate(-21.59 -24.61)"/><path class="cls-1" d="M532.82,47.89A5.6,5.6,0,0,1,530.5,46a5.1,5.1,0,0,1-.94-2.75h2.76a3,3,0,0,0,1.13,2.09,4.11,4.11,0,0,0,2.66.8,3.69,3.69,0,0,0,2.4-.71,2.22,2.22,0,0,0,.88-1.8,1.79,1.79,0,0,0-.94-1.67,12.57,12.57,0,0,0-2.9-1.07,20.14,20.14,0,0,1-2.92-1,5.3,5.3,0,0,1-1.94-1.53,4.11,4.11,0,0,1-.8-2.66,4.16,4.16,0,0,1,.73-2.39,5,5,0,0,1,2.08-1.73,7.22,7.22,0,0,1,3.08-.64,6.38,6.38,0,0,1,4.32,1.43,5.33,5.33,0,0,1,1.76,3.92h-2.67a3,3,0,0,0-1-2.14,3.61,3.61,0,0,0-2.48-.81,3.68,3.68,0,0,0-2.28.65,2.06,2.06,0,0,0-.85,1.71,2,2,0,0,0,.51,1.39,3.76,3.76,0,0,0,1.29.87,21.13,21.13,0,0,0,2.16.73,22.13,22.13,0,0,1,2.81,1,4.86,4.86,0,0,1,1.87,1.45,4.06,4.06,0,0,1,.8,2.52,4.45,4.45,0,0,1-.73,2.51,4.91,4.91,0,0,1-2.07,1.76,7,7,0,0,1-3.06.64A7.85,7.85,0,0,1,532.82,47.89Z" transform="translate(-21.59 -24.61)"/><path class="cls-1" d="M549,33.57v10a2.5,2.5,0,0,0,.49,1.76,2.4,2.4,0,0,0,1.74.51h2v2.4h-2.4a4.6,4.6,0,0,1-3.35-1.09,4.86,4.86,0,0,1-1.11-3.58v-10h-2.09V31.23h2.09V26.94H549v4.29h4.19v2.34Z" transform="translate(-21.59 -24.61)"/><path class="cls-1" d="M564.27,35.11A7.53,7.53,0,0,1,567,32,7.29,7.29,0,0,1,570.93,31a6.92,6.92,0,0,1,3.49.92,6.43,6.43,0,0,1,2.47,2.41v-9h2.7v23h-2.7v-3.2a6.46,6.46,0,0,1-2.35,2.5,6.69,6.69,0,0,1-3.64,1A7,7,0,0,1,567,47.44a7.67,7.67,0,0,1-2.75-3.14,10.34,10.34,0,0,1-1-4.61A10.06,10.06,0,0,1,564.27,35.11Zm11.89,1.26a5.37,5.37,0,0,0-2-2.2,5.27,5.27,0,0,0-2.75-.76,5.14,5.14,0,0,0-2.73.75,5.31,5.31,0,0,0-2,2.17,7.3,7.3,0,0,0-.74,3.36,7.42,7.42,0,0,0,.74,3.41,5.43,5.43,0,0,0,2,2.21,5.06,5.06,0,0,0,2.73.76,5.18,5.18,0,0,0,2.75-.76,5.4,5.4,0,0,0,2-2.21,7.34,7.34,0,0,0,.73-3.37A7.24,7.24,0,0,0,576.16,36.37Z" transform="translate(-21.59 -24.61)"/><path class="cls-1" d="M598.69,40.81H585.84a5.67,5.67,0,0,0,1.63,3.94,5,5,0,0,0,3.59,1.41,4.72,4.72,0,0,0,2.89-.85A4.49,4.49,0,0,0,595.58,43h2.88a7.29,7.29,0,0,1-7.4,5.54A7.73,7.73,0,0,1,587,47.47a7.5,7.5,0,0,1-2.83-3.09,10,10,0,0,1-1-4.65,10.16,10.16,0,0,1,1-4.64,7.17,7.17,0,0,1,2.8-3.06A7.93,7.93,0,0,1,591.06,31,7.74,7.74,0,0,1,595.11,32a7.17,7.17,0,0,1,2.71,2.91,8.94,8.94,0,0,1,1,4.18Q598.78,39.91,598.69,40.81Zm-3.34-5.08A4.48,4.48,0,0,0,593.51,34a5.39,5.39,0,0,0-2.57-.61,4.77,4.77,0,0,0-3.44,1.37,5.69,5.69,0,0,0-1.63,3.79H596A5.55,5.55,0,0,0,595.35,35.73Z" transform="translate(-21.59 -24.61)"/><path class="cls-1" d="M612.8,25.26v23h-2.67v-23Z" transform="translate(-21.59 -24.61)"/><path class="cls-1" d="M617.35,35.11A7.51,7.51,0,0,1,620.09,32,7.27,7.27,0,0,1,624,31a6.86,6.86,0,0,1,3.67,1A6.24,6.24,0,0,1,630,34.34V31.23h2.7V48.28H630V45.11a6.51,6.51,0,0,1-2.37,2.47,6.75,6.75,0,0,1-3.65,1,6.93,6.93,0,0,1-3.87-1.12,7.63,7.63,0,0,1-2.73-3.14,10.35,10.35,0,0,1-1-4.61A10.06,10.06,0,0,1,617.35,35.11Zm11.88,1.26a5.37,5.37,0,0,0-2-2.2,5.21,5.21,0,0,0-2.74-.76,5.14,5.14,0,0,0-2.73.75,5.33,5.33,0,0,0-2,2.17,7.42,7.42,0,0,0-.73,3.36,7.55,7.55,0,0,0,.73,3.41,5.45,5.45,0,0,0,2,2.21,5.06,5.06,0,0,0,2.73.76,5.12,5.12,0,0,0,2.74-.76,5.4,5.4,0,0,0,2-2.21,7.34,7.34,0,0,0,.74-3.37A7.24,7.24,0,0,0,629.23,36.37Z" transform="translate(-21.59 -24.61)"/><path class="cls-1" d="M245.82,54.71V57h-5.57V76.39h-2.67V57H232v-2.3Z" transform="translate(-21.59 -24.61)"/><path class="cls-1" d="M249.11,63.22a7.51,7.51,0,0,1,2.74-3.07,7.26,7.26,0,0,1,3.89-1.08,6.85,6.85,0,0,1,3.67,1,6.2,6.2,0,0,1,2.32,2.43V59.35h2.7v17h-2.7V73.22a6.55,6.55,0,0,1-2.36,2.47,6.81,6.81,0,0,1-3.66,1,6.93,6.93,0,0,1-3.87-1.12,7.56,7.56,0,0,1-2.73-3.14,10.33,10.33,0,0,1-1-4.6A10.11,10.11,0,0,1,249.11,63.22ZM261,64.48a5.28,5.28,0,0,0-2-2.19,5.3,5.3,0,0,0-5.47,0,5.21,5.21,0,0,0-2,2.18,7.24,7.24,0,0,0-.74,3.36,7.41,7.41,0,0,0,.74,3.4,5.3,5.3,0,0,0,2,2.21,5.06,5.06,0,0,0,2.73.76,5.12,5.12,0,0,0,2.74-.76,5.34,5.34,0,0,0,2-2.21,7.34,7.34,0,0,0,.74-3.37A7.24,7.24,0,0,0,261,64.48Z" transform="translate(-21.59 -24.61)"/><path class="cls-1" d="M273.62,59.84a6,6,0,0,1,3.19-.81V62h-.71q-4.49,0-4.49,5.16v9.27h-2.67v-17h2.67v2.76A5.35,5.35,0,0,1,273.62,59.84Z" transform="translate(-21.59 -24.61)"/><path class="cls-1" d="M282.65,80.09a4.48,4.48,0,0,1-1.09,3.33,4.34,4.34,0,0,1-3.17,1.06h-1.55v-2.4H278a2.13,2.13,0,0,0,1.57-.46A2.25,2.25,0,0,0,280,80V59.35h2.67ZM280.05,56a2.1,2.1,0,0,1,0-2.74,1.73,1.73,0,0,1,2.55,0,2.06,2.06,0,0,1,0,2.74,1.73,1.73,0,0,1-2.55,0Z" transform="translate(-21.59 -24.61)"/><path class="cls-1" d="M301.75,68.93H288.9a5.64,5.64,0,0,0,1.62,3.93,5,5,0,0,0,3.6,1.42,4.74,4.74,0,0,0,2.89-.86,4.55,4.55,0,0,0,1.63-2.29h2.87a7.33,7.33,0,0,1-2.58,4,7.46,7.46,0,0,1-4.81,1.54A7.7,7.7,0,0,1,290,75.58a7.47,7.47,0,0,1-2.84-3.09,11.19,11.19,0,0,1,0-9.29,7.17,7.17,0,0,1,2.8-3.06,7.89,7.89,0,0,1,4.15-1.07,7.79,7.79,0,0,1,4.05,1A7.17,7.17,0,0,1,300.88,63a9,9,0,0,1,1,4.19C301.84,67.75,301.81,68.33,301.75,68.93Zm-3.35-5.09a4.45,4.45,0,0,0-1.83-1.77,5.39,5.39,0,0,0-2.57-.61,4.81,4.81,0,0,0-3.45,1.37,5.68,5.68,0,0,0-1.62,3.79h10.15A5.48,5.48,0,0,0,298.4,63.84Z" transform="translate(-21.59 -24.61)"/><path class="cls-1" d="M308.61,61.68V71.73a2.47,2.47,0,0,0,.5,1.75,2.32,2.32,0,0,0,1.73.52h2v2.39H310.4a4.59,4.59,0,0,1-3.34-1.09,4.79,4.79,0,0,1-1.12-3.57V61.68h-2.08V59.35h2.08v-4.3h2.67v4.3h4.2v2.33Z" transform="translate(-21.59 -24.61)"/><path class="cls-1" d="M316,63.22a7.51,7.51,0,0,1,2.74-3.07,7.24,7.24,0,0,1,3.89-1.08,6.85,6.85,0,0,1,3.67,1,6.24,6.24,0,0,1,2.31,2.43V59.35h2.7v17h-2.7V73.22a6.48,6.48,0,0,1-2.36,2.47,6.78,6.78,0,0,1-3.65,1,6.93,6.93,0,0,1-3.87-1.12A7.56,7.56,0,0,1,316,72.41a10.2,10.2,0,0,1-1-4.6A10,10,0,0,1,316,63.22Zm11.88,1.26a5.28,5.28,0,0,0-2-2.19,5.3,5.3,0,0,0-5.47,0,5.3,5.3,0,0,0-2,2.18,7.24,7.24,0,0,0-.73,3.36,7.41,7.41,0,0,0,.73,3.4,5.39,5.39,0,0,0,2,2.21,5.06,5.06,0,0,0,2.73.76,5.15,5.15,0,0,0,2.74-.76,5.34,5.34,0,0,0,2-2.21,7.34,7.34,0,0,0,.73-3.37A7.24,7.24,0,0,0,327.92,64.48Z" transform="translate(-21.59 -24.61)"/><path class="cls-1" d="M346.38,57v7.25h7.45v2.33h-7.45v7.47h8.33v2.33h-11V54.68h11V57Z" transform="translate(-21.59 -24.61)"/><path class="cls-1" d="M361.13,76a5.55,5.55,0,0,1-2.31-1.86,5.16,5.16,0,0,1-.94-2.76h2.75a3,3,0,0,0,1.13,2.09,4.14,4.14,0,0,0,2.66.81,3.7,3.7,0,0,0,2.41-.72,2.25,2.25,0,0,0,.88-1.8,1.82,1.82,0,0,0-.94-1.67A12.87,12.87,0,0,0,363.86,69a21,21,0,0,1-2.92-1A5.09,5.09,0,0,1,359,66.48a4.12,4.12,0,0,1-.81-2.66,4.18,4.18,0,0,1,.73-2.39A5.07,5.07,0,0,1,361,59.7a7.18,7.18,0,0,1,3.08-.63,6.3,6.3,0,0,1,4.31,1.43,5.26,5.26,0,0,1,1.76,3.92H367.5a3,3,0,0,0-1-2.15,3.63,3.63,0,0,0-2.48-.81,3.71,3.71,0,0,0-2.29.65,2.06,2.06,0,0,0-.85,1.71,2,2,0,0,0,.51,1.39,4,4,0,0,0,1.29.87,21.13,21.13,0,0,0,2.16.73,22.92,22.92,0,0,1,2.82,1,4.91,4.91,0,0,1,1.86,1.45,4,4,0,0,1,.81,2.52,4.51,4.51,0,0,1-.74,2.52A5,5,0,0,1,367.52,76a7,7,0,0,1-3.07.64A7.88,7.88,0,0,1,361.13,76Z" transform="translate(-21.59 -24.61)"/><path class="cls-1" d="M377.33,61.68V71.73a2.47,2.47,0,0,0,.5,1.75,2.32,2.32,0,0,0,1.73.52h2v2.39h-2.41a4.61,4.61,0,0,1-3.35-1.09,4.83,4.83,0,0,1-1.11-3.57V61.68h-2.08V59.35h2.08v-4.3h2.67v4.3h4.2v2.33Z" transform="translate(-21.59 -24.61)"/><path class="cls-1" d="M384.84,56a2,2,0,0,1,0-2.74,1.71,1.71,0,0,1,1.29-.56,1.64,1.64,0,0,1,1.25.56,2.1,2.1,0,0,1,0,2.74,1.64,1.64,0,0,1-1.25.56A1.71,1.71,0,0,1,384.84,56Zm2.58,3.33v17h-2.67v-17Z" transform="translate(-21.59 -24.61)"/><path class="cls-1" d="M394.64,53.37v23H392v-23Z" transform="translate(-21.59 -24.61)"/><path class="cls-1" d="M402.11,75.58a7.49,7.49,0,0,1-2.88-3.09,10,10,0,0,1-1-4.65,9.72,9.72,0,0,1,1.07-4.62,7.56,7.56,0,0,1,2.92-3.08,8.52,8.52,0,0,1,8.27,0,7.56,7.56,0,0,1,2.92,3.06,9.6,9.6,0,0,1,1.07,4.64,9.46,9.46,0,0,1-1.1,4.65,7.76,7.76,0,0,1-3,3.09,8.14,8.14,0,0,1-4.17,1.09A7.8,7.8,0,0,1,402.11,75.58Zm6.79-2.11a5.31,5.31,0,0,0,2-2.15,7.16,7.16,0,0,0,.78-3.48,7.34,7.34,0,0,0-.77-3.49,5.21,5.21,0,0,0-2-2.13,5.48,5.48,0,0,0-5.36,0,5.06,5.06,0,0,0-2,2.13,7.6,7.6,0,0,0-.73,3.49,7.73,7.73,0,0,0,.72,3.51,4.89,4.89,0,0,0,1.92,2.13,5.11,5.11,0,0,0,2.64.7A5.45,5.45,0,0,0,408.9,73.47Z" transform="translate(-21.59 -24.61)"/><path class="cls-1" d="M420.34,76A5.58,5.58,0,0,1,418,74.14a5.15,5.15,0,0,1-.93-2.76h2.75A3,3,0,0,0,421,73.47a4.14,4.14,0,0,0,2.66.81,3.66,3.66,0,0,0,2.4-.72,2.23,2.23,0,0,0,.89-1.8,1.82,1.82,0,0,0-.94-1.67A12.87,12.87,0,0,0,423.07,69a20.58,20.58,0,0,1-2.92-1,5.09,5.09,0,0,1-1.93-1.53,4.12,4.12,0,0,1-.81-2.66,4.18,4.18,0,0,1,.73-2.39,5.07,5.07,0,0,1,2.09-1.73,7.15,7.15,0,0,1,3.08-.63,6.3,6.3,0,0,1,4.31,1.43,5.3,5.3,0,0,1,1.76,3.92h-2.67a3,3,0,0,0-1-2.15,3.65,3.65,0,0,0-2.48-.81,3.71,3.71,0,0,0-2.29.65,2.06,2.06,0,0,0-.85,1.71,2,2,0,0,0,.51,1.39,3.76,3.76,0,0,0,1.29.87,21.13,21.13,0,0,0,2.16.73,22.92,22.92,0,0,1,2.82,1,4.91,4.91,0,0,1,1.86,1.45,4,4,0,0,1,.81,2.52,4.51,4.51,0,0,1-.74,2.52A5,5,0,0,1,426.72,76a7,7,0,0,1-3.06.64A7.88,7.88,0,0,1,420.34,76Z" transform="translate(-21.59 -24.61)"/><path class="cls-1" d="M25,132.07a6.11,6.11,0,0,1-2.5-2.11,5.66,5.66,0,0,1-.94-3.13h2.84a3.85,3.85,0,0,0,4.23,3.61,4.31,4.31,0,0,0,3-1,3.39,3.39,0,0,0,1.1-2.6,3.06,3.06,0,0,0-.65-2,4.14,4.14,0,0,0-1.61-1.18,26.77,26.77,0,0,0-2.61-.88,21,21,0,0,1-3.25-1.12,5.25,5.25,0,0,1-2.08-1.75,5.37,5.37,0,0,1-.87-3.22,5.8,5.8,0,0,1,.86-3.14A5.55,5.55,0,0,1,25,111.4a7.93,7.93,0,0,1,3.53-.75,7.1,7.1,0,0,1,4.71,1.53,5.75,5.75,0,0,1,2.07,4H32.33A3.38,3.38,0,0,0,31.09,114a4.21,4.21,0,0,0-2.87-1,4,4,0,0,0-2.73.92,3.23,3.23,0,0,0-1.06,2.56,2.87,2.87,0,0,0,.63,1.93,4,4,0,0,0,1.56,1.14c.62.26,1.48.55,2.6.89a23.27,23.27,0,0,1,3.25,1.16,5.57,5.57,0,0,1,2.11,1.77,5.39,5.39,0,0,1,.89,3.26A6,6,0,0,1,32.33,132a7.41,7.41,0,0,1-3.67.87A8.33,8.33,0,0,1,25,132.07Z" transform="translate(-21.59 -24.61)"/><path class="cls-1" d="M53.66,115.57v17.05H51V130.1a5.27,5.27,0,0,1-2.13,2,6.23,6.23,0,0,1-3,.73,6.86,6.86,0,0,1-3.37-.82,5.76,5.76,0,0,1-2.36-2.47,8.53,8.53,0,0,1-.87-4v-10h2.64v9.61a5.64,5.64,0,0,0,1.2,3.87,4.17,4.17,0,0,0,3.29,1.36,4.26,4.26,0,0,0,3.37-1.4A6,6,0,0,0,51,124.93v-9.36Z" transform="translate(-21.59 -24.61)"/><path class="cls-1" d="M71,116.27a6.8,6.8,0,0,1,3.65-1,7.16,7.16,0,0,1,3.89,1.09,7.5,7.5,0,0,1,2.75,3.06,10.14,10.14,0,0,1,1,4.59,10.3,10.3,0,0,1-1,4.6,7.7,7.7,0,0,1-2.75,3.15,7.1,7.1,0,0,1-3.89,1.12,6.72,6.72,0,0,1-3.62-1,6.82,6.82,0,0,1-2.39-2.45V140.7H66V115.57h2.67v3.14A6.55,6.55,0,0,1,71,116.27Zm7.82,4.4a5.15,5.15,0,0,0-4.72-2.92,5.1,5.1,0,0,0-2.72.76,5.43,5.43,0,0,0-2,2.21,7.15,7.15,0,0,0-.75,3.34,7.26,7.26,0,0,0,.75,3.38,5.4,5.4,0,0,0,2,2.2,5.22,5.22,0,0,0,5.46,0,5.31,5.31,0,0,0,2-2.2,7.45,7.45,0,0,0,.73-3.41A7.24,7.24,0,0,0,78.86,120.67Z" transform="translate(-21.59 -24.61)"/><path class="cls-1" d="M90.52,116.07a6,6,0,0,1,3.19-.81v2.92H93q-4.48,0-4.49,5.17v9.27H85.84V115.57h2.67v2.77A5.29,5.29,0,0,1,90.52,116.07Z" transform="translate(-21.59 -24.61)"/><path class="cls-1" d="M99.71,131.81a7.58,7.58,0,0,1-2.88-3.1,10,10,0,0,1-1-4.65,9.72,9.72,0,0,1,1.07-4.62,7.62,7.62,0,0,1,2.92-3.08,8.52,8.52,0,0,1,8.27,0,7.59,7.59,0,0,1,2.92,3.07,10.46,10.46,0,0,1,0,9.28,7.85,7.85,0,0,1-3,3.1,8.24,8.24,0,0,1-4.17,1.09A7.89,7.89,0,0,1,99.71,131.81Zm6.79-2.12a5.31,5.31,0,0,0,2-2.15,7.16,7.16,0,0,0,.78-3.48,7.28,7.28,0,0,0-.77-3.48,5.09,5.09,0,0,0-2-2.13,5.48,5.48,0,0,0-5.36,0,5,5,0,0,0-2,2.13,7.52,7.52,0,0,0-.73,3.48,7.8,7.8,0,0,0,.72,3.52,5,5,0,0,0,1.92,2.13,5.21,5.21,0,0,0,2.64.7A5.35,5.35,0,0,0,106.5,129.69Z" transform="translate(-21.59 -24.61)"/><path class="cls-1" d="M138.25,116.08a5.8,5.8,0,0,1,2.31,2.48,8.58,8.58,0,0,1,.86,4v10.05h-2.65V123a5.74,5.74,0,0,0-1.18-3.9,4.09,4.09,0,0,0-3.22-1.35,4.17,4.17,0,0,0-3.31,1.41,6.06,6.06,0,0,0-1.23,4.09v9.4h-2.64V123a5.74,5.74,0,0,0-1.19-3.9,4.09,4.09,0,0,0-3.22-1.35,4.17,4.17,0,0,0-3.31,1.41,6.06,6.06,0,0,0-1.23,4.09v9.4h-2.67V115.57h2.67V118a5.38,5.38,0,0,1,2.12-2.06,6.24,6.24,0,0,1,3-.71,6.68,6.68,0,0,1,3.58,1,5.84,5.84,0,0,1,2.32,2.83,5.54,5.54,0,0,1,2.23-2.8,6.32,6.32,0,0,1,3.46-1A6.73,6.73,0,0,1,138.25,116.08Z" transform="translate(-21.59 -24.61)"/><path class="cls-1" d="M148.71,131.81a7.58,7.58,0,0,1-2.88-3.1,10,10,0,0,1-1-4.65,9.72,9.72,0,0,1,1.07-4.62,7.62,7.62,0,0,1,2.92-3.08,8.52,8.52,0,0,1,8.27,0,7.59,7.59,0,0,1,2.92,3.07,10.46,10.46,0,0,1,0,9.28,7.85,7.85,0,0,1-3,3.1,8.24,8.24,0,0,1-4.17,1.09A7.89,7.89,0,0,1,148.71,131.81Zm6.79-2.12a5.31,5.31,0,0,0,2-2.15,7.16,7.16,0,0,0,.78-3.48,7.28,7.28,0,0,0-.77-3.48,5.09,5.09,0,0,0-2-2.13,5.48,5.48,0,0,0-5.36,0,5,5,0,0,0-1.95,2.13,7.52,7.52,0,0,0-.73,3.48,7.8,7.8,0,0,0,.72,3.52,5,5,0,0,0,1.92,2.13,5.21,5.21,0,0,0,2.64.7A5.35,5.35,0,0,0,155.5,129.69Z" transform="translate(-21.59 -24.61)"/><path class="cls-1" d="M164.57,119.44a7.35,7.35,0,0,1,2.77-3.06,7.57,7.57,0,0,1,4.06-1.09,7.66,7.66,0,0,1,4.89,1.52,7.33,7.33,0,0,1,2.54,4.23H176a4.38,4.38,0,0,0-1.6-2.45,4.73,4.73,0,0,0-2.95-.91,4.59,4.59,0,0,0-3.69,1.67,7.08,7.08,0,0,0-1.41,4.71,7.21,7.21,0,0,0,1.41,4.76,4.57,4.57,0,0,0,3.69,1.68,4.81,4.81,0,0,0,2.94-.87,4.41,4.41,0,0,0,1.61-2.49h2.88a7.59,7.59,0,0,1-2.59,4.18,7.41,7.41,0,0,1-4.84,1.58,7.66,7.66,0,0,1-4.06-1.09,7.4,7.4,0,0,1-2.77-3.08,10.26,10.26,0,0,1-1-4.67A10.08,10.08,0,0,1,164.57,119.44Z" transform="translate(-21.59 -24.61)"/><path class="cls-1" d="M182.46,112.24a2.06,2.06,0,0,1,0-2.74,1.74,1.74,0,0,1,1.29-.56,1.64,1.64,0,0,1,1.25.56,2.06,2.06,0,0,1,0,2.74,1.64,1.64,0,0,1-1.25.56A1.74,1.74,0,0,1,182.46,112.24Zm2.59,3.33v17.05h-2.67V115.57Z" transform="translate(-21.59 -24.61)"/><path class="cls-1" d="M192.51,131.81a7.55,7.55,0,0,1-2.87-3.1,9.9,9.9,0,0,1-1-4.65,9.61,9.61,0,0,1,1.07-4.62,7.55,7.55,0,0,1,2.92-3.08,8.52,8.52,0,0,1,8.27,0,7.72,7.72,0,0,1,2.92,3.07,10.46,10.46,0,0,1,0,9.28,7.88,7.88,0,0,1-3,3.1,8.2,8.2,0,0,1-4.16,1.09A7.93,7.93,0,0,1,192.51,131.81Zm6.79-2.12a5.18,5.18,0,0,0,2-2.15,7.16,7.16,0,0,0,.78-3.48,7.28,7.28,0,0,0-.76-3.48,5,5,0,0,0-2-2.13,5.46,5.46,0,0,0-5.35,0,5,5,0,0,0-1.95,2.13,7.52,7.52,0,0,0-.74,3.48,7.8,7.8,0,0,0,.72,3.52,5,5,0,0,0,1.92,2.13,5.27,5.27,0,0,0,2.65.7A5.34,5.34,0,0,0,199.3,129.69Zm.3-19.16-6.25,3.55V112l6.25-3.89Z" transform="translate(-21.59 -24.61)"/><path class="cls-1" d="M221,117.14a7.52,7.52,0,0,1,1.82,5.43v10.05h-2.64V123a5.64,5.64,0,0,0-1.21-3.9,4.16,4.16,0,0,0-3.28-1.35,4.25,4.25,0,0,0-3.36,1.4,5.93,5.93,0,0,0-1.25,4.07v9.43h-2.67V115.57H211V118a5.41,5.41,0,0,1,2.16-2,6.45,6.45,0,0,1,3-.71A6.33,6.33,0,0,1,221,117.14Z" transform="translate(-21.59 -24.61)"/><path class="cls-1" d="M237.36,132.23a5.68,5.68,0,0,1-2.32-1.87,5.16,5.16,0,0,1-.94-2.75h2.76a2.93,2.93,0,0,0,1.13,2.08,4.14,4.14,0,0,0,2.66.81,3.67,3.67,0,0,0,2.4-.72,2.2,2.2,0,0,0,.88-1.8,1.78,1.78,0,0,0-.94-1.66,12.5,12.5,0,0,0-2.9-1.08,20.58,20.58,0,0,1-2.92-1,5.27,5.27,0,0,1-1.94-1.52,4.13,4.13,0,0,1-.8-2.66,4.21,4.21,0,0,1,.73-2.4,5,5,0,0,1,2.08-1.72,7.07,7.07,0,0,1,3.08-.64,6.38,6.38,0,0,1,4.32,1.43,5.3,5.3,0,0,1,1.76,3.92h-2.67a3,3,0,0,0-1-2.15,4.23,4.23,0,0,0-4.76-.15,2,2,0,0,0-.85,1.71,1.93,1.93,0,0,0,.51,1.38,3.5,3.5,0,0,0,1.29.87,18.91,18.91,0,0,0,2.16.73,23.82,23.82,0,0,1,2.81,1,5.06,5.06,0,0,1,1.87,1.45,4.06,4.06,0,0,1,.8,2.52,4.5,4.5,0,0,1-.73,2.52,5,5,0,0,1-2.07,1.76,7.09,7.09,0,0,1-3.06.64A8,8,0,0,1,237.36,132.23Z" transform="translate(-21.59 -24.61)"/><path class="cls-1" d="M264.88,125.15H252a5.65,5.65,0,0,0,1.63,3.93,5,5,0,0,0,3.59,1.42,4.66,4.66,0,0,0,2.89-.86,4.45,4.45,0,0,0,1.63-2.28h2.88a7.33,7.33,0,0,1-2.59,4,7.51,7.51,0,0,1-4.81,1.54,7.82,7.82,0,0,1-4.09-1.09,7.53,7.53,0,0,1-2.83-3.1,10,10,0,0,1-1-4.65,10.12,10.12,0,0,1,1-4.63,7.25,7.25,0,0,1,2.8-3.07,8,8,0,0,1,4.15-1.07,7.65,7.65,0,0,1,4.05,1.06,7.07,7.07,0,0,1,2.72,2.91,9,9,0,0,1,1,4.18Q265,124.25,264.88,125.15Zm-3.34-5.09a4.54,4.54,0,0,0-1.84-1.77,5.49,5.49,0,0,0-2.56-.61,4.81,4.81,0,0,0-3.45,1.37,5.76,5.76,0,0,0-1.63,3.8h10.15A5.49,5.49,0,0,0,261.54,120.06Z" transform="translate(-21.59 -24.61)"/><path class="cls-1" d="M273.17,116.07a5.92,5.92,0,0,1,3.18-.81v2.92h-.7q-4.48,0-4.49,5.17v9.27h-2.67V115.57h2.67v2.77A5.29,5.29,0,0,1,273.17,116.07Z" transform="translate(-21.59 -24.61)"/><path class="cls-1" d="M279.43,119.44a7.5,7.5,0,0,1,2.75-3.06,7.16,7.16,0,0,1,3.89-1.09,6.82,6.82,0,0,1,3.66,1,6.33,6.33,0,0,1,2.32,2.43v-3.11h2.7v17.05h-2.7v-3.18a6.5,6.5,0,0,1-2.36,2.48,6.8,6.8,0,0,1-3.65,1,7.06,7.06,0,0,1-3.88-1.12,7.8,7.8,0,0,1-2.73-3.15,10.3,10.3,0,0,1-1-4.6A10.14,10.14,0,0,1,279.43,119.44Zm11.89,1.26a5.41,5.41,0,0,0-2-2.19,5.15,5.15,0,0,0-2.75-.76,5.22,5.22,0,0,0-2.72.74,5.3,5.3,0,0,0-2,2.18,7.24,7.24,0,0,0-.73,3.36,7.45,7.45,0,0,0,.73,3.41,5.29,5.29,0,0,0,2,2.2,5.06,5.06,0,0,0,2.72.77,5.16,5.16,0,0,0,2.75-.77,5.31,5.31,0,0,0,2-2.2,7.38,7.38,0,0,0,.73-3.38A7.3,7.3,0,0,0,291.32,120.7Zm-1.35-10-6.25,3.54v-2.11l6.25-3.89Z" transform="translate(-21.59 -24.61)"/><path class="cls-1" d="M311.78,116.07a5.93,5.93,0,0,1,3.19-.81v2.92h-.71q-4.49,0-4.49,5.17v9.27H307.1V115.57h2.67v2.77A5.29,5.29,0,0,1,311.78,116.07Z" transform="translate(-21.59 -24.61)"/><path class="cls-1" d="M332.63,125.15H319.78a5.65,5.65,0,0,0,1.63,3.93A5,5,0,0,0,325,130.5a4.68,4.68,0,0,0,2.89-.86,4.51,4.51,0,0,0,1.63-2.28h2.87a7.37,7.37,0,0,1-2.58,4A7.51,7.51,0,0,1,325,132.9a7.82,7.82,0,0,1-4.09-1.09,7.47,7.47,0,0,1-2.83-3.1,10,10,0,0,1-1-4.65,10.12,10.12,0,0,1,1-4.63,7.25,7.25,0,0,1,2.8-3.07,8,8,0,0,1,4.15-1.07,7.65,7.65,0,0,1,4.05,1.06,7,7,0,0,1,2.71,2.91,8.91,8.91,0,0,1,1,4.18Q332.72,124.25,332.63,125.15Zm-3.35-5.09a4.58,4.58,0,0,0-1.83-1.77,5.51,5.51,0,0,0-2.57-.61,4.77,4.77,0,0,0-3.44,1.37,5.71,5.71,0,0,0-1.63,3.8H330A5.49,5.49,0,0,0,329.28,120.06Z" transform="translate(-21.59 -24.61)"/><path class="cls-1" d="M342.22,130l5-14.43h2.85l-6.31,17.05h-3.11l-6.31-17.05h2.88Z" transform="translate(-21.59 -24.61)"/><path class="cls-1" d="M352.79,112.24a2,2,0,0,1,0-2.74,1.71,1.71,0,0,1,1.29-.56,1.62,1.62,0,0,1,1.24.56,2.06,2.06,0,0,1,0,2.74,1.62,1.62,0,0,1-1.24.56A1.71,1.71,0,0,1,352.79,112.24Zm2.58,3.33v17.05H352.7V115.57Z" transform="translate(-21.59 -24.61)"/><path class="cls-1" d="M362.29,132.23a5.68,5.68,0,0,1-2.32-1.87,5.15,5.15,0,0,1-.93-2.75h2.75a2.93,2.93,0,0,0,1.13,2.08,4.14,4.14,0,0,0,2.66.81,3.66,3.66,0,0,0,2.4-.72,2.2,2.2,0,0,0,.88-1.8,1.79,1.79,0,0,0-.93-1.66,12.8,12.8,0,0,0-2.91-1.08,20.58,20.58,0,0,1-2.92-1,5.16,5.16,0,0,1-1.93-1.52,4.14,4.14,0,0,1-.81-2.66,4.21,4.21,0,0,1,.73-2.4,5,5,0,0,1,2.08-1.72,7.08,7.08,0,0,1,3.09-.64,6.35,6.35,0,0,1,4.31,1.43,5.3,5.3,0,0,1,1.76,3.92h-2.67a3,3,0,0,0-1-2.15,4.25,4.25,0,0,0-4.77-.15,2,2,0,0,0-.85,1.71,1.93,1.93,0,0,0,.51,1.38,3.5,3.5,0,0,0,1.29.87A18.91,18.91,0,0,0,366,123a24.74,24.74,0,0,1,2.82,1,5.11,5.11,0,0,1,1.86,1.45,4,4,0,0,1,.81,2.52,4.51,4.51,0,0,1-.74,2.52,5,5,0,0,1-2.07,1.76,7.09,7.09,0,0,1-3.06.64A8,8,0,0,1,362.29,132.23Z" transform="translate(-21.59 -24.61)"/><path class="cls-1" d="M375.23,119.44a7.55,7.55,0,0,1,2.74-3.06,7.18,7.18,0,0,1,3.89-1.09,6.85,6.85,0,0,1,3.67,1,6.33,6.33,0,0,1,2.32,2.43v-3.11h2.7v17.05h-2.7v-3.18a6.58,6.58,0,0,1-2.36,2.48,6.81,6.81,0,0,1-3.66,1,7,7,0,0,1-3.87-1.12,7.8,7.8,0,0,1-2.73-3.15,10.3,10.3,0,0,1-1-4.6A10.14,10.14,0,0,1,375.23,119.44Zm11.88,1.26a5.27,5.27,0,0,0-2-2.19,5.12,5.12,0,0,0-2.74-.76,5.09,5.09,0,0,0-4.69,2.92A7.24,7.24,0,0,0,377,124a7.45,7.45,0,0,0,.74,3.41,5.27,5.27,0,0,0,2,2.2,5.07,5.07,0,0,0,2.73.77,5.22,5.22,0,0,0,4.72-3,7.38,7.38,0,0,0,.74-3.38A7.3,7.3,0,0,0,387.11,120.7Z" transform="translate(-21.59 -24.61)"/><path class="cls-1" d="M395.07,119.44a7.48,7.48,0,0,1,2.74-3.06,7.21,7.21,0,0,1,3.92-1.09,7,7,0,0,1,3.49.92,6.34,6.34,0,0,1,2.46,2.41v-9h2.7v23h-2.7v-3.21a6.53,6.53,0,0,1-2.34,2.51,6.72,6.72,0,0,1-3.64,1,7.1,7.1,0,0,1-3.89-1.12,7.68,7.68,0,0,1-2.74-3.15,10.17,10.17,0,0,1-1-4.6A10,10,0,0,1,395.07,119.44ZM407,120.7a5.41,5.41,0,0,0-2-2.19,5.15,5.15,0,0,0-2.74-.76,5.23,5.23,0,0,0-2.73.74,5.3,5.3,0,0,0-2,2.18,7.24,7.24,0,0,0-.73,3.36,7.45,7.45,0,0,0,.73,3.41,5.29,5.29,0,0,0,2,2.2,5.07,5.07,0,0,0,2.73.77,5.15,5.15,0,0,0,2.74-.77,5.31,5.31,0,0,0,2-2.2,7.38,7.38,0,0,0,.73-3.38A7.3,7.3,0,0,0,407,120.7Z" transform="translate(-21.59 -24.61)"/><path class="cls-1" d="M414.9,119.44a7.48,7.48,0,0,1,2.74-3.06,7.18,7.18,0,0,1,3.89-1.09,6.85,6.85,0,0,1,3.67,1,6.33,6.33,0,0,1,2.32,2.43v-3.11h2.7v17.05h-2.7v-3.18a6.58,6.58,0,0,1-2.36,2.48,6.81,6.81,0,0,1-3.66,1,7,7,0,0,1-3.87-1.12,7.65,7.65,0,0,1-2.73-3.15,10.3,10.3,0,0,1-1-4.6A10.14,10.14,0,0,1,414.9,119.44Zm11.88,1.26a5.41,5.41,0,0,0-2-2.19,5.12,5.12,0,0,0-2.74-.76,5.09,5.09,0,0,0-4.69,2.92,7.24,7.24,0,0,0-.74,3.36,7.45,7.45,0,0,0,.74,3.41,5.27,5.27,0,0,0,2,2.2,5.07,5.07,0,0,0,2.73.77,5.13,5.13,0,0,0,2.74-.77,5.31,5.31,0,0,0,2-2.2,7.38,7.38,0,0,0,.74-3.38A7.3,7.3,0,0,0,426.78,120.7Z" transform="translate(-21.59 -24.61)"/><path class="cls-1" d="M437.49,128.7l-3.28,8.36h-1.79l2.14-8.36Z" transform="translate(-21.59 -24.61)"/><path class="cls-1" d="M462.23,115.57l-9.69,25.07h-2.75l3.17-8.21-6.49-16.86h3l5.05,13.81,5-13.81Z" transform="translate(-21.59 -24.61)"/><path class="cls-1" d="M487.31,125.15H474.46a5.65,5.65,0,0,0,1.63,3.93,5,5,0,0,0,3.59,1.42,4.66,4.66,0,0,0,2.89-.86,4.45,4.45,0,0,0,1.63-2.28h2.88a7.37,7.37,0,0,1-2.58,4,7.54,7.54,0,0,1-4.82,1.54,7.82,7.82,0,0,1-4.09-1.09,7.53,7.53,0,0,1-2.83-3.1,10.14,10.14,0,0,1-1-4.65,10.25,10.25,0,0,1,1-4.63,7.32,7.32,0,0,1,2.8-3.07,8,8,0,0,1,4.15-1.07,7.65,7.65,0,0,1,4.05,1.06,7.07,7.07,0,0,1,2.72,2.91,9,9,0,0,1,.95,4.18Q487.4,124.25,487.31,125.15ZM484,120.06a4.54,4.54,0,0,0-1.84-1.77,5.47,5.47,0,0,0-2.56-.61,4.81,4.81,0,0,0-3.45,1.37,5.76,5.76,0,0,0-1.63,3.8h10.15A5.49,5.49,0,0,0,484,120.06Z" transform="translate(-21.59 -24.61)"/><path class="cls-1" d="M503.51,117.14a7.52,7.52,0,0,1,1.82,5.43v10.05h-2.64V123a5.69,5.69,0,0,0-1.2-3.9,4.2,4.2,0,0,0-3.29-1.35,4.25,4.25,0,0,0-3.36,1.4,5.93,5.93,0,0,0-1.25,4.07v9.43h-2.67V115.57h2.67V118a5.41,5.41,0,0,1,2.16-2,6.45,6.45,0,0,1,3-.71A6.33,6.33,0,0,1,503.51,117.14Z" transform="translate(-21.59 -24.61)"/><path class="cls-1" d="M522.61,125.13a24.17,24.17,0,0,0,3.57-4.26,8,8,0,0,0,1.45-4.37,5,5,0,0,0-.93-3.19,3.58,3.58,0,0,0-3-1.16,3.81,3.81,0,0,0-3.1,1.32,5.75,5.75,0,0,0-1.19,3.53h-2.58a7.72,7.72,0,0,1,2-5.38,6.55,6.55,0,0,1,11.42,4.76,9.78,9.78,0,0,1-1.45,5,21.77,21.77,0,0,1-3.3,4.29c-1.24,1.24-2.81,2.67-4.73,4.31h10.09v2.37H516.77v-2C519.26,128.23,521.2,126.49,522.61,125.13Z" transform="translate(-21.59 -24.61)"/><path class="cls-1" d="M533.32,127.61v-2.15l10.3-15.12h3.2v14.81h2.93v2.46h-2.93v5h-2.64v-5Zm11-14.31-7.89,11.85h7.89Z" transform="translate(-21.59 -24.61)"/><path class="cls-1" d="M572,116.08a5.74,5.74,0,0,1,2.31,2.48,8.84,8.84,0,0,1,.83,4v10.05h-2.64V123a5.69,5.69,0,0,0-1.2-3.9,4.18,4.18,0,0,0-3.29-1.35,4.25,4.25,0,0,0-3.36,1.4,5.93,5.93,0,0,0-1.24,4.07v9.43H560.7v-23h2.67V118a5.28,5.28,0,0,1,2.18-2,6.83,6.83,0,0,1,3.13-.71A6.57,6.57,0,0,1,572,116.08Z" transform="translate(-21.59 -24.61)"/><path class="cls-1" d="M582.39,131.81a7.55,7.55,0,0,1-2.87-3.1,9.9,9.9,0,0,1-1-4.65,9.61,9.61,0,0,1,1.07-4.62,7.55,7.55,0,0,1,2.92-3.08,8.52,8.52,0,0,1,8.27,0,7.65,7.65,0,0,1,2.92,3.07,10.46,10.46,0,0,1,0,9.28,7.88,7.88,0,0,1-3,3.1,8.2,8.2,0,0,1-4.16,1.09A8,8,0,0,1,582.39,131.81Zm6.8-2.12a5.22,5.22,0,0,0,2-2.15,7.16,7.16,0,0,0,.78-3.48,7.28,7.28,0,0,0-.76-3.48,5,5,0,0,0-2-2.13,5.46,5.46,0,0,0-5.35,0,5,5,0,0,0-1.95,2.13,7.52,7.52,0,0,0-.74,3.48,7.8,7.8,0,0,0,.72,3.52,5,5,0,0,0,1.93,2.13,5.21,5.21,0,0,0,2.64.7A5.41,5.41,0,0,0,589.19,129.69Z" transform="translate(-21.59 -24.61)"/><path class="cls-1" d="M602.93,116.07a5.93,5.93,0,0,1,3.19-.81v2.92h-.71q-4.49,0-4.49,5.17v9.27h-2.67V115.57h2.67v2.77A5.29,5.29,0,0,1,602.93,116.07Z" transform="translate(-21.59 -24.61)"/><path class="cls-1" d="M609.2,119.44a7.48,7.48,0,0,1,2.74-3.06,7.16,7.16,0,0,1,3.89-1.09,6.79,6.79,0,0,1,3.66,1,6.33,6.33,0,0,1,2.32,2.43v-3.11h2.7v17.05h-2.7v-3.18a6.5,6.5,0,0,1-2.36,2.48,6.78,6.78,0,0,1-3.65,1,7.06,7.06,0,0,1-3.88-1.12,7.71,7.71,0,0,1-2.72-3.15,10.17,10.17,0,0,1-1-4.6A10,10,0,0,1,609.2,119.44Zm11.88,1.26a5.41,5.41,0,0,0-2-2.19,5.15,5.15,0,0,0-2.75-.76,5.22,5.22,0,0,0-2.72.74,5.3,5.3,0,0,0-2,2.18,7.24,7.24,0,0,0-.73,3.36,7.45,7.45,0,0,0,.73,3.41,5.29,5.29,0,0,0,2,2.2,5.06,5.06,0,0,0,2.72.77,5.16,5.16,0,0,0,2.75-.77,5.31,5.31,0,0,0,2-2.2,7.38,7.38,0,0,0,.73-3.38A7.3,7.3,0,0,0,621.08,120.7Z" transform="translate(-21.59 -24.61)"/><path class="cls-1" d="M631.41,132.23a5.68,5.68,0,0,1-2.32-1.87,5.16,5.16,0,0,1-.94-2.75h2.76a2.89,2.89,0,0,0,1.13,2.08,4.11,4.11,0,0,0,2.65.81,3.7,3.7,0,0,0,2.41-.72A2.2,2.2,0,0,0,638,128a1.78,1.78,0,0,0-.94-1.66,12.68,12.68,0,0,0-2.9-1.08,20.14,20.14,0,0,1-2.92-1,5.19,5.19,0,0,1-1.94-1.52,4.14,4.14,0,0,1-.81-2.66,4.22,4.22,0,0,1,.74-2.4,5,5,0,0,1,2.08-1.72,7.07,7.07,0,0,1,3.08-.64,6.33,6.33,0,0,1,4.31,1.43,5.23,5.23,0,0,1,1.76,3.92h-2.67a3,3,0,0,0-1-2.15,4.25,4.25,0,0,0-4.77-.15,2.06,2.06,0,0,0-.85,1.71,1.89,1.89,0,0,0,.52,1.38,3.5,3.5,0,0,0,1.29.87,18.64,18.64,0,0,0,2.15.73,23.42,23.42,0,0,1,2.82,1,5,5,0,0,1,1.86,1.45,4,4,0,0,1,.81,2.52,4.5,4.5,0,0,1-.73,2.52,5,5,0,0,1-2.07,1.76,7.11,7.11,0,0,1-3.07.64A8,8,0,0,1,631.41,132.23Z" transform="translate(-21.59 -24.61)"/><path class="cls-1" d="M100.12,160.34a5.68,5.68,0,0,1-2.32-1.87,5.13,5.13,0,0,1-.94-2.75h2.76a2.89,2.89,0,0,0,1.13,2.08,4.11,4.11,0,0,0,2.65.81,3.76,3.76,0,0,0,2.41-.71,2.23,2.23,0,0,0,.88-1.81,1.79,1.79,0,0,0-.94-1.66,12.75,12.75,0,0,0-2.9-1.07,20,20,0,0,1-2.92-1A5.19,5.19,0,0,1,98,150.82a4.12,4.12,0,0,1-.81-2.66,4.17,4.17,0,0,1,.74-2.39A5,5,0,0,1,100,144a7.07,7.07,0,0,1,3.08-.64,6.33,6.33,0,0,1,4.31,1.43,5.24,5.24,0,0,1,1.76,3.92h-2.67a2.93,2.93,0,0,0-1-2.14,4.27,4.27,0,0,0-4.77-.16,2.09,2.09,0,0,0-.85,1.71,1.89,1.89,0,0,0,.52,1.38,3.65,3.65,0,0,0,1.29.88c.52.21,1.24.46,2.15.73a21.79,21.79,0,0,1,2.82,1,4.9,4.9,0,0,1,1.86,1.44,4,4,0,0,1,.81,2.52,4.46,4.46,0,0,1-.73,2.52,5,5,0,0,1-2.07,1.76,7.11,7.11,0,0,1-3.07.64A8,8,0,0,1,100.12,160.34Z" transform="translate(-21.59 -24.61)"/><path class="cls-1" d="M127.64,153.26H114.79a5.69,5.69,0,0,0,1.63,3.94,5,5,0,0,0,3.59,1.41,4.72,4.72,0,0,0,2.89-.85,4.54,4.54,0,0,0,1.63-2.29h2.87a7.37,7.37,0,0,1-2.58,4A7.51,7.51,0,0,1,120,161a7.73,7.73,0,0,1-4.09-1.09,7.47,7.47,0,0,1-2.83-3.1,10,10,0,0,1-1-4.65,10.15,10.15,0,0,1,1-4.63,7.25,7.25,0,0,1,2.8-3.07A8,8,0,0,1,120,143.4a7.65,7.65,0,0,1,4,1.06,7,7,0,0,1,2.71,2.91,8.94,8.94,0,0,1,1,4.18Q127.73,152.36,127.64,153.26Zm-3.35-5.08a4.54,4.54,0,0,0-1.83-1.78,5.5,5.5,0,0,0-2.57-.6,4.73,4.73,0,0,0-3.44,1.37,5.66,5.66,0,0,0-1.63,3.79H125A5.43,5.43,0,0,0,124.29,148.18Z" transform="translate(-21.59 -24.61)"/><path class="cls-1" d="M150.35,144.19a5.66,5.66,0,0,1,2.3,2.48,8.74,8.74,0,0,1,.84,4v10h-2.64v-9.65a5.69,5.69,0,0,0-1.2-3.9,4.2,4.2,0,0,0-3.29-1.35,4.25,4.25,0,0,0-3.36,1.4,5.93,5.93,0,0,0-1.25,4.07v9.43h-2.67v-23h2.67v8.4a5.34,5.34,0,0,1,2.19-2,7.06,7.06,0,0,1,6.41.1Z" transform="translate(-21.59 -24.61)"/><path class="cls-1" d="M157.86,147.55a7.62,7.62,0,0,1,2.74-3.06,7.18,7.18,0,0,1,3.89-1.09,6.77,6.77,0,0,1,3.67,1,6.24,6.24,0,0,1,2.32,2.42v-3.11h2.7v17h-2.7v-3.18a6.58,6.58,0,0,1-2.36,2.48,6.81,6.81,0,0,1-3.66,1,7,7,0,0,1-3.87-1.12,7.84,7.84,0,0,1-2.73-3.14,10.38,10.38,0,0,1-1-4.61A10.14,10.14,0,0,1,157.86,147.55Zm11.88,1.26a5.41,5.41,0,0,0-2-2.19,5.33,5.33,0,0,0-5.47,0,5.18,5.18,0,0,0-2,2.17,7.3,7.3,0,0,0-.74,3.36,7.45,7.45,0,0,0,.74,3.41,5.36,5.36,0,0,0,2,2.21,5.06,5.06,0,0,0,2.73.76,5.12,5.12,0,0,0,2.74-.76,5.4,5.4,0,0,0,2-2.21,7.38,7.38,0,0,0,.74-3.38A7.3,7.3,0,0,0,169.74,148.81Z" transform="translate(-21.59 -24.61)"/><path class="cls-1" d="M182.77,144.37a6.75,6.75,0,0,1,3.61-1,7.12,7.12,0,0,1,3.9,1.09,7.52,7.52,0,0,1,2.73,3.06,10,10,0,0,1,1,4.59,10.24,10.24,0,0,1-1,4.61,7.71,7.71,0,0,1-2.74,3.14,7.12,7.12,0,0,1-3.89,1.12,6.75,6.75,0,0,1-3.65-1,6.29,6.29,0,0,1-2.36-2.45v3.14H177.7v-23h2.67v9.14A6.41,6.41,0,0,1,182.77,144.37Zm7.78,4.41a5.19,5.19,0,0,0-4.73-2.92,5.07,5.07,0,0,0-2.71.76,5.52,5.52,0,0,0-2,2.21,7.15,7.15,0,0,0-.74,3.34,7.26,7.26,0,0,0,.74,3.38,5.52,5.52,0,0,0,2,2.21,5.07,5.07,0,0,0,2.71.76,5.18,5.18,0,0,0,2.75-.76,5.4,5.4,0,0,0,2-2.21,7.45,7.45,0,0,0,.73-3.41A7.3,7.3,0,0,0,190.55,148.78Z" transform="translate(-21.59 -24.61)"/><path class="cls-1" d="M197.62,140.35a2,2,0,0,1,0-2.73,1.68,1.68,0,0,1,1.29-.56,1.62,1.62,0,0,1,1.25.56,2.08,2.08,0,0,1,0,2.73,1.62,1.62,0,0,1-1.25.56A1.68,1.68,0,0,1,197.62,140.35Zm2.58,3.33v17h-2.67v-17Z" transform="translate(-21.59 -24.61)"/><path class="cls-1" d="M207.42,137.71v23h-2.67v-23Z" transform="translate(-21.59 -24.61)"/><path class="cls-1" d="M212.05,140.35a2,2,0,0,1,0-2.73,1.68,1.68,0,0,1,1.29-.56,1.61,1.61,0,0,1,1.25.56,2.08,2.08,0,0,1,0,2.73,1.61,1.61,0,0,1-1.25.56A1.68,1.68,0,0,1,212.05,140.35Zm2.58,3.33v17H212v-17Z" transform="translate(-21.59 -24.61)"/><path class="cls-1" d="M222.44,146v10.05a2.45,2.45,0,0,0,.5,1.76,2.37,2.37,0,0,0,1.73.51h2v2.4h-2.4a4.66,4.66,0,0,1-3.35-1.09,4.87,4.87,0,0,1-1.11-3.58V146h-2.08v-2.33h2.08v-4.29h2.67v4.29h4.19V146Z" transform="translate(-21.59 -24.61)"/><path class="cls-1" d="M229.86,147.55a7.62,7.62,0,0,1,2.74-3.06,7.18,7.18,0,0,1,3.89-1.09,6.77,6.77,0,0,1,3.67,1,6.24,6.24,0,0,1,2.32,2.42v-3.11h2.7v17h-2.7v-3.18a6.58,6.58,0,0,1-2.36,2.48,6.81,6.81,0,0,1-3.66,1,7,7,0,0,1-3.87-1.12,7.84,7.84,0,0,1-2.73-3.14,10.38,10.38,0,0,1-1-4.61A10.14,10.14,0,0,1,229.86,147.55Zm11.89,1.26a5.36,5.36,0,0,0-2-2.19,5.33,5.33,0,0,0-5.47,0,5.18,5.18,0,0,0-2,2.17,7.3,7.3,0,0,0-.74,3.36,7.45,7.45,0,0,0,.74,3.41,5.36,5.36,0,0,0,2,2.21,5.06,5.06,0,0,0,2.73.76,5.12,5.12,0,0,0,2.74-.76,5.36,5.36,0,0,0,2-2.21,7.51,7.51,0,0,0,.73-3.38A7.42,7.42,0,0,0,241.75,148.81Z" transform="translate(-21.59 -24.61)"/><path class="cls-1" d="M254.38,144.18a5.92,5.92,0,0,1,3.18-.81v2.92h-.7c-3,0-4.49,1.73-4.49,5.17v9.27H249.7v-17h2.67v2.77A5.35,5.35,0,0,1,254.38,144.18Z" transform="translate(-21.59 -24.61)"/><path class="cls-1" d="M260.64,147.55a7.55,7.55,0,0,1,2.74-3.06,7.18,7.18,0,0,1,3.89-1.09,6.77,6.77,0,0,1,3.67,1,6.24,6.24,0,0,1,2.32,2.42v-3.11H276v17h-2.7v-3.18A6.58,6.58,0,0,1,270.9,160a6.81,6.81,0,0,1-3.66,1,7,7,0,0,1-3.87-1.12,7.69,7.69,0,0,1-2.73-3.14,10.38,10.38,0,0,1-1-4.61A10.14,10.14,0,0,1,260.64,147.55Zm11.88,1.26a5.41,5.41,0,0,0-2-2.19,5.33,5.33,0,0,0-5.47,0,5.27,5.27,0,0,0-2,2.17,7.42,7.42,0,0,0-.73,3.36,7.58,7.58,0,0,0,.73,3.41,5.45,5.45,0,0,0,2,2.21,5.06,5.06,0,0,0,2.73.76,5.12,5.12,0,0,0,2.74-.76,5.4,5.4,0,0,0,2-2.21,7.38,7.38,0,0,0,.74-3.38A7.3,7.3,0,0,0,272.52,148.81Zm-1.35-9.95-6.25,3.55v-2.12l6.25-3.89Z" transform="translate(-21.59 -24.61)"/><path class="cls-1" d="M302.89,153.26H290a5.69,5.69,0,0,0,1.63,3.94,5,5,0,0,0,3.59,1.41,4.72,4.72,0,0,0,2.89-.85,4.54,4.54,0,0,0,1.63-2.29h2.88a7.33,7.33,0,0,1-2.59,4,7.51,7.51,0,0,1-4.81,1.54,7.73,7.73,0,0,1-4.09-1.09,7.53,7.53,0,0,1-2.83-3.1,10,10,0,0,1-1-4.65,10.15,10.15,0,0,1,1-4.63,7.25,7.25,0,0,1,2.8-3.07,8,8,0,0,1,4.15-1.07,7.65,7.65,0,0,1,4.05,1.06,7.07,7.07,0,0,1,2.72,2.91,9.06,9.06,0,0,1,1,4.18Q303,152.36,302.89,153.26Zm-3.34-5.08a4.56,4.56,0,0,0-1.84-1.78,5.49,5.49,0,0,0-2.56-.6,4.77,4.77,0,0,0-3.45,1.37,5.71,5.71,0,0,0-1.63,3.79h10.15A5.43,5.43,0,0,0,299.55,148.18Z" transform="translate(-21.59 -24.61)"/><path class="cls-1" d="M309.17,137.71v23H306.5v-23Z" transform="translate(-21.59 -24.61)"/><path class="cls-1" d="M326.63,144.37a6.73,6.73,0,0,1,3.61-1,7.17,7.17,0,0,1,3.9,1.09,7.67,7.67,0,0,1,2.73,3.06,10.14,10.14,0,0,1,1,4.59,10.37,10.37,0,0,1-1,4.61,7.73,7.73,0,0,1-2.75,3.14,7.09,7.09,0,0,1-3.88,1.12,6.81,6.81,0,0,1-3.66-1,6.43,6.43,0,0,1-2.36-2.45v3.14h-2.67v-23h2.67v9.14A6.51,6.51,0,0,1,326.63,144.37Zm7.77,4.41a5.19,5.19,0,0,0-4.72-2.92,5.13,5.13,0,0,0-2.72.76,5.49,5.49,0,0,0-2,2.21,7.15,7.15,0,0,0-.75,3.34,7.26,7.26,0,0,0,.75,3.38,5.49,5.49,0,0,0,2,2.21,5.28,5.28,0,0,0,5.46,0,5.4,5.4,0,0,0,2-2.21,7.45,7.45,0,0,0,.74-3.41A7.3,7.3,0,0,0,334.4,148.78Z" transform="translate(-21.59 -24.61)"/><path class="cls-1" d="M344.31,159.92a7.51,7.51,0,0,1-2.88-3.1,10,10,0,0,1-1-4.65,9.61,9.61,0,0,1,1.07-4.62,7.68,7.68,0,0,1,2.92-3.08,8.52,8.52,0,0,1,8.27,0,7.59,7.59,0,0,1,2.92,3.07,9.56,9.56,0,0,1,1.07,4.63,9.4,9.4,0,0,1-1.1,4.65,7.81,7.81,0,0,1-3,3.1A8.1,8.1,0,0,1,348.4,161,7.8,7.8,0,0,1,344.31,159.92Zm6.79-2.12a5.28,5.28,0,0,0,2-2.14,8.32,8.32,0,0,0,0-7,5.21,5.21,0,0,0-2-2.13,5.33,5.33,0,0,0-2.67-.7,5.27,5.27,0,0,0-2.69.7,5.06,5.06,0,0,0-1.95,2.13,7.52,7.52,0,0,0-.73,3.48,7.8,7.8,0,0,0,.72,3.52,4.94,4.94,0,0,0,1.92,2.13,5.11,5.11,0,0,0,2.64.7A5.35,5.35,0,0,0,351.1,157.8Z" transform="translate(-21.59 -24.61)"/><path class="cls-1" d="M363.42,146v10.05a2.5,2.5,0,0,0,.5,1.76,2.37,2.37,0,0,0,1.73.51h2v2.4h-2.41a4.61,4.61,0,0,1-3.34-1.09,4.83,4.83,0,0,1-1.12-3.58V146h-2.08v-2.33h2.08v-4.29h2.67v4.29h4.2V146Z" transform="translate(-21.59 -24.61)"/><path class="cls-1" d="M373.76,159.92a7.55,7.55,0,0,1-2.87-3.1,9.84,9.84,0,0,1-1-4.65,9.61,9.61,0,0,1,1.07-4.62,7.61,7.61,0,0,1,2.92-3.08,8.52,8.52,0,0,1,8.27,0,7.65,7.65,0,0,1,2.92,3.07,9.68,9.68,0,0,1,1.07,4.63,9.51,9.51,0,0,1-1.1,4.65,7.88,7.88,0,0,1-3,3.1,8.1,8.1,0,0,1-4.16,1.09A7.86,7.86,0,0,1,373.76,159.92Zm6.8-2.12a5.28,5.28,0,0,0,2-2.14,8.32,8.32,0,0,0,0-7,5.16,5.16,0,0,0-2-2.13,5.46,5.46,0,0,0-5.35,0,5.06,5.06,0,0,0-1.95,2.13,7.52,7.52,0,0,0-.73,3.48,7.81,7.81,0,0,0,.71,3.52,5,5,0,0,0,1.93,2.13,5.11,5.11,0,0,0,2.64.7A5.41,5.41,0,0,0,380.56,157.8Zm.29-19.16-6.25,3.55v-2.12l6.25-3.88Z" transform="translate(-21.59 -24.61)"/><path class="cls-1" d="M402.21,145.25a7.53,7.53,0,0,1,1.82,5.43v10h-2.64v-9.65a5.69,5.69,0,0,0-1.2-3.9,4.2,4.2,0,0,0-3.29-1.35,4.25,4.25,0,0,0-3.36,1.4,5.93,5.93,0,0,0-1.25,4.07v9.43h-2.67v-17h2.67v2.43a5.39,5.39,0,0,1,2.16-2,6.83,6.83,0,0,1,7.76,1.16Z" transform="translate(-21.59 -24.61)"/><path class="cls-1" d="M416.23,147.55a7.57,7.57,0,0,1,2.75-3.06,7.21,7.21,0,0,1,3.92-1.09,7,7,0,0,1,3.49.92,6.41,6.41,0,0,1,2.46,2.41v-9h2.7v23h-2.7v-3.21A6.49,6.49,0,0,1,426.5,160a6.68,6.68,0,0,1-3.63,1,7.1,7.1,0,0,1-3.89-1.12,7.73,7.73,0,0,1-2.75-3.14,10.37,10.37,0,0,1-1-4.61A10.14,10.14,0,0,1,416.23,147.55Zm11.89,1.26a5.41,5.41,0,0,0-2-2.19,5.22,5.22,0,0,0-7.44,2.16,7.3,7.3,0,0,0-.73,3.36,7.45,7.45,0,0,0,.73,3.41,5.38,5.38,0,0,0,2,2.21,5.05,5.05,0,0,0,2.72.76,5.15,5.15,0,0,0,2.75-.76,5.4,5.4,0,0,0,2-2.21,7.38,7.38,0,0,0,.73-3.38A7.3,7.3,0,0,0,428.12,148.81Z" transform="translate(-21.59 -24.61)"/><path class="cls-1" d="M450.65,153.26H437.8a5.69,5.69,0,0,0,1.63,3.94,5,5,0,0,0,3.59,1.41,4.72,4.72,0,0,0,2.89-.85,4.48,4.48,0,0,0,1.63-2.29h2.88a7.33,7.33,0,0,1-2.59,4A7.51,7.51,0,0,1,443,161a7.73,7.73,0,0,1-4.09-1.09,7.53,7.53,0,0,1-2.83-3.1,10,10,0,0,1-1-4.65,10.15,10.15,0,0,1,1-4.63,7.25,7.25,0,0,1,2.8-3.07A8,8,0,0,1,443,143.4a7.65,7.65,0,0,1,4.05,1.06,7.07,7.07,0,0,1,2.72,2.91,9.06,9.06,0,0,1,.95,4.18Q450.74,152.36,450.65,153.26Zm-3.34-5.08a4.5,4.5,0,0,0-1.84-1.78,5.49,5.49,0,0,0-2.56-.6,4.77,4.77,0,0,0-3.45,1.37,5.71,5.71,0,0,0-1.63,3.79H448A5.43,5.43,0,0,0,447.31,148.18Z" transform="translate(-21.59 -24.61)"/><path class="cls-1" d="M456.64,160.34a5.68,5.68,0,0,1-2.32-1.87,5.13,5.13,0,0,1-.94-2.75h2.76a2.89,2.89,0,0,0,1.13,2.08,4.11,4.11,0,0,0,2.65.81,3.76,3.76,0,0,0,2.41-.71,2.23,2.23,0,0,0,.88-1.81,1.79,1.79,0,0,0-.94-1.66,12.75,12.75,0,0,0-2.9-1.07,20,20,0,0,1-2.92-1,5.19,5.19,0,0,1-1.94-1.52,4.12,4.12,0,0,1-.81-2.66,4.17,4.17,0,0,1,.74-2.39,5,5,0,0,1,2.08-1.73,7.07,7.07,0,0,1,3.08-.64,6.33,6.33,0,0,1,4.31,1.43,5.24,5.24,0,0,1,1.76,3.92H463a2.93,2.93,0,0,0-1-2.14,4.27,4.27,0,0,0-4.77-.16,2.09,2.09,0,0,0-.85,1.71,1.89,1.89,0,0,0,.52,1.38,3.65,3.65,0,0,0,1.29.88c.52.21,1.23.46,2.15.73a21.79,21.79,0,0,1,2.82,1,4.9,4.9,0,0,1,1.86,1.44,4,4,0,0,1,.81,2.52,4.46,4.46,0,0,1-.73,2.52,5,5,0,0,1-2.07,1.76A7.11,7.11,0,0,1,460,161,8,8,0,0,1,456.64,160.34Z" transform="translate(-21.59 -24.61)"/><path class="cls-1" d="M469.58,147.55a7.47,7.47,0,0,1,2.77-3.06,8.36,8.36,0,0,1,8.95.44,7.22,7.22,0,0,1,2.54,4.23H481a4.37,4.37,0,0,0-1.6-2.46,4.73,4.73,0,0,0-2.95-.9,4.6,4.6,0,0,0-3.69,1.66,7.08,7.08,0,0,0-1.41,4.71,7.19,7.19,0,0,0,1.41,4.76,4.59,4.59,0,0,0,3.69,1.68,4.81,4.81,0,0,0,2.94-.87,4.41,4.41,0,0,0,1.61-2.49h2.88a7.78,7.78,0,0,1-11.49,4.67,7.41,7.41,0,0,1-2.77-3.08,10.24,10.24,0,0,1-1-4.67A10.08,10.08,0,0,1,469.58,147.55Z" transform="translate(-21.59 -24.61)"/><path class="cls-1" d="M487.39,147.55a7.55,7.55,0,0,1,2.74-3.06A7.16,7.16,0,0,1,494,143.4a6.77,6.77,0,0,1,3.67,1,6.29,6.29,0,0,1,2.31,2.42v-3.11h2.7v17H500v-3.18a6.43,6.43,0,0,1-2.36,2.48,6.78,6.78,0,0,1-3.65,1,7,7,0,0,1-3.87-1.12,7.69,7.69,0,0,1-2.73-3.14,10.24,10.24,0,0,1-1-4.61A10,10,0,0,1,487.39,147.55Zm11.88,1.26a5.41,5.41,0,0,0-2-2.19,5.33,5.33,0,0,0-5.47,0,5.27,5.27,0,0,0-2,2.17,7.3,7.3,0,0,0-.73,3.36,7.45,7.45,0,0,0,.73,3.41,5.45,5.45,0,0,0,2,2.21,5.06,5.06,0,0,0,2.73.76,5.15,5.15,0,0,0,2.74-.76,5.4,5.4,0,0,0,2-2.21,7.38,7.38,0,0,0,.73-3.38A7.3,7.3,0,0,0,499.27,148.81Z" transform="translate(-21.59 -24.61)"/><path class="cls-1" d="M511.9,144.18a5.92,5.92,0,0,1,3.18-.81v2.92h-.7c-3,0-4.49,1.73-4.49,5.17v9.27h-2.67v-17h2.67v2.77A5.35,5.35,0,0,1,511.9,144.18Z" transform="translate(-21.59 -24.61)"/><path class="cls-1" d="M528.45,144.37a6.2,6.2,0,0,1,2.33,2.42v-3.11h2.7V161.1a8.84,8.84,0,0,1-.94,4.15,6.83,6.83,0,0,1-2.68,2.85,7.94,7.94,0,0,1-4.07,1,8.54,8.54,0,0,1-5.28-1.59,6.24,6.24,0,0,1-2.49-4.32h2.64a4.42,4.42,0,0,0,1.82,2.5,5.71,5.71,0,0,0,3.31.95,4.77,4.77,0,0,0,3.6-1.46,5.73,5.73,0,0,0,1.39-4.11v-3.58a6.67,6.67,0,0,1-6,3.49,7.1,7.1,0,0,1-3.89-1.12,7.64,7.64,0,0,1-2.74-3.14,10.24,10.24,0,0,1-1-4.61,10,10,0,0,1,1-4.59,7.48,7.48,0,0,1,2.74-3.06,7.16,7.16,0,0,1,3.89-1.09A6.8,6.8,0,0,1,528.45,144.37Zm1.6,4.44a5.41,5.41,0,0,0-2-2.19,5.22,5.22,0,0,0-7.44,2.16,7.3,7.3,0,0,0-.73,3.36,7.45,7.45,0,0,0,.73,3.41,5.38,5.38,0,0,0,2,2.21,5.05,5.05,0,0,0,2.72.76,5.15,5.15,0,0,0,2.75-.76,5.4,5.4,0,0,0,2-2.21,7.38,7.38,0,0,0,.73-3.38A7.3,7.3,0,0,0,530.05,148.81Z" transform="translate(-21.59 -24.61)"/><path class="cls-1" d="M538,147.55a7.55,7.55,0,0,1,2.74-3.06,7.18,7.18,0,0,1,3.89-1.09,6.77,6.77,0,0,1,3.67,1,6.31,6.31,0,0,1,2.32,2.42v-3.11h2.7v17h-2.7v-3.18a6.53,6.53,0,0,1-2.37,2.48,6.75,6.75,0,0,1-3.65,1,7,7,0,0,1-3.87-1.12,7.69,7.69,0,0,1-2.73-3.14,10.24,10.24,0,0,1-1-4.61A10,10,0,0,1,538,147.55Zm11.88,1.26a5.41,5.41,0,0,0-2-2.19,5.33,5.33,0,0,0-5.47,0,5.27,5.27,0,0,0-2,2.17,7.42,7.42,0,0,0-.73,3.36,7.58,7.58,0,0,0,.73,3.41,5.45,5.45,0,0,0,2,2.21,5.06,5.06,0,0,0,2.73.76,5.12,5.12,0,0,0,2.74-.76,5.4,5.4,0,0,0,2-2.21,7.38,7.38,0,0,0,.74-3.38A7.3,7.3,0,0,0,549.88,148.81Z" transform="translate(-21.59 -24.61)"/><path class="cls-1" d="M562.51,144.18a6,6,0,0,1,3.19-.81v2.92H565c-3,0-4.49,1.73-4.49,5.17v9.27h-2.67v-17h2.67v2.77A5.35,5.35,0,0,1,562.51,144.18Z" transform="translate(-21.59 -24.61)"/><path class="cls-2" d="M472.87,354a12.07,12.07,0,0,1-12.12,12H231.24a12.07,12.07,0,0,1-12.12-12V219.36a12.07,12.07,0,0,1,12.12-12H460.75a12.07,12.07,0,0,1,12.12,12Z" transform="translate(-21.59 -24.61)"/><path class="cls-3" d="M256.17,284.75c6.7-.05,6.13,5.5,6.13,5.5s.05,6.53-9.64,7.21a28,28,0,0,1-7-.44s.57-12.2,10.51-12.27Zm146.34,29.06c-11.11-.17-10.57-13.24-10.57-14.78s0-14.22,10.91-14.22,10.57,14.38,10.57,14.38.47,14.78-10.91,14.62Zm43.1-18.31s-2.76-1-3.74-1.47-4.78-1.59-5-4.74,2.39-4.76,6.25-4.76c2.68,0,4.25.55,8.45,2.36a6.32,6.32,0,0,0,1.13.35h.3a1.56,1.56,0,0,0,1.45-1.06,2.32,2.32,0,0,0,.08-.58h0v-4.16a2.77,2.77,0,0,0-.11-.78c-.52-1.78-2.74-2.73-4.89-3.27a28.06,28.06,0,0,0-9.32-.68,21.35,21.35,0,0,0-7,1.78l-.24.11h0a12.2,12.2,0,0,0-1.81,21.33l1.25.78a103.53,103.53,0,0,0,9.5,4.22c3.91,1.63,3.94,3.48,4,4.89a4.29,4.29,0,0,1-2.75,4,6.57,6.57,0,0,1-.92.33,14.82,14.82,0,0,1-3.48.4,14.59,14.59,0,0,1-2.56-.16,18.45,18.45,0,0,1-7.59-3.14c-1.88-1.17-2.44.3-2.59,1.73a18.59,18.59,0,0,0,0,3.8,4.46,4.46,0,0,0,2.51,3.61c2.24,1.12,5.59,2.43,12.3,2.32,7.24-.12,15.78-3.66,16.3-12.94s-6.38-12.49-11.49-14.28Zm-22.05,3.81S424.22,276,403,276,381.8,296.55,381.8,299a32.84,32.84,0,0,0,1.69,11.61,9.13,9.13,0,0,1-7.22,3.46,5.12,5.12,0,0,1-5.51-5.45V268c0-.26,0-.51,0-.76v-2c0-6.2-3.09-5.95-9.8-5.95v49.49c0,.63.41,5.43-5.74,5.43s-6.11-5-6.11-5.43,0-26.61,0-26.69c-.21-5.53-3.25-5.45-9.57-5.44h-.41s0,26.82,0,29.13.09,8.37-8.34,8.37-8.44-5.48-8.44-8.25V284.58h4.77c5.48,0,5.27-2,5.27-8h-10V265.36c0-5.28-2.21-6-6.92-6.06H312.3v17.33l-18.81,0h0c-.78,0-1.62,0-2.53.1a21.42,21.42,0,0,0-7,1.78,1.75,1.75,0,0,1-.24.11h0a12.2,12.2,0,0,0-1.8,21.33l1.24.78c1.39.84,5.23,2.44,9.51,4.22,3.91,1.63,3.94,3.48,3.95,4.89a4.27,4.27,0,0,1-2.76,4,5.38,5.38,0,0,1-.91.33,14.9,14.9,0,0,1-3.48.4,14.54,14.54,0,0,1-2.56-.16,18.35,18.35,0,0,1-7.6-3.14c-1.88-1.17-2.43.3-2.59,1.73a19.4,19.4,0,0,0,0,3.79,4.46,4.46,0,0,0,2.5,3.62c2.25,1.11,5.59,2.43,12.31,2.32,7.24-.13,15.78-3.66,16.29-12.93s-6.38-12.5-11.49-14.29c0,0-2.75-1-3.73-1.47s-4.78-1.59-5-4.74,2.19-4.62,5.81-4.74H312.3v23.08a29.63,29.63,0,0,0,.34,5.06h0a1.72,1.72,0,0,0,0,.24c0,.06,0,.11,0,.16a2.27,2.27,0,0,0,.06.25.94.94,0,0,0,0,.16c0,.09.05.18.07.27a.57.57,0,0,1,0,.14l.09.28c0,.05,0,.1,0,.14l.11.3s0,.08,0,.12.08.21.13.32l0,.09c.05.12.1.23.16.35a.13.13,0,0,0,0,.07c.05.12.11.23.16.35a.11.11,0,0,1,0,.07l.19.36,0,.05c.07.13.14.25.22.37s0,0,0,.05l.24.37,0,0a4.28,4.28,0,0,0,.26.38l0,0c.09.13.19.25.29.38h0c.11.13.21.26.33.38h0c.11.13.23.25.35.37h0c2.19,2.21,5.75,3.86,11.53,3.86a17.26,17.26,0,0,0,13.14-5.51l0-.06s0,0,0,0l.12-.14v0h0l0,.09a7.71,7.71,0,0,0,3.34,3.73,15,15,0,0,0,8.2,2A14.67,14.67,0,0,0,363.43,318c1.91,2.56,5.39,4.65,11.67,4.65a16.1,16.1,0,0,0,12.33-5.22l.1-.1c3.05,3.22,7.69,5.59,14.82,5.68,22.14.26,21.21-23.72,21.21-23.72Zm-79.45-28.62a6.07,6.07,0,1,1,6.07-6.07,6.07,6.07,0,0,1-6.07,6.07Zm-71.5,40.87c-.3-1.41-1-2.81-2.75-1.46a18.27,18.27,0,0,1-7.19,3.88,21.54,21.54,0,0,1-4.64.3C247.81,314,246.71,305,246.71,305c25.92,4.3,25.37-14.4,25.37-14.4s.26-13.36-14.46-13.93c-21.94-.63-22.47,22.27-22.47,22.27s-1.36,23.28,21.94,24c0,0,7.47.09,13.11-3.21a13.42,13.42,0,0,0,1.27-.92,4.53,4.53,0,0,0,1.49-3.39A19,19,0,0,0,272.61,311.56Z" transform="translate(-21.59 -24.61)"/><path class="cls-4" d="M240.27,252.54h-4.79v-2.43h12.37v2.43h-4.79v13.21h-2.79Z" transform="translate(-21.59 -24.61)"/><path class="cls-4" d="M254.13,264.4h-.07a3.75,3.75,0,0,1-3.29,1.61c-1.7,0-4-.81-4-3.29,0-3.16,4-3.6,7.29-3.6v-.26c0-1.31-1.1-1.95-2.43-1.95a4.21,4.21,0,0,0-2.89,1.22l-1.37-1.61a6.65,6.65,0,0,1,4.48-1.68c3.8,0,4.73,2.34,4.73,4.46v6.45h-2.47Zm0-3.49h-.59c-1.68,0-4.05.2-4.05,1.77,0,1,.95,1.32,1.86,1.32a2.5,2.5,0,0,0,2.78-2.71Z" transform="translate(-21.59 -24.61)"/><path class="cls-4" d="M259.83,255.15h2.54v1.76h0a3.37,3.37,0,0,1,3.74-2v2.43a3.57,3.57,0,0,0-.82-.11,2.77,2.77,0,0,0-2.85,2.85v5.68h-2.65Z" transform="translate(-21.59 -24.61)"/><path class="cls-4" d="M270.7,255.15v11.24c0,2.54-.69,4.66-3.85,4.66a6.07,6.07,0,0,1-1.19-.13l.22-2.26a2.8,2.8,0,0,0,.73.09c1.26,0,1.44-1,1.44-2.25V255.15ZM269.35,250a1.59,1.59,0,1,1-1.68,1.59A1.63,1.63,0,0,1,269.35,250Z" transform="translate(-21.59 -24.61)"/><path class="cls-4" d="M284.15,261.29h-8.06a2.94,2.94,0,0,0,3,2.6,3.22,3.22,0,0,0,2.81-1.37l1.77,1.42a5.78,5.78,0,0,1-10.25-3.43,5.4,5.4,0,0,1,5.61-5.67c3,0,5.12,1.92,5.12,5.74C284.17,260.82,284.17,261,284.15,261.29Zm-2.63-1.9a2.35,2.35,0,0,0-2.49-2.56,2.83,2.83,0,0,0-2.94,2.56Z" transform="translate(-21.59 -24.61)"/><path class="cls-4" d="M285.35,257.27v-2.12h1.85v-3.07h2.61v3.07h2.65v2.12h-2.65v4.92c0,.95.22,1.64,1.39,1.64a2.88,2.88,0,0,0,1.13-.22l.09,2.07a5.47,5.47,0,0,1-1.77.29c-2.81,0-3.45-1.72-3.45-3.76v-4.94Z" transform="translate(-21.59 -24.61)"/><path class="cls-4" d="M301.1,264.4H301a3.75,3.75,0,0,1-3.29,1.61c-1.7,0-4-.81-4-3.29,0-3.16,4-3.6,7.29-3.6v-.26c0-1.31-1.1-1.95-2.43-1.95a4.21,4.21,0,0,0-2.89,1.22l-1.37-1.61a6.65,6.65,0,0,1,4.48-1.68c3.8,0,4.73,2.34,4.73,4.46v6.45H301.1Zm-.05-3.49h-.59c-1.68,0-4,.2-4,1.77,0,1,.95,1.32,1.86,1.32a2.5,2.5,0,0,0,2.78-2.71Z" transform="translate(-21.59 -24.61)"/></svg>