<?xml version="1.0" encoding="utf-8"?>
<!-- Generator: Adobe Illustrator 25.0.0, SVG Export Plug-In . SVG Version: 6.00 Build 0)  -->
<svg version="1.1" id="Capa_1" xmlns="http://www.w3.org/2000/svg" xmlns:xlink="http://www.w3.org/1999/xlink" x="0px" y="0px"
	 viewBox="0 0 921.69 595.96" style="enable-background:new 0 0 921.69 595.96;" xml:space="preserve">
<style type="text/css">
	.st0{fill:#A5A4A6;}
	.st1{fill:url(#XMLID_32_);}
	.st2{fill:#E3241D;}
	.st3{fill:#434141;}
</style>
<g>
	<g>
		<path class="st0" d="M40.94,50.54c-1.87,0.71-5.55,1.88-9.9,1.88c-4.88,0-8.9-1.32-12.05-4.51c-2.77-2.84-4.5-7.41-4.5-12.73
			c0.05-10.2,6.65-17.65,17.46-17.65c3.73,0,6.65,0.86,8.04,1.57l-1,3.6c-1.72-0.81-3.88-1.47-7.13-1.47
			c-7.85,0-12.96,5.17-12.96,13.75c0,8.67,4.93,13.8,12.44,13.8c2.73,0,4.59-0.41,5.55-0.91V37.65h-6.55V34.1h10.62V50.54z"/>
		<path class="st0" d="M47.16,35.17c0-2.89-0.05-5.38-0.19-7.66h3.68l0.14,4.82h0.19c1.05-3.3,3.59-5.38,6.41-5.38
			c0.48,0,0.81,0.05,1.2,0.15v4.21c-0.43-0.1-0.86-0.15-1.44-0.15c-2.97,0-5.07,2.38-5.64,5.73c-0.1,0.61-0.19,1.32-0.19,2.08v13.09
			h-4.16V35.17z"/>
		<path class="st0" d="M75.38,52.06l-0.33-3.09h-0.14c-1.29,1.93-3.78,3.65-7.08,3.65c-4.69,0-7.08-3.5-7.08-7.05
			c0-5.93,4.98-9.18,13.92-9.13v-0.51c0-2.03-0.53-5.68-5.26-5.68c-2.15,0-4.4,0.71-6.03,1.83l-0.96-2.94
			c1.91-1.32,4.69-2.18,7.61-2.18c7.08,0,8.8,5.12,8.8,10.04v9.18c0,2.13,0.1,4.21,0.38,5.88H75.38z M74.76,39.53
			c-4.59-0.1-9.81,0.76-9.81,5.53c0,2.89,1.82,4.26,3.97,4.26c3.01,0,4.93-2.03,5.6-4.11c0.14-0.46,0.24-0.96,0.24-1.42V39.53z"/>
		<path class="st0" d="M102.13,51.14c-1.1,0.61-3.54,1.42-6.65,1.42c-6.98,0-11.53-5.02-11.53-12.53c0-7.56,4.88-13.04,12.44-13.04
			c2.49,0,4.69,0.66,5.84,1.27l-0.96,3.45c-1-0.61-2.58-1.17-4.88-1.17c-5.31,0-8.18,4.16-8.18,9.28c0,5.68,3.44,9.18,8.04,9.18
			c2.39,0,3.97-0.66,5.17-1.22L102.13,51.14z"/>
		<path class="st0" d="M111.74,20.61c0.05,1.52-1,2.74-2.68,2.74c-1.48,0-2.54-1.22-2.54-2.74c0-1.57,1.1-2.79,2.63-2.79
			C110.74,17.82,111.74,19.04,111.74,20.61z M107.06,52.06V27.51h4.21v24.55H107.06z"/>
		<path class="st0" d="M131.07,52.06l-0.33-3.09h-0.14c-1.29,1.93-3.78,3.65-7.08,3.65c-4.69,0-7.08-3.5-7.08-7.05
			c0-5.93,4.98-9.18,13.92-9.13v-0.51c0-2.03-0.53-5.68-5.26-5.68c-2.15,0-4.4,0.71-6.03,1.83l-0.96-2.94
			c1.91-1.32,4.69-2.18,7.61-2.18c7.08,0,8.8,5.12,8.8,10.04v9.18c0,2.13,0.1,4.21,0.38,5.88H131.07z M130.45,39.53
			c-4.59-0.1-9.81,0.76-9.81,5.53c0,2.89,1.82,4.26,3.97,4.26c3.01,0,4.93-2.03,5.6-4.11c0.14-0.46,0.24-0.96,0.24-1.42V39.53z"/>
		<path class="st0" d="M140.74,47.49c1.24,0.86,3.44,1.77,5.55,1.77c3.06,0,4.5-1.62,4.5-3.65c0-2.13-1.2-3.3-4.31-4.51
			c-4.16-1.57-6.12-4.01-6.12-6.95c0-3.96,3.01-7.2,7.99-7.2c2.34,0,4.4,0.71,5.69,1.52l-1.05,3.25c-0.91-0.61-2.58-1.42-4.74-1.42
			c-2.49,0-3.87,1.52-3.87,3.35c0,2.03,1.39,2.94,4.4,4.16c4.02,1.62,6.08,3.75,6.08,7.4c0,4.31-3.16,7.35-8.66,7.35
			c-2.54,0-4.88-0.66-6.51-1.67L140.74,47.49z"/>
		<path class="st0" d="M170.4,35.52c0-3.14-0.1-5.68-0.19-8.01h3.78l0.19,4.21h0.1c1.72-2.99,4.45-4.77,8.23-4.77
			c5.6,0,9.81,5.02,9.81,12.48c0,8.83-5.07,13.19-10.52,13.19c-3.06,0-5.74-1.42-7.13-3.85h-0.1V62.1h-4.16V35.52z M174.56,42.06
			c0,0.66,0.1,1.27,0.19,1.83c0.77,3.09,3.3,5.22,6.31,5.22c4.45,0,7.03-3.86,7.03-9.49c0-4.92-2.44-9.13-6.89-9.13
			c-2.87,0-5.55,2.18-6.36,5.53c-0.14,0.56-0.29,1.22-0.29,1.83V42.06z"/>
		<path class="st0" d="M218.57,39.58c0,9.08-5.93,13.04-11.53,13.04c-6.27,0-11.1-4.87-11.1-12.63c0-8.22,5.07-13.04,11.48-13.04
			C214.07,26.95,218.57,32.07,218.57,39.58z M200.2,39.83c0,5.38,2.92,9.43,7.03,9.43c4.02,0,7.03-4.01,7.03-9.54
			c0-4.16-1.96-9.43-6.94-9.43C202.35,30.3,200.2,35.17,200.2,39.83z"/>
		<path class="st0" d="M223.88,35.17c0-2.89-0.05-5.38-0.19-7.66h3.68l0.14,4.82h0.19c1.05-3.3,3.59-5.38,6.41-5.38
			c0.48,0,0.81,0.05,1.2,0.15v4.21c-0.43-0.1-0.86-0.15-1.44-0.15c-2.97,0-5.07,2.38-5.64,5.73c-0.1,0.61-0.19,1.32-0.19,2.08v13.09
			h-4.16V35.17z"/>
		<path class="st0" d="M269.04,45.36c0,2.54,0.05,4.77,0.19,6.7h-3.73l-0.24-4.01h-0.1c-1.1,1.98-3.54,4.56-7.65,4.56
			c-3.64,0-7.99-2.13-7.99-10.75V27.51h4.21V41.1c0,4.67,1.34,7.81,5.17,7.81c2.82,0,4.78-2.08,5.55-4.06
			c0.24-0.66,0.38-1.47,0.38-2.28V27.51h4.21V45.36z"/>
		<path class="st0" d="M281.1,20.46v7.05h6.03v3.4h-6.03v13.24c0,3.04,0.81,4.77,3.16,4.77c1.1,0,1.91-0.15,2.44-0.3l0.19,3.35
			c-0.81,0.36-2.1,0.61-3.73,0.61c-1.96,0-3.54-0.66-4.54-1.88c-1.2-1.32-1.63-3.5-1.63-6.39V30.91h-3.59v-3.4h3.59v-5.88
			L281.1,20.46z"/>
		<path class="st0" d="M296.55,20.61c0.05,1.52-1,2.74-2.68,2.74c-1.48,0-2.54-1.22-2.54-2.74c0-1.57,1.1-2.79,2.63-2.79
			C295.55,17.82,296.55,19.04,296.55,20.61z M291.86,52.06V27.51h4.21v24.55H291.86z"/>
		<path class="st0" d="M303.06,16.05h4.21v36.01h-4.21V16.05z"/>
		<path class="st0" d="M319.03,20.61c0.05,1.52-1,2.74-2.68,2.74c-1.48,0-2.54-1.22-2.54-2.74c0-1.57,1.1-2.79,2.63-2.79
			C318.03,17.82,319.03,19.04,319.03,20.61z M314.35,52.06V27.51h4.21v24.55H314.35z"/>
		<path class="st0" d="M322.91,49.47l10.48-14.46c1-1.32,1.96-2.49,3.01-3.8v-0.1h-12.53v-3.6h17.65l-0.05,2.79l-10.33,14.25
			c-0.96,1.37-1.91,2.59-2.97,3.86v0.1h13.54v3.55h-18.8V49.47z"/>
		<path class="st0" d="M358.84,52.06l-0.33-3.09h-0.14c-1.29,1.93-3.78,3.65-7.08,3.65c-4.69,0-7.08-3.5-7.08-7.05
			c0-5.93,4.98-9.18,13.92-9.13v-0.51c0-2.03-0.53-5.68-5.26-5.68c-2.15,0-4.4,0.71-6.03,1.83l-0.96-2.94
			c1.91-1.32,4.69-2.18,7.61-2.18c7.08,0,8.8,5.12,8.8,10.04v9.18c0,2.13,0.1,4.21,0.38,5.88H358.84z M358.21,39.53
			c-4.59-0.1-9.81,0.76-9.81,5.53c0,2.89,1.82,4.26,3.97,4.26c3.01,0,4.93-2.03,5.6-4.11c0.14-0.46,0.24-0.96,0.24-1.42V39.53z"/>
		<path class="st0" d="M369.08,35.17c0-2.89-0.05-5.38-0.19-7.66h3.68l0.14,4.82h0.19c1.05-3.3,3.59-5.38,6.41-5.38
			c0.48,0,0.81,0.05,1.2,0.15v4.21c-0.43-0.1-0.86-0.15-1.43-0.15c-2.97,0-5.07,2.38-5.64,5.73c-0.1,0.61-0.19,1.32-0.19,2.08v13.09
			h-4.16V35.17z"/>
		<path class="st0" d="M397.21,40.59c0.1,6.04,3.73,8.52,7.94,8.52c3.01,0,4.83-0.56,6.41-1.27l0.72,3.2
			c-1.48,0.71-4.02,1.52-7.7,1.52c-7.13,0-11.38-4.97-11.38-12.38c0-7.41,4.11-13.24,10.86-13.24c7.56,0,9.57,7.05,9.57,11.56
			c0,0.91-0.09,1.62-0.14,2.08H397.21z M409.55,37.4c0.05-2.84-1.1-7.25-5.84-7.25c-4.26,0-6.12,4.16-6.46,7.25H409.55z"/>
		<path class="st0" d="M418.83,16.05h4.21v36.01h-4.21V16.05z"/>
		<path class="st0" d="M442.6,40.59c0.1,6.04,3.73,8.52,7.94,8.52c3.01,0,4.83-0.56,6.41-1.27l0.72,3.2
			c-1.48,0.71-4.02,1.52-7.7,1.52c-7.13,0-11.38-4.97-11.38-12.38c0-7.41,4.11-13.24,10.86-13.24c7.56,0,9.57,7.05,9.57,11.56
			c0,0.91-0.09,1.62-0.14,2.08H442.6z M454.95,37.4c0.05-2.84-1.1-7.25-5.84-7.25c-4.26,0-6.12,4.16-6.46,7.25H454.95z"/>
		<path class="st0" d="M484.22,16.05v29.67c0,2.18,0.05,4.67,0.19,6.34h-3.78l-0.19-4.26h-0.1c-1.29,2.74-4.11,4.82-7.89,4.82
			c-5.6,0-9.9-5.02-9.9-12.48c-0.05-8.17,4.74-13.19,10.38-13.19c3.54,0,5.93,1.78,6.98,3.75h0.1V16.05H484.22z M480.01,37.5
			c0-0.56-0.05-1.32-0.19-1.88c-0.62-2.84-2.92-5.17-6.08-5.17c-4.35,0-6.94,4.06-6.94,9.48c0,4.97,2.3,9.08,6.84,9.08
			c2.82,0,5.41-1.98,6.17-5.33c0.14-0.61,0.19-1.22,0.19-1.93V37.5z"/>
		<path class="st0" d="M495.9,20.61c0.05,1.52-1,2.74-2.68,2.74c-1.48,0-2.54-1.22-2.54-2.74c0-1.57,1.1-2.79,2.63-2.79
			C494.89,17.82,495.9,19.04,495.9,20.61z M491.21,52.06V27.51h4.21v24.55H491.21z"/>
		<path class="st0" d="M507.47,20.46v7.05h6.03v3.4h-6.03v13.24c0,3.04,0.81,4.77,3.16,4.77c1.1,0,1.91-0.15,2.44-0.3l0.19,3.35
			c-0.81,0.36-2.11,0.61-3.73,0.61c-1.96,0-3.54-0.66-4.54-1.88c-1.2-1.32-1.63-3.5-1.63-6.39V30.91h-3.59v-3.4h3.59v-5.88
			L507.47,20.46z"/>
		<path class="st0" d="M538.91,39.58c0,9.08-5.93,13.04-11.53,13.04c-6.27,0-11.1-4.87-11.1-12.63c0-8.22,5.07-13.04,11.48-13.04
			C534.41,26.95,538.91,32.07,538.91,39.58z M520.54,39.83c0,5.38,2.92,9.43,7.03,9.43c4.02,0,7.03-4.01,7.03-9.54
			c0-4.16-1.96-9.43-6.94-9.43C522.69,30.3,520.54,35.17,520.54,39.83z"/>
		<path class="st0" d="M544.22,35.17c0-2.89-0.05-5.38-0.19-7.66h3.68l0.14,4.82h0.19c1.05-3.3,3.59-5.38,6.41-5.38
			c0.48,0,0.81,0.05,1.2,0.15v4.21c-0.43-0.1-0.86-0.15-1.44-0.15c-2.97,0-5.07,2.38-5.64,5.73c-0.1,0.61-0.19,1.32-0.19,2.08v13.09
			h-4.16V35.17z"/>
		<path class="st0" d="M600.14,16.05v29.67c0,2.18,0.05,4.67,0.19,6.34h-3.78l-0.19-4.26h-0.1c-1.29,2.74-4.11,4.82-7.89,4.82
			c-5.6,0-9.9-5.02-9.9-12.48c-0.05-8.17,4.74-13.19,10.38-13.19c3.54,0,5.93,1.78,6.98,3.75h0.1V16.05H600.14z M595.93,37.5
			c0-0.56-0.05-1.32-0.19-1.88c-0.62-2.84-2.92-5.17-6.08-5.17c-4.35,0-6.94,4.06-6.94,9.48c0,4.97,2.3,9.08,6.84,9.08
			c2.82,0,5.41-1.98,6.17-5.33c0.14-0.61,0.19-1.22,0.19-1.93V37.5z"/>
		<path class="st0" d="M609.47,40.59c0.1,6.04,3.73,8.52,7.94,8.52c3.01,0,4.83-0.56,6.41-1.27l0.72,3.2
			c-1.48,0.71-4.02,1.52-7.7,1.52c-7.13,0-11.38-4.97-11.38-12.38c0-7.41,4.11-13.24,10.86-13.24c7.56,0,9.57,7.05,9.57,11.56
			c0,0.91-0.09,1.62-0.14,2.08H609.47z M621.81,37.4c0.05-2.84-1.1-7.25-5.84-7.25c-4.26,0-6.12,4.16-6.46,7.25H621.81z"/>
		<path class="st0" d="M641.24,35.52c0-3.14-0.1-5.68-0.19-8.01h3.78l0.19,4.21h0.1c1.72-2.99,4.45-4.77,8.23-4.77
			c5.6,0,9.81,5.02,9.81,12.48c0,8.83-5.07,13.19-10.52,13.19c-3.06,0-5.74-1.42-7.13-3.85h-0.1V62.1h-4.16V35.52z M645.4,42.06
			c0,0.66,0.1,1.27,0.19,1.83c0.77,3.09,3.3,5.22,6.31,5.22c4.45,0,7.03-3.86,7.03-9.49c0-4.92-2.44-9.13-6.89-9.13
			c-2.87,0-5.55,2.18-6.36,5.53c-0.14,0.56-0.29,1.22-0.29,1.83V42.06z"/>
		<path class="st0" d="M689.41,39.58c0,9.08-5.93,13.04-11.53,13.04c-6.27,0-11.1-4.87-11.1-12.63c0-8.22,5.07-13.04,11.48-13.04
			C684.91,26.95,689.41,32.07,689.41,39.58z M671.04,39.83c0,5.38,2.92,9.43,7.03,9.43c4.02,0,7.03-4.01,7.03-9.54
			c0-4.16-1.96-9.43-6.94-9.43C673.19,30.3,671.04,35.17,671.04,39.83z"/>
		<path class="st0" d="M694.15,47.49c1.24,0.86,3.44,1.77,5.55,1.77c3.06,0,4.5-1.62,4.5-3.65c0-2.13-1.2-3.3-4.31-4.51
			c-4.16-1.57-6.12-4.01-6.12-6.95c0-3.96,3.01-7.2,7.99-7.2c2.34,0,4.4,0.71,5.69,1.52l-1.05,3.25c-0.91-0.61-2.58-1.42-4.74-1.42
			c-2.49,0-3.87,1.52-3.87,3.35c0,2.03,1.39,2.94,4.4,4.16c4.02,1.62,6.08,3.75,6.08,7.4c0,4.31-3.16,7.35-8.66,7.35
			c-2.54,0-4.88-0.66-6.51-1.67L694.15,47.49z"/>
		<path class="st0" d="M718.74,20.46v7.05h6.03v3.4h-6.03v13.24c0,3.04,0.81,4.77,3.16,4.77c1.1,0,1.91-0.15,2.44-0.3l0.19,3.35
			c-0.81,0.36-2.11,0.61-3.73,0.61c-1.96,0-3.54-0.66-4.54-1.88c-1.2-1.32-1.63-3.5-1.63-6.39V30.91h-3.59v-3.4h3.59v-5.88
			L718.74,20.46z"/>
		<path class="st0" d="M759.64,16.05v29.67c0,2.18,0.05,4.67,0.19,6.34h-3.78l-0.19-4.26h-0.1c-1.29,2.74-4.11,4.82-7.89,4.82
			c-5.6,0-9.9-5.02-9.9-12.48c-0.05-8.17,4.74-13.19,10.38-13.19c3.54,0,5.93,1.78,6.98,3.75h0.1V16.05H759.64z M755.43,37.5
			c0-0.56-0.05-1.32-0.19-1.88c-0.62-2.84-2.92-5.17-6.08-5.17c-4.35,0-6.94,4.06-6.94,9.48c0,4.97,2.3,9.08,6.84,9.08
			c2.82,0,5.41-1.98,6.17-5.33c0.14-0.61,0.19-1.22,0.19-1.93V37.5z"/>
		<path class="st0" d="M768.97,40.59c0.1,6.04,3.73,8.52,7.94,8.52c3.01,0,4.83-0.56,6.41-1.27l0.72,3.2
			c-1.48,0.71-4.02,1.52-7.7,1.52c-7.13,0-11.38-4.97-11.38-12.38c0-7.41,4.11-13.24,10.86-13.24c7.56,0,9.57,7.05,9.57,11.56
			c0,0.91-0.09,1.62-0.14,2.08H768.97z M781.31,37.4c0.05-2.84-1.1-7.25-5.84-7.25c-4.26,0-6.12,4.16-6.46,7.25H781.31z"/>
		<path class="st0" d="M800.73,16.05h4.21v36.01h-4.21V16.05z"/>
		<path class="st0" d="M824.84,52.06l-0.33-3.09h-0.14c-1.29,1.93-3.78,3.65-7.08,3.65c-4.69,0-7.08-3.5-7.08-7.05
			c0-5.93,4.98-9.18,13.92-9.13v-0.51c0-2.03-0.53-5.68-5.26-5.68c-2.15,0-4.4,0.71-6.03,1.83l-0.96-2.94
			c1.91-1.32,4.69-2.18,7.61-2.18c7.08,0,8.8,5.12,8.8,10.04v9.18c0,2.13,0.1,4.21,0.38,5.88H824.84z M824.22,39.53
			c-4.59-0.1-9.81,0.76-9.81,5.53c0,2.89,1.82,4.26,3.97,4.26c3.01,0,4.93-2.03,5.6-4.11c0.14-0.46,0.24-0.96,0.24-1.42V39.53z"/>
		<path class="st0" d="M849.53,21.62h-9.81v-3.75h23.87v3.75h-9.85v30.43h-4.21V21.62z"/>
		<path class="st0" d="M876.8,52.06l-0.33-3.09h-0.14c-1.29,1.93-3.78,3.65-7.08,3.65c-4.69,0-7.08-3.5-7.08-7.05
			c0-5.93,4.98-9.18,13.92-9.13v-0.51c0-2.03-0.53-5.68-5.26-5.68c-2.15,0-4.4,0.71-6.03,1.83l-0.96-2.94
			c1.91-1.32,4.69-2.18,7.61-2.18c7.08,0,8.8,5.12,8.8,10.04v9.18c0,2.13,0.1,4.21,0.38,5.88H876.8z M876.18,39.53
			c-4.59-0.1-9.81,0.76-9.81,5.53c0,2.89,1.82,4.26,3.97,4.26c3.01,0,4.93-2.03,5.6-4.11c0.14-0.46,0.24-0.96,0.24-1.42V39.53z"/>
		<path class="st0" d="M887.04,35.17c0-2.89-0.05-5.38-0.19-7.66h3.68l0.14,4.82h0.19c1.05-3.3,3.59-5.38,6.41-5.38
			c0.48,0,0.81,0.05,1.2,0.15v4.21c-0.43-0.1-0.86-0.15-1.43-0.15c-2.97,0-5.07,2.38-5.64,5.73c-0.1,0.61-0.19,1.32-0.19,2.08v13.09
			h-4.16V35.17z"/>
		<path class="st0" d="M912.44,36.69v3.3h-11.82v-3.3H912.44z"/>
		<path class="st0" d="M355.85,104.99c1.91-0.15,3.59-0.71,4.59-1.88c1.15-1.42,1.58-3.35,1.58-9.23V73.35h4.21v22.27
			c0,4.77-0.72,7.86-2.77,10.09c-1.87,1.98-4.93,2.79-7.18,2.79L355.85,104.99z M366.71,66.45c0.05,1.47-0.96,2.74-2.63,2.74
			c-1.58,0-2.58-1.27-2.58-2.74c0-1.57,1.1-2.79,2.68-2.79C365.7,63.66,366.71,64.88,366.71,66.45z"/>
		<path class="st0" d="M375.46,86.43c0.1,6.04,3.73,8.52,7.94,8.52c3.01,0,4.83-0.56,6.41-1.27l0.72,3.2
			c-1.48,0.71-4.02,1.52-7.7,1.52c-7.13,0-11.38-4.97-11.38-12.38s4.11-13.24,10.86-13.24c7.56,0,9.57,7.05,9.57,11.56
			c0,0.91-0.09,1.62-0.14,2.08H375.46z M387.8,83.24c0.05-2.84-1.1-7.25-5.84-7.25c-4.26,0-6.12,4.16-6.46,7.25H387.8z"/>
		<path class="st0" d="M402.16,66.3v7.05h6.03v3.4h-6.03v13.24c0,3.04,0.81,4.77,3.16,4.77c1.1,0,1.91-0.15,2.44-0.3l0.19,3.35
			c-0.81,0.36-2.1,0.61-3.73,0.61c-1.96,0-3.54-0.66-4.54-1.88c-1.2-1.32-1.63-3.5-1.63-6.39V76.74h-3.59v-3.4h3.59v-5.88
			L402.16,66.3z"/>
		<path class="st0" d="M425.74,97.89l-0.33-3.09h-0.14c-1.29,1.93-3.78,3.65-7.08,3.65c-4.69,0-7.08-3.5-7.08-7.05
			c0-5.93,4.98-9.18,13.92-9.13v-0.51c0-2.03-0.53-5.68-5.26-5.68c-2.15,0-4.4,0.71-6.03,1.83l-0.96-2.94
			c1.91-1.32,4.69-2.18,7.61-2.18c7.08,0,8.8,5.12,8.8,10.04v9.18c0,2.13,0.1,4.21,0.38,5.88H425.74z M425.12,85.37
			c-4.59-0.1-9.81,0.76-9.81,5.53c0,2.89,1.82,4.26,3.97,4.26c3.01,0,4.93-2.03,5.6-4.11c0.14-0.46,0.24-0.96,0.24-1.42V85.37z"/>
		<path class="st0" d="M462.96,81.87h-12.53v12.33h13.97v3.7h-18.13V63.71h17.41v3.7h-13.25v10.8h12.53V81.87z"/>
		<path class="st0" d="M469.08,93.33c1.24,0.86,3.44,1.77,5.55,1.77c3.06,0,4.5-1.62,4.5-3.65c0-2.13-1.2-3.3-4.31-4.51
			c-4.16-1.57-6.12-4.01-6.12-6.95c0-3.96,3.01-7.2,7.99-7.2c2.34,0,4.4,0.71,5.69,1.52l-1.05,3.25c-0.91-0.61-2.58-1.42-4.74-1.42
			c-2.49,0-3.88,1.52-3.88,3.35c0,2.03,1.39,2.94,4.4,4.16c4.02,1.62,6.08,3.75,6.08,7.4c0,4.31-3.16,7.35-8.66,7.35
			c-2.54,0-4.88-0.66-6.51-1.67L469.08,93.33z"/>
		<path class="st0" d="M493.67,66.3v7.05h6.03v3.4h-6.03v13.24c0,3.04,0.81,4.77,3.16,4.77c1.1,0,1.91-0.15,2.44-0.3l0.19,3.35
			c-0.81,0.36-2.1,0.61-3.73,0.61c-1.96,0-3.54-0.66-4.54-1.88c-1.2-1.32-1.63-3.5-1.63-6.39V76.74h-3.59v-3.4h3.59v-5.88
			L493.67,66.3z"/>
		<path class="st0" d="M509.13,66.45c0.05,1.52-1,2.74-2.68,2.74c-1.48,0-2.54-1.22-2.54-2.74c0-1.57,1.1-2.79,2.63-2.79
			C508.12,63.66,509.13,64.88,509.13,66.45z M504.44,97.89V73.35h4.21v24.55H504.44z"/>
		<path class="st0" d="M515.63,61.88h4.21v36.01h-4.21V61.88z"/>
		<path class="st0" d="M547.88,85.42c0,9.08-5.93,13.04-11.53,13.04c-6.27,0-11.1-4.87-11.1-12.63c0-8.22,5.07-13.04,11.48-13.04
			C543.38,72.79,547.88,77.91,547.88,85.42z M529.51,85.67c0,5.38,2.92,9.43,7.03,9.43c4.02,0,7.03-4.01,7.03-9.54
			c0-4.16-1.96-9.43-6.94-9.43C531.66,76.14,529.51,81,529.51,85.67z"/>
		<path class="st0" d="M552.61,93.33c1.24,0.86,3.44,1.77,5.55,1.77c3.06,0,4.5-1.62,4.5-3.65c0-2.13-1.2-3.3-4.31-4.51
			c-4.16-1.57-6.12-4.01-6.12-6.95c0-3.96,3.01-7.2,7.99-7.2c2.34,0,4.4,0.71,5.69,1.52l-1.05,3.25c-0.91-0.61-2.58-1.42-4.74-1.42
			c-2.49,0-3.87,1.52-3.87,3.35c0,2.03,1.39,2.94,4.4,4.16c4.02,1.62,6.08,3.75,6.08,7.4c0,4.31-3.16,7.35-8.66,7.35
			c-2.54,0-4.88-0.66-6.51-1.67L552.61,93.33z"/>
		<path class="st0" d="M24.74,184.19c1.87,1.22,4.59,2.23,7.46,2.23c4.26,0,6.75-2.38,6.75-5.83c0-3.2-1.72-5.02-6.08-6.8
			c-5.26-1.98-8.52-4.87-8.52-9.69c0-5.33,4.16-9.28,10.43-9.28c3.3,0,5.69,0.81,7.13,1.67l-1.15,3.6
			c-1.05-0.61-3.21-1.62-6.12-1.62c-4.4,0-6.08,2.79-6.08,5.12c0,3.2,1.96,4.77,6.41,6.59c5.45,2.23,8.23,5.02,8.23,10.04
			c0,5.27-3.68,9.84-11.29,9.84c-3.11,0-6.51-0.96-8.23-2.18L24.74,184.19z"/>
		<path class="st0" d="M68.13,182.87c0,2.54,0.05,4.77,0.19,6.7h-3.73l-0.24-4.01h-0.1c-1.1,1.98-3.54,4.56-7.65,4.56
			c-3.64,0-7.99-2.13-7.99-10.75v-14.35h4.21v13.59c0,4.67,1.34,7.81,5.17,7.81c2.82,0,4.78-2.08,5.55-4.06
			c0.24-0.66,0.38-1.47,0.38-2.28v-15.06h4.21V182.87z"/>
		<path class="st0" d="M85.26,173.03c0-3.14-0.1-5.68-0.19-8.01h3.78l0.19,4.21h0.1c1.72-2.99,4.45-4.77,8.23-4.77
			c5.6,0,9.81,5.02,9.81,12.48c0,8.83-5.07,13.19-10.52,13.19c-3.06,0-5.74-1.42-7.13-3.85h-0.1v13.34h-4.16V173.03z M89.42,179.58
			c0,0.66,0.1,1.27,0.19,1.83c0.77,3.09,3.3,5.22,6.31,5.22c4.45,0,7.03-3.86,7.03-9.49c0-4.92-2.44-9.13-6.89-9.13
			c-2.87,0-5.55,2.18-6.36,5.53c-0.14,0.56-0.29,1.22-0.29,1.83V179.58z"/>
		<path class="st0" d="M112.48,172.68c0-2.89-0.05-5.38-0.19-7.66h3.68l0.14,4.82h0.19c1.05-3.3,3.59-5.38,6.41-5.38
			c0.48,0,0.81,0.05,1.2,0.15v4.21c-0.43-0.1-0.86-0.15-1.44-0.15c-2.97,0-5.07,2.38-5.64,5.73c-0.1,0.61-0.19,1.32-0.19,2.08v13.09
			h-4.16V172.68z"/>
		<path class="st0" d="M148.6,177.09c0,9.08-5.93,13.04-11.53,13.04c-6.27,0-11.1-4.87-11.1-12.63c0-8.22,5.07-13.04,11.48-13.04
			C144.1,164.46,148.6,169.58,148.6,177.09z M130.23,177.34c0,5.38,2.92,9.43,7.03,9.43c4.02,0,7.03-4.01,7.03-9.54
			c0-4.16-1.96-9.43-6.94-9.43C132.38,167.81,130.23,172.68,130.23,177.34z"/>
		<path class="st0" d="M153.91,171.66c0-2.54-0.05-4.62-0.19-6.64h3.68l0.19,3.96h0.14c1.29-2.33,3.44-4.51,7.27-4.51
			c3.16,0,5.55,2.03,6.55,4.92h0.1c0.72-1.37,1.63-2.43,2.58-3.2c1.39-1.12,2.92-1.72,5.12-1.72c3.06,0,7.61,2.13,7.61,10.65v14.46
			h-4.11v-13.9c0-4.72-1.63-7.56-5.02-7.56c-2.39,0-4.26,1.88-4.98,4.06c-0.19,0.61-0.33,1.42-0.33,2.23v15.17h-4.11v-14.71
			c0-3.91-1.63-6.75-4.83-6.75c-2.63,0-4.54,2.23-5.21,4.46c-0.24,0.66-0.33,1.42-0.33,2.18v14.81h-4.11V171.66z"/>
		<path class="st0" d="M214.77,177.09c0,9.08-5.93,13.04-11.53,13.04c-6.27,0-11.1-4.87-11.1-12.63c0-8.22,5.07-13.04,11.48-13.04
			C210.27,164.46,214.77,169.58,214.77,177.09z M196.4,177.34c0,5.38,2.92,9.43,7.03,9.43c4.02,0,7.03-4.01,7.03-9.54
			c0-4.16-1.96-9.43-6.94-9.43C198.55,167.81,196.4,172.68,196.4,177.34z"/>
		<path class="st0" d="M236.58,188.65c-1.1,0.61-3.54,1.42-6.65,1.42c-6.98,0-11.53-5.02-11.53-12.53c0-7.56,4.88-13.04,12.44-13.04
			c2.49,0,4.69,0.66,5.84,1.27l-0.96,3.45c-1-0.61-2.58-1.17-4.88-1.17c-5.31,0-8.18,4.16-8.18,9.28c0,5.68,3.44,9.18,8.04,9.18
			c2.39,0,3.97-0.66,5.17-1.22L236.58,188.65z"/>
		<path class="st0" d="M246.2,158.12c0.05,1.52-1,2.74-2.68,2.74c-1.48,0-2.54-1.22-2.54-2.74c0-1.57,1.1-2.79,2.63-2.79
			C245.19,155.33,246.2,156.55,246.2,158.12z M241.51,189.57v-24.55h4.21v24.55H241.51z"/>
		<path class="st0" d="M273.66,177.09c0,9.08-5.93,13.04-11.53,13.04c-6.27,0-11.1-4.87-11.1-12.63c0-8.22,5.07-13.04,11.48-13.04
			C269.16,164.46,273.66,169.58,273.66,177.09z M255.29,177.34c0,5.38,2.92,9.43,7.03,9.43c4.02,0,7.03-4.01,7.03-9.54
			c0-4.16-1.96-9.43-6.94-9.43C257.44,167.81,255.29,172.68,255.29,177.34z M268.63,154.42l-5.84,7.25h-3.01l4.21-7.25H268.63z"/>
		<path class="st0" d="M278.97,171.66c0-2.54-0.05-4.62-0.19-6.64h3.73l0.24,4.06h0.1c1.15-2.33,3.83-4.62,7.65-4.62
			c3.21,0,8.18,2.03,8.18,10.45v14.66h-4.21v-14.15c0-3.96-1.39-7.25-5.36-7.25c-2.77,0-4.93,2.08-5.64,4.57
			c-0.19,0.56-0.29,1.32-0.29,2.08v14.76h-4.21V171.66z"/>
		<path class="st0" d="M315.09,185c1.24,0.86,3.44,1.77,5.55,1.77c3.06,0,4.5-1.62,4.5-3.65c0-2.13-1.2-3.3-4.31-4.51
			c-4.16-1.57-6.12-4.01-6.12-6.95c0-3.96,3.01-7.2,7.99-7.2c2.34,0,4.4,0.71,5.69,1.52l-1.05,3.25c-0.91-0.61-2.58-1.42-4.74-1.42
			c-2.49,0-3.87,1.52-3.87,3.35c0,2.03,1.39,2.94,4.4,4.16c4.02,1.62,6.08,3.75,6.08,7.4c0,4.31-3.16,7.35-8.66,7.35
			c-2.54,0-4.88-0.66-6.51-1.67L315.09,185z"/>
		<path class="st0" d="M336.95,178.1c0.1,6.04,3.73,8.52,7.94,8.52c3.01,0,4.83-0.56,6.41-1.27l0.72,3.2
			c-1.48,0.71-4.02,1.52-7.7,1.52c-7.13,0-11.38-4.97-11.38-12.38s4.11-13.24,10.86-13.24c7.56,0,9.57,7.05,9.57,11.56
			c0,0.91-0.1,1.62-0.14,2.08H336.95z M349.29,174.91c0.05-2.84-1.1-7.25-5.84-7.25c-4.26,0-6.12,4.16-6.46,7.25H349.29z"/>
		<path class="st0" d="M358.57,172.68c0-2.89-0.05-5.38-0.19-7.66h3.68l0.14,4.82h0.19c1.05-3.3,3.59-5.38,6.41-5.38
			c0.48,0,0.81,0.05,1.2,0.15v4.21c-0.43-0.1-0.86-0.15-1.44-0.15c-2.97,0-5.07,2.38-5.64,5.73c-0.1,0.61-0.19,1.32-0.19,2.08v13.09
			h-4.16V172.68z"/>
		<path class="st0" d="M386.8,189.57l-0.33-3.09h-0.14c-1.29,1.93-3.78,3.65-7.08,3.65c-4.69,0-7.08-3.5-7.08-7.05
			c0-5.93,4.97-9.18,13.92-9.13v-0.51c0-2.03-0.53-5.68-5.26-5.68c-2.15,0-4.4,0.71-6.03,1.83l-0.96-2.94
			c1.91-1.32,4.69-2.18,7.61-2.18c7.08,0,8.8,5.12,8.8,10.04v9.18c0,2.13,0.1,4.21,0.38,5.88H386.8z M386.18,177.04
			c-4.59-0.1-9.81,0.76-9.81,5.53c0,2.89,1.82,4.26,3.97,4.26c3.01,0,4.93-2.03,5.6-4.11c0.14-0.46,0.24-0.96,0.24-1.42V177.04z
			 M388.28,154.42l-5.84,7.25h-3.01l4.21-7.25H388.28z"/>
		<path class="st0" d="M407.18,172.68c0-2.89-0.05-5.38-0.19-7.66h3.68l0.14,4.82h0.19c1.05-3.3,3.59-5.38,6.41-5.38
			c0.48,0,0.81,0.05,1.2,0.15v4.21c-0.43-0.1-0.86-0.15-1.44-0.15c-2.97,0-5.07,2.38-5.64,5.73c-0.1,0.61-0.19,1.32-0.19,2.08v13.09
			h-4.16V172.68z"/>
		<path class="st0" d="M424.69,178.1c0.1,6.04,3.73,8.52,7.94,8.52c3.01,0,4.83-0.56,6.41-1.27l0.72,3.2
			c-1.48,0.71-4.02,1.52-7.7,1.52c-7.13,0-11.38-4.97-11.38-12.38s4.11-13.24,10.86-13.24c7.56,0,9.57,7.05,9.57,11.56
			c0,0.91-0.09,1.62-0.14,2.08H424.69z M437.03,174.91c0.05-2.84-1.1-7.25-5.84-7.25c-4.26,0-6.12,4.16-6.46,7.25H437.03z"/>
		<path class="st0" d="M447.94,165.02l4.54,13.8c0.76,2.23,1.39,4.26,1.87,6.29h0.14c0.53-2.03,1.2-4.06,1.96-6.29l4.5-13.8h4.4
			l-9.09,24.55h-4.02l-8.8-24.55H447.94z"/>
		<path class="st0" d="M474.01,158.12c0.05,1.52-1,2.74-2.68,2.74c-1.48,0-2.54-1.22-2.54-2.74c0-1.57,1.1-2.79,2.63-2.79
			C473.01,155.33,474.01,156.55,474.01,158.12z M469.33,189.57v-24.55h4.21v24.55H469.33z"/>
		<path class="st0" d="M479.95,185c1.24,0.86,3.44,1.77,5.55,1.77c3.06,0,4.5-1.62,4.5-3.65c0-2.13-1.2-3.3-4.31-4.51
			c-4.16-1.57-6.12-4.01-6.12-6.95c0-3.96,3.01-7.2,7.99-7.2c2.34,0,4.4,0.71,5.69,1.52l-1.05,3.25c-0.91-0.61-2.58-1.42-4.74-1.42
			c-2.49,0-3.87,1.52-3.87,3.35c0,2.03,1.39,2.94,4.4,4.16c4.02,1.62,6.08,3.75,6.08,7.4c0,4.31-3.16,7.35-8.66,7.35
			c-2.54,0-4.88-0.66-6.51-1.67L479.95,185z"/>
		<path class="st0" d="M512.28,189.57l-0.33-3.09h-0.14c-1.29,1.93-3.78,3.65-7.08,3.65c-4.69,0-7.08-3.5-7.08-7.05
			c0-5.93,4.97-9.18,13.92-9.13v-0.51c0-2.03-0.53-5.68-5.26-5.68c-2.15,0-4.4,0.71-6.03,1.83l-0.96-2.94
			c1.91-1.32,4.69-2.18,7.61-2.18c7.08,0,8.8,5.12,8.8,10.04v9.18c0,2.13,0.1,4.21,0.38,5.88H512.28z M511.66,177.04
			c-4.59-0.1-9.81,0.76-9.81,5.53c0,2.89,1.82,4.26,3.97,4.26c3.01,0,4.93-2.03,5.6-4.11c0.14-0.46,0.24-0.96,0.24-1.42V177.04z"/>
		<path class="st0" d="M542.52,153.56v29.67c0,2.18,0.05,4.67,0.19,6.34h-3.78l-0.19-4.26h-0.1c-1.29,2.74-4.11,4.82-7.89,4.82
			c-5.6,0-9.9-5.02-9.9-12.48c-0.05-8.17,4.74-13.19,10.38-13.19c3.54,0,5.93,1.78,6.98,3.75h0.1v-14.66H542.52z M538.31,175.01
			c0-0.56-0.05-1.32-0.19-1.88c-0.62-2.84-2.92-5.17-6.08-5.17c-4.35,0-6.94,4.06-6.94,9.48c0,4.97,2.3,9.08,6.84,9.08
			c2.82,0,5.41-1.98,6.17-5.33c0.14-0.61,0.19-1.22,0.19-1.93V175.01z"/>
		<path class="st0" d="M562.33,189.57l-0.33-3.09h-0.14c-1.29,1.93-3.78,3.65-7.08,3.65c-4.69,0-7.08-3.5-7.08-7.05
			c0-5.93,4.97-9.18,13.92-9.13v-0.51c0-2.03-0.53-5.68-5.26-5.68c-2.15,0-4.4,0.71-6.03,1.83l-0.96-2.94
			c1.91-1.32,4.69-2.18,7.61-2.18c7.08,0,8.8,5.12,8.8,10.04v9.18c0,2.13,0.1,4.21,0.38,5.88H562.33z M561.7,177.04
			c-4.59-0.1-9.81,0.76-9.81,5.53c0,2.89,1.82,4.26,3.97,4.26c3.01,0,4.93-2.03,5.6-4.11c0.14-0.46,0.24-0.96,0.24-1.42V177.04z"/>
		<path class="st0" d="M569.84,195.81c1.05-2.99,2.34-8.42,2.87-12.12l4.69-0.51c-1.1,4.31-3.21,9.94-4.54,12.33L569.84,195.81z"/>
		<path class="st0" d="M594.14,165.02l5.07,14.51c0.53,1.62,1.1,3.55,1.48,5.02h0.1c0.43-1.47,0.91-3.35,1.48-5.12l4.59-14.4h4.45
			l-6.31,17.5c-3.01,8.42-5.07,12.73-7.94,15.37c-2.06,1.93-4.11,2.69-5.17,2.89l-1.05-3.75c1.05-0.36,2.44-1.07,3.68-2.18
			c1.15-0.96,2.58-2.69,3.54-4.97c0.19-0.46,0.33-0.81,0.33-1.07s-0.1-0.61-0.29-1.17l-8.56-22.62H594.14z"/>
		<path class="st0" d="M627.63,178.1c0.1,6.04,3.73,8.52,7.94,8.52c3.01,0,4.83-0.56,6.41-1.27l0.72,3.2
			c-1.48,0.71-4.02,1.52-7.7,1.52c-7.13,0-11.38-4.97-11.38-12.38s4.11-13.24,10.86-13.24c7.56,0,9.57,7.05,9.57,11.56
			c0,0.91-0.1,1.62-0.14,2.08H627.63z M639.97,174.91c0.05-2.84-1.1-7.25-5.84-7.25c-4.26,0-6.12,4.16-6.46,7.25H639.97z"/>
		<path class="st0" d="M649.25,171.66c0-2.54-0.05-4.62-0.19-6.64h3.73l0.24,4.06h0.1c1.15-2.33,3.83-4.62,7.65-4.62
			c3.21,0,8.18,2.03,8.18,10.45v14.66h-4.21v-14.15c0-3.96-1.39-7.25-5.36-7.25c-2.77,0-4.93,2.08-5.64,4.57
			c-0.19,0.56-0.29,1.32-0.29,2.08v14.76h-4.21V171.66z"/>
		<path class="st0" d="M684.6,189.57v-2.74l3.3-3.4c7.94-8.01,11.53-12.27,11.58-17.25c0-3.35-1.53-6.44-6.17-6.44
			c-2.82,0-5.17,1.52-6.6,2.79l-1.34-3.14c2.15-1.93,5.21-3.35,8.8-3.35c6.7,0,9.52,4.87,9.52,9.59c0,6.09-4.16,11.01-10.72,17.7
			l-2.49,2.43v0.1h13.97v3.7H684.6z"/>
		<path class="st0" d="M722.16,189.57v-8.98h-14.45v-2.94l13.87-21.05h4.54v20.49h4.35v3.5h-4.35v8.98H722.16z M722.16,177.09
			v-11.01c0-1.72,0.05-3.45,0.14-5.17h-0.14c-0.96,1.93-1.72,3.35-2.58,4.87l-7.61,11.21v0.1H722.16z"/>
		<path class="st0" d="M745.17,153.56h4.21v15.32h0.1c0.67-1.27,1.72-2.38,3.01-3.15c1.24-0.76,2.73-1.27,4.31-1.27
			c3.11,0,8.08,2.03,8.08,10.5v14.61h-4.21v-14.1c0-3.96-1.39-7.3-5.36-7.3c-2.73,0-4.88,2.03-5.64,4.46
			c-0.24,0.61-0.29,1.27-0.29,2.13v14.81h-4.21V153.56z"/>
		<path class="st0" d="M792.67,177.09c0,9.08-5.93,13.04-11.53,13.04c-6.27,0-11.1-4.87-11.1-12.63c0-8.22,5.07-13.04,11.48-13.04
			C788.17,164.46,792.67,169.58,792.67,177.09z M774.3,177.34c0,5.38,2.92,9.43,7.03,9.43c4.02,0,7.03-4.01,7.03-9.54
			c0-4.16-1.96-9.43-6.94-9.43S774.3,172.68,774.3,177.34z"/>
		<path class="st0" d="M797.98,172.68c0-2.89-0.05-5.38-0.19-7.66h3.68l0.14,4.82h0.19c1.05-3.3,3.59-5.38,6.41-5.38
			c0.48,0,0.81,0.05,1.2,0.15v4.21c-0.43-0.1-0.86-0.15-1.43-0.15c-2.97,0-5.07,2.38-5.64,5.73c-0.1,0.61-0.19,1.32-0.19,2.08v13.09
			h-4.16V172.68z"/>
		<path class="st0" d="M826.21,189.57l-0.33-3.09h-0.14c-1.29,1.93-3.78,3.65-7.08,3.65c-4.69,0-7.08-3.5-7.08-7.05
			c0-5.93,4.97-9.18,13.92-9.13v-0.51c0-2.03-0.53-5.68-5.26-5.68c-2.15,0-4.4,0.71-6.03,1.83l-0.96-2.94
			c1.91-1.32,4.69-2.18,7.61-2.18c7.08,0,8.8,5.12,8.8,10.04v9.18c0,2.13,0.1,4.21,0.38,5.88H826.21z M825.59,177.04
			c-4.59-0.1-9.81,0.76-9.81,5.53c0,2.89,1.82,4.26,3.97,4.26c3.01,0,4.93-2.03,5.6-4.11c0.14-0.46,0.24-0.96,0.24-1.42V177.04z"/>
		<path class="st0" d="M835.87,185c1.24,0.86,3.44,1.77,5.55,1.77c3.06,0,4.5-1.62,4.5-3.65c0-2.13-1.2-3.3-4.31-4.51
			c-4.16-1.57-6.12-4.01-6.12-6.95c0-3.96,3.01-7.2,7.99-7.2c2.34,0,4.4,0.71,5.69,1.52l-1.05,3.25c-0.91-0.61-2.58-1.42-4.74-1.42
			c-2.49,0-3.87,1.52-3.87,3.35c0,2.03,1.39,2.94,4.4,4.16c4.02,1.62,6.08,3.75,6.08,7.4c0,4.31-3.16,7.35-8.66,7.35
			c-2.54,0-4.88-0.66-6.51-1.67L835.87,185z"/>
		<path class="st0" d="M864.96,185c1.24,0.86,3.44,1.77,5.55,1.77c3.06,0,4.5-1.62,4.5-3.65c0-2.13-1.2-3.3-4.31-4.51
			c-4.16-1.57-6.12-4.01-6.12-6.95c0-3.96,3.01-7.2,7.99-7.2c2.34,0,4.4,0.71,5.69,1.52l-1.05,3.25c-0.91-0.61-2.58-1.42-4.74-1.42
			c-2.49,0-3.88,1.52-3.88,3.35c0,2.03,1.39,2.94,4.4,4.16c4.02,1.62,6.08,3.75,6.08,7.4c0,4.31-3.16,7.35-8.66,7.35
			c-2.54,0-4.88-0.66-6.51-1.67L864.96,185z"/>
		<path class="st0" d="M886.82,178.1c0.1,6.04,3.73,8.52,7.94,8.52c3.01,0,4.83-0.56,6.41-1.27l0.72,3.2
			c-1.48,0.71-4.02,1.52-7.7,1.52c-7.13,0-11.38-4.97-11.38-12.38s4.11-13.24,10.86-13.24c7.56,0,9.57,7.05,9.57,11.56
			c0,0.91-0.09,1.62-0.14,2.08H886.82z M899.17,174.91c0.05-2.84-1.1-7.25-5.84-7.25c-4.26,0-6.12,4.16-6.46,7.25H899.17z"/>
		<path class="st0" d="M181.57,199.39h4.21v15.32h0.1c0.67-1.27,1.72-2.38,3.01-3.15c1.24-0.76,2.73-1.27,4.31-1.27
			c3.11,0,8.08,2.03,8.08,10.5v14.61h-4.21v-14.1c0-3.96-1.39-7.3-5.36-7.3c-2.73,0-4.88,2.03-5.64,4.46
			c-0.24,0.61-0.29,1.27-0.29,2.13v14.81h-4.21V199.39z"/>
		<path class="st0" d="M220.94,235.4l-0.33-3.09h-0.14c-1.29,1.93-3.78,3.65-7.08,3.65c-4.69,0-7.08-3.5-7.08-7.05
			c0-5.93,4.98-9.18,13.92-9.13v-0.51c0-2.03-0.53-5.68-5.26-5.68c-2.15,0-4.4,0.71-6.03,1.83l-0.96-2.94
			c1.91-1.32,4.69-2.18,7.61-2.18c7.08,0,8.8,5.12,8.8,10.04v9.18c0,2.13,0.1,4.21,0.38,5.88H220.94z M220.31,222.88
			c-4.59-0.1-9.81,0.76-9.81,5.53c0,2.89,1.82,4.26,3.97,4.26c3.01,0,4.93-2.03,5.6-4.11c0.14-0.46,0.24-0.96,0.24-1.42V222.88z"/>
		<path class="st0" d="M230.98,235.4c0.1-1.67,0.19-4.16,0.19-6.34v-29.67h4.16v15.42h0.1c1.48-2.74,4.16-4.51,7.89-4.51
			c5.74,0,9.81,5.07,9.76,12.53c0,8.77-5.21,13.14-10.38,13.14c-3.35,0-6.03-1.37-7.75-4.62h-0.14l-0.19,4.06H230.98z
			 M235.34,225.56c0,0.56,0.1,1.12,0.19,1.62c0.81,3.09,3.25,5.22,6.31,5.22c4.4,0,7.03-3.8,7.03-9.43c0-4.92-2.39-9.13-6.89-9.13
			c-2.87,0-5.55,2.08-6.41,5.48c-0.1,0.51-0.24,1.12-0.24,1.83V225.56z"/>
		<path class="st0" d="M263.08,203.96c0.05,1.52-1,2.74-2.68,2.74c-1.48,0-2.54-1.22-2.54-2.74c0-1.57,1.1-2.79,2.63-2.79
			C262.08,201.17,263.08,202.39,263.08,203.96z M258.4,235.4v-24.55h4.21v24.55H258.4z"/>
		<path class="st0" d="M269.59,199.39h4.21v36.01h-4.21V199.39z"/>
		<path class="st0" d="M285.57,203.96c0.05,1.52-1,2.74-2.68,2.74c-1.48,0-2.54-1.22-2.54-2.74c0-1.57,1.1-2.79,2.63-2.79
			C284.56,201.17,285.57,202.39,285.57,203.96z M280.88,235.4v-24.55h4.21v24.55H280.88z"/>
		<path class="st0" d="M297.15,203.8v7.05h6.03v3.4h-6.03v13.24c0,3.04,0.81,4.77,3.16,4.77c1.1,0,1.91-0.15,2.44-0.3l0.19,3.35
			c-0.81,0.36-2.1,0.61-3.73,0.61c-1.96,0-3.54-0.66-4.54-1.88c-1.2-1.32-1.63-3.5-1.63-6.39v-13.39h-3.59v-3.4h3.59v-5.88
			L297.15,203.8z"/>
		<path class="st0" d="M320.73,235.4l-0.33-3.09h-0.14c-1.29,1.93-3.78,3.65-7.08,3.65c-4.69,0-7.08-3.5-7.08-7.05
			c0-5.93,4.98-9.18,13.92-9.13v-0.51c0-2.03-0.53-5.68-5.26-5.68c-2.15,0-4.4,0.71-6.03,1.83l-0.96-2.94
			c1.91-1.32,4.69-2.18,7.61-2.18c7.08,0,8.8,5.12,8.8,10.04v9.18c0,2.13,0.1,4.21,0.38,5.88H320.73z M320.11,222.88
			c-4.59-0.1-9.81,0.76-9.81,5.53c0,2.89,1.82,4.26,3.97,4.26c3.01,0,4.93-2.03,5.6-4.11c0.14-0.46,0.24-0.96,0.24-1.42V222.88z"/>
		<path class="st0" d="M330.97,218.51c0-2.89-0.05-5.38-0.19-7.66h3.68l0.14,4.82h0.19c1.05-3.3,3.59-5.38,6.41-5.38
			c0.48,0,0.81,0.05,1.2,0.15v4.21c-0.43-0.1-0.86-0.15-1.44-0.15c-2.97,0-5.07,2.38-5.64,5.73c-0.1,0.61-0.19,1.32-0.19,2.08v13.09
			h-4.16V218.51z"/>
		<path class="st0" d="M359.19,235.4l-0.33-3.09h-0.14c-1.29,1.93-3.78,3.65-7.08,3.65c-4.69,0-7.08-3.5-7.08-7.05
			c0-5.93,4.98-9.18,13.92-9.13v-0.51c0-2.03-0.53-5.68-5.26-5.68c-2.15,0-4.4,0.71-6.03,1.83l-0.96-2.94
			c1.91-1.32,4.69-2.18,7.61-2.18c7.08,0,8.8,5.12,8.8,10.04v9.18c0,2.13,0.1,4.21,0.38,5.88H359.19z M358.57,222.88
			c-4.59-0.1-9.81,0.76-9.81,5.53c0,2.89,1.82,4.26,3.97,4.26c3.01,0,4.93-2.03,5.6-4.11c0.14-0.46,0.24-0.96,0.24-1.42V222.88z
			 M360.68,200.25l-5.84,7.25h-3.01l4.21-7.25H360.68z"/>
		<path class="st0" d="M381.92,223.94c0.1,6.04,3.73,8.52,7.94,8.52c3.01,0,4.83-0.56,6.41-1.27l0.72,3.2
			c-1.48,0.71-4.02,1.52-7.7,1.52c-7.13,0-11.38-4.97-11.38-12.38s4.11-13.24,10.86-13.24c7.56,0,9.57,7.05,9.57,11.56
			c0,0.91-0.1,1.62-0.14,2.08H381.92z M394.26,220.75c0.05-2.84-1.1-7.25-5.84-7.25c-4.26,0-6.12,4.16-6.46,7.25H394.26z"/>
		<path class="st0" d="M403.54,199.39h4.21v36.01h-4.21V199.39z"/>
		<path class="st0" d="M424.78,235.4c0.1-1.67,0.19-4.16,0.19-6.34v-29.67h4.16v15.42h0.1c1.48-2.74,4.16-4.51,7.89-4.51
			c5.74,0,9.81,5.07,9.76,12.53c0,8.77-5.21,13.14-10.38,13.14c-3.35,0-6.03-1.37-7.75-4.62h-0.14l-0.19,4.06H424.78z
			 M429.14,225.56c0,0.56,0.1,1.12,0.19,1.62c0.81,3.09,3.25,5.22,6.31,5.22c4.4,0,7.03-3.8,7.03-9.43c0-4.92-2.39-9.13-6.89-9.13
			c-2.87,0-5.55,2.08-6.41,5.48c-0.1,0.51-0.24,1.12-0.24,1.83V225.56z"/>
		<path class="st0" d="M473.15,222.93c0,9.08-5.93,13.04-11.53,13.04c-6.27,0-11.1-4.87-11.1-12.63c0-8.22,5.07-13.04,11.48-13.04
			C468.65,210.3,473.15,215.42,473.15,222.93z M454.78,223.18c0,5.38,2.92,9.43,7.03,9.43c4.02,0,7.03-4.01,7.03-9.54
			c0-4.16-1.96-9.43-6.94-9.43S454.78,218.51,454.78,223.18z"/>
		<path class="st0" d="M483.53,203.8v7.05h6.03v3.4h-6.03v13.24c0,3.04,0.81,4.77,3.16,4.77c1.1,0,1.91-0.15,2.44-0.3l0.19,3.35
			c-0.81,0.36-2.11,0.61-3.73,0.61c-1.96,0-3.54-0.66-4.54-1.88c-1.2-1.32-1.63-3.5-1.63-6.39v-13.39h-3.59v-3.4h3.59v-5.88
			L483.53,203.8z"/>
		<path class="st0" d="M514.96,222.93c0,9.08-5.93,13.04-11.53,13.04c-6.27,0-11.1-4.87-11.1-12.63c0-8.22,5.07-13.04,11.48-13.04
			C510.46,210.3,514.96,215.42,514.96,222.93z M496.59,223.18c0,5.38,2.92,9.43,7.03,9.43c4.02,0,7.03-4.01,7.03-9.54
			c0-4.16-1.96-9.43-6.94-9.43C498.74,213.64,496.59,218.51,496.59,223.18z M509.94,200.25l-5.84,7.25h-3.01l4.21-7.25H509.94z"/>
		<path class="st0" d="M520.27,217.5c0-2.54-0.05-4.62-0.19-6.64h3.73l0.24,4.06h0.1c1.15-2.33,3.83-4.62,7.65-4.62
			c3.21,0,8.18,2.03,8.18,10.45v14.66h-4.21v-14.15c0-3.96-1.39-7.25-5.36-7.25c-2.77,0-4.93,2.08-5.64,4.57
			c-0.19,0.56-0.29,1.32-0.29,2.08v14.76h-4.21V217.5z"/>
		<path class="st0" d="M576.96,199.39v29.67c0,2.18,0.05,4.67,0.19,6.34h-3.78l-0.19-4.26h-0.1c-1.29,2.74-4.11,4.82-7.89,4.82
			c-5.6,0-9.9-5.02-9.9-12.48c-0.05-8.17,4.74-13.19,10.38-13.19c3.54,0,5.93,1.78,6.98,3.75h0.1v-14.66H576.96z M572.75,220.85
			c0-0.56-0.05-1.32-0.19-1.88c-0.62-2.84-2.92-5.17-6.08-5.17c-4.35,0-6.94,4.06-6.94,9.48c0,4.97,2.3,9.08,6.84,9.08
			c2.82,0,5.41-1.98,6.17-5.33c0.14-0.61,0.19-1.22,0.19-1.93V220.85z"/>
		<path class="st0" d="M586.29,223.94c0.1,6.04,3.73,8.52,7.94,8.52c3.01,0,4.83-0.56,6.41-1.27l0.72,3.2
			c-1.48,0.71-4.02,1.52-7.7,1.52c-7.13,0-11.38-4.97-11.38-12.38s4.11-13.24,10.86-13.24c7.56,0,9.57,7.05,9.57,11.56
			c0,0.91-0.09,1.62-0.14,2.08H586.29z M598.63,220.75c0.05-2.84-1.1-7.25-5.84-7.25c-4.26,0-6.12,4.16-6.46,7.25H598.63z"/>
		<path class="st0" d="M607.34,230.84c1.24,0.86,3.44,1.77,5.55,1.77c3.06,0,4.5-1.62,4.5-3.65c0-2.13-1.2-3.3-4.31-4.51
			c-4.16-1.57-6.12-4.01-6.12-6.95c0-3.96,3.01-7.2,7.99-7.2c2.34,0,4.4,0.71,5.69,1.52l-1.05,3.25c-0.91-0.61-2.58-1.42-4.74-1.42
			c-2.49,0-3.87,1.52-3.87,3.35c0,2.03,1.39,2.94,4.4,4.16c4.02,1.62,6.08,3.75,6.08,7.4c0,4.31-3.16,7.35-8.66,7.35
			c-2.54,0-4.88-0.66-6.51-1.67L607.34,230.84z"/>
		<path class="st0" d="M643.36,234.49c-1.1,0.61-3.54,1.42-6.65,1.42c-6.98,0-11.53-5.02-11.53-12.53c0-7.56,4.88-13.04,12.44-13.04
			c2.49,0,4.69,0.66,5.84,1.27l-0.96,3.45c-1-0.61-2.58-1.17-4.88-1.17c-5.31,0-8.18,4.16-8.18,9.28c0,5.68,3.44,9.18,8.04,9.18
			c2.39,0,3.97-0.66,5.17-1.22L643.36,234.49z"/>
		<path class="st0" d="M661.11,235.4l-0.33-3.09h-0.14c-1.29,1.93-3.78,3.65-7.08,3.65c-4.69,0-7.08-3.5-7.08-7.05
			c0-5.93,4.97-9.18,13.92-9.13v-0.51c0-2.03-0.53-5.68-5.26-5.68c-2.15,0-4.4,0.71-6.03,1.83l-0.96-2.94
			c1.91-1.32,4.69-2.18,7.61-2.18c7.08,0,8.8,5.12,8.8,10.04v9.18c0,2.13,0.1,4.21,0.38,5.88H661.11z M660.49,222.88
			c-4.59-0.1-9.81,0.76-9.81,5.53c0,2.89,1.82,4.26,3.97,4.26c3.01,0,4.93-2.03,5.6-4.11c0.14-0.46,0.24-0.96,0.24-1.42V222.88z"/>
		<path class="st0" d="M671.35,218.51c0-2.89-0.05-5.38-0.19-7.66h3.68l0.14,4.82h0.19c1.05-3.3,3.59-5.38,6.41-5.38
			c0.48,0,0.81,0.05,1.2,0.15v4.21c-0.43-0.1-0.86-0.15-1.44-0.15c-2.97,0-5.07,2.38-5.64,5.73c-0.1,0.61-0.19,1.32-0.19,2.08v13.09
			h-4.16V218.51z"/>
		<path class="st0" d="M706.56,210.85c-0.1,1.78-0.19,3.75-0.19,6.75v14.25c0,5.63-1.05,9.08-3.3,11.21
			c-2.25,2.23-5.5,2.94-8.42,2.94c-2.77,0-5.84-0.71-7.7-2.03l1.05-3.4c1.53,1.01,3.92,1.93,6.79,1.93c4.31,0,7.46-2.38,7.46-8.57
			v-2.74h-0.1c-1.29,2.28-3.78,4.11-7.37,4.11c-5.74,0-9.85-5.17-9.85-11.97c0-8.32,5.12-13.04,10.43-13.04
			c4.02,0,6.22,2.23,7.22,4.26h0.1l0.19-3.7H706.56z M702.21,220.54c0-0.76-0.05-1.42-0.24-2.03c-0.77-2.59-2.82-4.72-5.88-4.72
			c-4.02,0-6.89,3.6-6.89,9.28c0,4.82,2.3,8.83,6.84,8.83c2.58,0,4.93-1.72,5.84-4.56c0.24-0.76,0.33-1.62,0.33-2.38V220.54z"/>
		<path class="st0" d="M726.17,235.4l-0.33-3.09h-0.14c-1.29,1.93-3.78,3.65-7.08,3.65c-4.69,0-7.08-3.5-7.08-7.05
			c0-5.93,4.98-9.18,13.92-9.13v-0.51c0-2.03-0.53-5.68-5.26-5.68c-2.15,0-4.4,0.71-6.03,1.83l-0.96-2.94
			c1.91-1.32,4.69-2.18,7.61-2.18c7.08,0,8.8,5.12,8.8,10.04v9.18c0,2.13,0.1,4.21,0.38,5.88H726.17z M725.55,222.88
			c-4.59-0.1-9.81,0.76-9.81,5.53c0,2.89,1.82,4.26,3.97,4.26c3.01,0,4.93-2.03,5.6-4.11c0.14-0.46,0.24-0.96,0.24-1.42V222.88z"/>
		<path class="st0" d="M736.41,218.51c0-2.89-0.05-5.38-0.19-7.66h3.68l0.14,4.82h0.19c1.05-3.3,3.59-5.38,6.41-5.38
			c0.48,0,0.81,0.05,1.2,0.15v4.21c-0.43-0.1-0.86-0.15-1.43-0.15c-2.97,0-5.07,2.38-5.64,5.73c-0.1,0.61-0.19,1.32-0.19,2.08v13.09
			h-4.16V218.51z"/>
	</g>
</g>
<g id="XMLID_1_">
	<g id="XMLID_2_">
		<linearGradient id="XMLID_32_" gradientUnits="userSpaceOnUse" x1="280.2231" y1="279.9284" x2="604.9184" y2="604.6236">
			<stop  offset="0" style="stop-color:#AF801D"/>
			<stop  offset="0.5051" style="stop-color:#E3C074"/>
			<stop  offset="0.6513" style="stop-color:#D3AE5C"/>
			<stop  offset="0.9551" style="stop-color:#AD8425"/>
			<stop  offset="0.995" style="stop-color:#A87F1E"/>
		</linearGradient>
		<path id="XMLID_30_" class="st1" d="M649.45,552.03c0,10.82-8.85,19.6-19.76,19.6H255.46c-10.92,0-19.77-8.77-19.77-19.6v-219.5
			c0-10.82,8.85-19.6,19.77-19.6h374.22c10.92,0,19.76,8.77,19.76,19.6V552.03z"/>
		<g id="XMLID_22_">
			<path id="XMLID_23_" class="st2" d="M296.11,439.14c10.92-0.07,9.99,8.96,9.99,8.96s0.09,10.65-15.72,11.77
				c-6.12,0.42-11.41-0.72-11.41-0.72S279.9,439.26,296.11,439.14L296.11,439.14z M534.72,486.53
				c-18.12-0.28-17.23-21.58-17.23-24.1c0-2.52,0-23.18,17.79-23.18c17.78,0,17.24,23.44,17.24,23.44S553.28,486.79,534.72,486.53
				L534.72,486.53z M604.99,456.67c0,0-4.49-1.68-6.1-2.4c-1.78-0.81-7.8-2.58-8.18-7.72c-0.35-5.11,3.89-7.76,10.19-7.76
				c4.37,0,6.93,0.9,13.77,3.84c0.35,0.15,1.31,0.49,1.85,0.57v0c0.13,0.02,0.25,0.03,0.39,0.03c0.03,0,0.06,0.01,0.1,0.01
				c1.1-0.02,2.04-0.74,2.37-1.73c0.08-0.26,0.13-0.57,0.14-0.95c-0.01-0.01-0.01-0.01-0.01-0.01l0.01-0.01v-0.14v-5.45v-1.2
				c0-0.45-0.07-0.88-0.18-1.27c-0.85-2.89-4.46-4.45-7.97-5.32c-3.2-0.8-7.84-1.66-15.21-1.12c-4.66,0.46-8.38,1.52-11.37,2.91
				c-0.14,0.06-0.26,0.13-0.39,0.18l-0.03,0.02c-6.97,3.09-11.85,10.07-11.85,18.2c0,6.91,3.55,13.01,8.91,16.58
				c0.28,0.18,1.24,0.8,2.03,1.28c2.26,1.36,8.5,3.99,15.49,6.87c6.38,2.67,6.43,5.68,6.45,7.99c0,2.97-1.87,5.51-4.49,6.51
				c-0.45,0.2-0.94,0.39-1.49,0.54c-0.79,0.18-2.79,0.64-5.67,0.66c-1.1,0.03-2.55-0.03-4.18-0.27c-3.37-0.53-7.7-1.89-12.38-5.12
				c-3.07-1.9-3.97,0.49-4.22,2.83c-0.08,0.96-0.27,4.04,0.06,6.19c0.29,2,1.14,4.43,4.08,5.9c3.66,1.81,9.12,3.96,20.06,3.77
				c11.81-0.2,25.74-5.96,26.58-21.09C624.55,464.82,613.32,459.59,604.99,456.67L604.99,456.67z M569.04,462.88
				c0,0,1.08-38.02-33.5-38.02c-34.59,0-34.59,33.51-34.59,37.59c0,1.9-0.36,10.36,2.76,18.93c-2.14,2.61-5.9,5.64-11.77,5.64
				c-9.48,0-9-8.89-9-8.89V411.8c0-0.43-0.02-0.83-0.04-1.24v-3.27c0-10.12-5.05-9.71-15.98-9.71v80.7c0,1.02,0.67,8.85-9.36,8.85
				c-10.03,0-9.96-8.22-9.96-8.85c0-0.63-0.04-43.38-0.05-43.51c-0.34-9.02-5.3-8.89-15.61-8.88c-0.4-0.02-0.66,0-0.66,0
				s0.02,43.73,0.02,47.5c0,3.78,0.15,13.64-13.6,13.64c-13.74,0-13.77-8.93-13.77-13.44c0-4.52,0.01-34.72,0.01-34.72h7.77
				c8.93,0,8.59-3.28,8.59-12.99h-16.37v-18.35c0-8.61-3.6-9.75-11.29-9.89h-5.02v28.26l-30.68-0.05v0.01
				c-1.27,0-2.64,0.05-4.12,0.16c-4.65,0.46-8.38,1.52-11.36,2.91c-0.14,0.06-0.26,0.13-0.39,0.18c-0.01,0.01-0.02,0.01-0.04,0.02
				c-6.97,3.09-11.84,10.07-11.84,18.19c0,6.92,3.54,13.01,8.9,16.58c0.27,0.18,1.25,0.8,2.03,1.28c2.26,1.36,8.51,3.98,15.49,6.87
				c6.38,2.66,6.43,5.68,6.44,7.98c0,2.98-1.86,5.52-4.49,6.52c-0.45,0.2-0.95,0.39-1.49,0.54c-0.78,0.17-2.78,0.65-5.67,0.66
				c-1.1,0.03-2.54-0.02-4.17-0.27c-3.38-0.53-7.7-1.89-12.39-5.12c-3.07-1.9-3.97,0.5-4.22,2.83c-0.09,0.97-0.27,4.05,0.05,6.19
				c0.29,2.01,1.15,4.44,4.08,5.9c3.66,1.81,9.12,3.96,20.07,3.77c11.8-0.2,25.73-5.96,26.57-21.09
				c0.83-15.15-10.41-20.38-18.74-23.29c0,0-4.49-1.68-6.09-2.4c-1.79-0.81-7.8-2.58-8.17-7.72c-0.35-4.91,3.57-7.55,9.48-7.74
				c24.3,0,27.63,0.01,30.74,0.02v37.63c0,1.96-0.01,4.99,0.56,8.26c0,0,0,0.02,0.01,0.02c0.02,0.14,0.04,0.26,0.08,0.39
				c0.02,0.09,0.03,0.17,0.05,0.26c0.03,0.13,0.07,0.27,0.1,0.41c0.02,0.08,0.04,0.17,0.06,0.25c0.04,0.15,0.08,0.3,0.12,0.44
				c0.03,0.08,0.05,0.16,0.07,0.24c0.05,0.15,0.09,0.31,0.14,0.45c0.03,0.07,0.05,0.15,0.07,0.23c0.05,0.15,0.11,0.33,0.18,0.49
				c0.02,0.06,0.04,0.12,0.06,0.18c0.06,0.17,0.13,0.35,0.2,0.52c0.02,0.05,0.04,0.1,0.06,0.16c0.08,0.19,0.16,0.37,0.25,0.56
				c0.01,0.04,0.03,0.08,0.05,0.12c0.08,0.19,0.18,0.38,0.26,0.57c0.03,0.04,0.05,0.07,0.06,0.11c0.1,0.2,0.2,0.4,0.31,0.59
				c0.02,0.03,0.03,0.05,0.05,0.08c0.11,0.2,0.23,0.4,0.35,0.61c0.01,0.02,0.03,0.04,0.04,0.07c0.13,0.2,0.26,0.4,0.39,0.6
				c0.02,0.02,0.03,0.04,0.04,0.06c0.13,0.2,0.27,0.41,0.43,0.61c0.01,0.02,0.02,0.03,0.03,0.04c0.15,0.2,0.32,0.41,0.48,0.62
				c0,0,0,0.01,0.02,0.02c0.18,0.21,0.35,0.41,0.53,0.62c0.01,0,0.01,0.01,0.02,0.01c0.18,0.21,0.37,0.42,0.57,0.61v0
				c3.57,3.6,9.37,6.31,18.8,6.31c13.01,0,20-7.32,21.42-8.99c0.04-0.03,0.05-0.06,0.08-0.09c0.02-0.01,0.03-0.02,0.04-0.04
				c0.12-0.13,0.18-0.2,0.2-0.23v0.03v0.02l0.01-0.01c0.02,0.05,0.04,0.09,0.07,0.14c0.26,0.72,1.56,3.76,5.45,6.09
				c3.05,1.94,7.34,3.24,13.36,3.24c11.31,0,17.27-6.5,18.31-7.74c3.12,4.17,8.79,7.59,19.02,7.59c12.45,0,19-7.19,20.1-8.52
				c0.05-0.06,0.1-0.11,0.17-0.17c4.97,5.25,12.55,9.11,24.17,9.26C570.55,501.99,569.04,462.88,569.04,462.88L569.04,462.88z
				 M439.49,416.22c-5.46,0-9.89-4.42-9.89-9.9c0-5.47,4.42-9.89,9.89-9.89c5.47,0,9.9,4.43,9.9,9.89
				C449.39,411.8,444.96,416.22,439.49,416.22L439.49,416.22z M322.91,482.86c-0.48-2.3-1.63-4.59-4.49-2.38
				c-4.3,3.66-8.43,5.46-11.72,6.32c-2.01,0.38-4.49,0.6-7.56,0.5c-16.68-0.48-18.47-15.22-18.47-15.22
				c42.28,7.02,41.37-23.48,41.37-23.48s0.42-21.79-23.58-22.71c-35.78-1.03-36.63,36.3-36.63,36.3s-2.21,37.96,35.78,39.07
				c0,0,12.17,0.16,21.38-5.22c0.75-0.44,2.06-1.5,2.06-1.5c1.91-1.67,2.37-3.77,2.44-5.52
				C323.59,486.86,323.11,483.81,322.91,482.86z"/>
		</g>
		<g id="XMLID_3_">
			<path id="XMLID_20_" class="st3" d="M270.19,386.63h-7.82v-3.96h20.17v3.96h-7.82v21.53h-4.54V386.63z"/>
			<path id="XMLID_17_" class="st3" d="M292.78,405.96h-0.11c-0.87,1.51-2.92,2.63-5.37,2.63c-2.77,0-6.48-1.33-6.48-5.37
				c0-5.15,6.48-5.87,11.89-5.87v-0.43c0-2.12-1.8-3.17-3.96-3.17c-1.84,0-3.6,0.86-4.72,1.98l-2.23-2.63
				c1.95-1.8,4.68-2.74,7.31-2.74c6.2,0,7.71,3.82,7.71,7.27v10.51h-4.03V405.96z M292.7,400.28h-0.97c-2.74,0-6.59,0.32-6.59,2.88
				c0,1.66,1.55,2.16,3.03,2.16c2.95,0,4.54-1.69,4.54-4.43V400.28z"/>
			<path id="XMLID_15_" class="st3" d="M302.07,390.88h4.14v2.88h0.07c0.94-1.98,2.77-3.38,5.04-3.38c0.32,0,0.76,0.04,1.05,0.11
				v3.96c-0.58-0.14-0.94-0.18-1.33-0.18c-3.89,0-4.65,3.38-4.65,4.65v9.25h-4.32V390.88z"/>
			<path id="XMLID_12_" class="st3" d="M319.8,390.88v18.33c0,4.14-1.12,7.6-6.27,7.6c-0.72,0-1.51-0.11-1.95-0.22l0.36-3.67
				c0.4,0.11,0.86,0.14,1.19,0.14c2.05,0,2.34-1.69,2.34-3.67v-18.51H319.8z M317.6,382.41c1.59,0,2.81,1.12,2.81,2.59
				s-1.22,2.59-2.81,2.59s-2.74-1.22-2.74-2.59S316.01,382.41,317.6,382.41z"/>
			<path id="XMLID_9_" class="st3" d="M341.73,400.89h-13.15c0.18,2.45,2.41,4.25,4.94,4.25c2.16,0,3.6-0.86,4.57-2.23l2.88,2.3
				c-1.69,2.3-4.14,3.46-7.42,3.46c-5.33,0-9.29-3.42-9.29-9.04c0-5.58,3.93-9.25,9.15-9.25c4.83,0,8.36,3.13,8.36,9.36
				C341.77,400.13,341.77,400.49,341.73,400.89z M337.45,397.79c0-2.23-1.26-4.18-4.07-4.18c-2.56,0-4.61,1.76-4.79,4.18H337.45z"/>
			<path id="XMLID_7_" class="st3" d="M343.68,394.33v-3.46h3.03v-5.01h4.25v5.01h4.32v3.46h-4.32v8.03c0,1.55,0.36,2.66,2.27,2.66
				c0.58,0,1.33-0.11,1.84-0.36l0.14,3.38c-0.76,0.29-1.91,0.47-2.88,0.47c-4.57,0-5.62-2.81-5.62-6.12v-8.07H343.68z"/>
			<path id="XMLID_4_" class="st3" d="M369.36,405.96h-0.11c-0.87,1.51-2.92,2.63-5.37,2.63c-2.77,0-6.48-1.33-6.48-5.37
				c0-5.15,6.48-5.87,11.89-5.87v-0.43c0-2.12-1.8-3.17-3.96-3.17c-1.84,0-3.6,0.86-4.72,1.98l-2.23-2.63
				c1.95-1.8,4.68-2.74,7.31-2.74c6.2,0,7.71,3.82,7.71,7.27v10.51h-4.03V405.96z M369.29,400.28h-0.97c-2.74,0-6.59,0.32-6.59,2.88
				c0,1.66,1.55,2.16,3.03,2.16c2.95,0,4.54-1.69,4.54-4.43V400.28z"/>
		</g>
	</g>
</g>
</svg>
