<?xml version="1.0" encoding="utf-8"?>
<!-- Generator: Adobe Illustrator 25.0.0, SVG Export Plug-In . SVG Version: 6.00 Build 0)  -->
<svg version="1.1" id="Capa_1" xmlns="http://www.w3.org/2000/svg" xmlns:xlink="http://www.w3.org/1999/xlink" x="0px" y="0px"
	 viewBox="0 0 173.37 144.98" style="enable-background:new 0 0 173.37 144.98;" xml:space="preserve">
<style type="text/css">
	.st0{fill:#FFFFFF;}
	.st1{fill:url(#XMLID_2_);}
	.st2{fill:#E3241D;}
	.st3{fill:#434141;}
	.st4{fill:#626261;}
</style>
<g>
	<path class="st0" d="M161.37,144.98H12c-6.6,0-12-5.4-12-12V12C0,5.4,5.4,0,12,0l149.37,0c6.6,0,12,5.4,12,12v120.98
		C173.37,139.58,167.97,144.98,161.37,144.98z"/>
	<g id="XMLID_331_">
		<g id="XMLID_332_">
			<linearGradient id="XMLID_2_" gradientUnits="userSpaceOnUse" x1="26.1079" y1="28.8312" x2="147.9102" y2="150.6335">
				<stop  offset="0" style="stop-color:#AF801D"/>
				<stop  offset="0.5051" style="stop-color:#E3C074"/>
				<stop  offset="0.6513" style="stop-color:#D3AE5C"/>
				<stop  offset="0.9551" style="stop-color:#AD8425"/>
				<stop  offset="0.995" style="stop-color:#A87F1E"/>
			</linearGradient>
			<path id="XMLID_360_" class="st1" d="M164.61,130.9c0,4.06-3.32,7.35-7.41,7.35H16.82c-4.1,0-7.41-3.29-7.41-7.35V48.56
				c0-4.06,3.32-7.35,7.41-7.35H157.2c4.09,0,7.41,3.29,7.41,7.35V130.9z"/>
			<g id="XMLID_352_">
				<path id="XMLID_353_" class="st2" d="M32.07,88.56c4.1-0.03,3.75,3.36,3.75,3.36s0.03,4-5.9,4.41
					c-2.29,0.16-4.28-0.27-4.28-0.27S25.99,88.6,32.07,88.56L32.07,88.56z M121.58,106.33c-6.8-0.1-6.46-8.1-6.46-9.04
					c0-0.94,0-8.69,6.67-8.69c6.67,0,6.47,8.79,6.47,8.79S128.54,106.43,121.58,106.33L121.58,106.33z M147.94,95.13
					c0,0-1.69-0.63-2.29-0.9c-0.67-0.3-2.92-0.97-3.07-2.89c-0.13-1.92,1.46-2.91,3.82-2.91c1.64,0,2.6,0.34,5.17,1.44
					c0.13,0.06,0.49,0.19,0.69,0.21v0c0.05,0.01,0.09,0.01,0.15,0.01l0.04,0c0.41-0.01,0.76-0.28,0.89-0.65
					c0.03-0.1,0.05-0.21,0.05-0.35l0-0.01h0v-0.05v-2.04v-0.45c0-0.17-0.03-0.33-0.07-0.48c-0.32-1.09-1.67-1.67-2.99-2
					c-1.2-0.3-2.94-0.62-5.7-0.42c-1.75,0.17-3.14,0.57-4.26,1.09c-0.05,0.02-0.1,0.05-0.15,0.07l-0.01,0.01
					c-2.62,1.16-4.44,3.78-4.44,6.83c0,2.59,1.33,4.88,3.34,6.22c0.1,0.07,0.47,0.3,0.76,0.48c0.85,0.51,3.19,1.5,5.81,2.58
					c2.39,1,2.41,2.13,2.42,3c0,1.11-0.7,2.07-1.69,2.44c-0.17,0.08-0.35,0.15-0.56,0.2c-0.3,0.07-1.05,0.24-2.13,0.25
					c-0.41,0.01-0.96-0.01-1.57-0.1c-1.26-0.2-2.89-0.71-4.64-1.92c-1.15-0.71-1.49,0.18-1.58,1.06c-0.03,0.36-0.1,1.52,0.02,2.32
					c0.11,0.75,0.43,1.66,1.53,2.21c1.37,0.68,3.42,1.48,7.52,1.42c4.43-0.07,9.65-2.24,9.97-7.91
					C155.27,98.19,151.06,96.23,147.94,95.13L147.94,95.13z M134.45,97.46c0,0,0.4-14.26-12.57-14.26
					c-12.98,0-12.98,12.57-12.98,14.1c0,0.71-0.14,3.89,1.03,7.1c-0.8,0.98-2.21,2.11-4.41,2.11c-3.55,0-3.37-3.33-3.37-3.33V78.3
					c0-0.16-0.01-0.31-0.01-0.47v-1.23c0-3.8-1.89-3.64-6-3.64v30.27c0,0.38,0.25,3.32-3.51,3.32c-3.76,0-3.74-3.08-3.74-3.32
					c0-0.24-0.02-16.27-0.02-16.32c-0.13-3.38-1.99-3.34-5.85-3.33c-0.15-0.01-0.25,0-0.25,0s0.01,16.4,0.01,17.82
					c0,1.42,0.05,5.12-5.1,5.12c-5.16,0-5.17-3.35-5.17-5.04c0-1.7,0-13.02,0-13.02h2.92c3.35,0,3.22-1.23,3.22-4.87h-6.14V76.7
					c0-3.23-1.35-3.66-4.23-3.71H66.4v10.6l-11.51-0.02v0c-0.48,0-0.99,0.02-1.54,0.06c-1.75,0.17-3.14,0.57-4.26,1.09
					c-0.05,0.02-0.1,0.05-0.15,0.07l-0.01,0.01c-2.61,1.16-4.44,3.78-4.44,6.82c0,2.59,1.33,4.88,3.34,6.22
					c0.1,0.07,0.47,0.3,0.76,0.48c0.85,0.51,3.19,1.49,5.81,2.58c2.39,1,2.41,2.13,2.42,2.99c0,1.12-0.7,2.07-1.69,2.45
					c-0.17,0.08-0.36,0.14-0.56,0.2c-0.29,0.06-1.04,0.24-2.13,0.25c-0.41,0.01-0.95-0.01-1.56-0.1c-1.27-0.2-2.89-0.71-4.65-1.92
					c-1.15-0.71-1.49,0.19-1.58,1.06c-0.03,0.36-0.1,1.52,0.02,2.32c0.11,0.75,0.43,1.67,1.53,2.21c1.37,0.68,3.42,1.49,7.53,1.42
					c4.43-0.08,9.65-2.24,9.97-7.91c0.31-5.68-3.9-7.64-7.03-8.74c0,0-1.69-0.63-2.29-0.9c-0.67-0.31-2.93-0.97-3.06-2.89
					c-0.13-1.84,1.34-2.83,3.55-2.9c9.11,0,10.36,0,11.53,0.01v14.12c0,0.73,0,1.87,0.21,3.1l0,0.01c0.01,0.05,0.01,0.1,0.03,0.14
					c0.01,0.04,0.01,0.06,0.02,0.1c0.01,0.05,0.03,0.1,0.04,0.15c0.01,0.03,0.01,0.06,0.02,0.09c0.01,0.06,0.03,0.11,0.04,0.16
					c0.01,0.03,0.02,0.06,0.03,0.09c0.02,0.05,0.04,0.12,0.05,0.17c0.01,0.03,0.02,0.06,0.03,0.08c0.02,0.06,0.04,0.12,0.07,0.19
					c0.01,0.02,0.02,0.05,0.02,0.07c0.02,0.06,0.05,0.13,0.08,0.2c0.01,0.02,0.02,0.04,0.02,0.06c0.03,0.07,0.06,0.14,0.09,0.21
					c0,0.02,0.01,0.03,0.01,0.03c0.04,0.09,0.08,0.16,0.11,0.23c0,0,0.02,0.03,0.02,0.04c0.04,0.08,0.08,0.15,0.12,0.22
					c0.01,0.01,0.01,0.02,0.02,0.03c0.04,0.08,0.09,0.15,0.13,0.23l0.01,0.03c0.05,0.07,0.1,0.15,0.15,0.23l0.02,0.02
					c0.05,0.08,0.1,0.15,0.16,0.23c0,0.01,0.01,0.01,0.01,0.01c0.06,0.08,0.12,0.16,0.18,0.24l0.01,0.01
					c0.07,0.08,0.13,0.15,0.2,0.23l0.01,0c0.07,0.08,0.14,0.16,0.21,0.23v0c1.34,1.35,3.51,2.37,7.05,2.37
					c4.88,0,7.5-2.75,8.03-3.37c0.01-0.01,0.02-0.02,0.03-0.03c0,0,0.01-0.01,0.01-0.02c0.04-0.05,0.07-0.08,0.07-0.09v0.01v0.01
					l0,0c0.01,0.02,0.02,0.03,0.02,0.05c0.1,0.27,0.58,1.41,2.04,2.28c1.14,0.73,2.75,1.21,5.01,1.21c4.24,0,6.48-2.44,6.87-2.9
					c1.17,1.57,3.3,2.85,7.14,2.85c4.67,0,7.13-2.7,7.54-3.19c0.02-0.02,0.04-0.04,0.06-0.06c1.86,1.97,4.71,3.42,9.07,3.47
					C135.02,112.13,134.45,97.46,134.45,97.46L134.45,97.46z M85.85,79.96c-2.05,0-3.71-1.66-3.71-3.71c0-2.05,1.66-3.71,3.71-3.71
					c2.05,0,3.72,1.66,3.72,3.71C89.57,78.3,87.9,79.96,85.85,79.96L85.85,79.96z M42.12,104.96c-0.18-0.86-0.61-1.72-1.68-0.89
					c-1.61,1.37-3.16,2.05-4.4,2.37c-0.75,0.14-1.68,0.22-2.84,0.19c-6.26-0.18-6.93-5.71-6.93-5.71
					c15.86,2.63,15.52-8.81,15.52-8.81s0.16-8.18-8.85-8.52C19.53,83.2,19.21,97.2,19.21,97.2s-0.83,14.24,13.42,14.65
					c0,0,4.57,0.06,8.02-1.96c0.28-0.17,0.77-0.56,0.77-0.56c0.72-0.62,0.89-1.42,0.92-2.07C42.38,106.46,42.2,105.31,42.12,104.96z
					"/>
			</g>
			<g id="XMLID_333_">
				<path id="XMLID_350_" class="st3" d="M22.34,68.86h-2.93v-1.49h7.57v1.49h-2.93v8.08h-1.7V68.86z"/>
				<path id="XMLID_347_" class="st3" d="M30.82,76.11h-0.04c-0.32,0.57-1.09,0.99-2.01,0.99c-1.04,0-2.43-0.5-2.43-2.01
					c0-1.93,2.43-2.2,4.46-2.2v-0.16c0-0.8-0.68-1.19-1.49-1.19c-0.69,0-1.35,0.32-1.77,0.74l-0.84-0.99
					c0.73-0.68,1.76-1.03,2.74-1.03c2.32,0,2.89,1.43,2.89,2.73v3.94h-1.51V76.11z M30.79,73.98h-0.37c-1.03,0-2.47,0.12-2.47,1.08
					c0,0.62,0.58,0.81,1.14,0.81c1.11,0,1.7-0.63,1.7-1.66V73.98z"/>
				<path id="XMLID_345_" class="st3" d="M34.3,70.45h1.55v1.08h0.03c0.35-0.74,1.04-1.27,1.89-1.27c0.12,0,0.28,0.01,0.39,0.04
					v1.49c-0.22-0.05-0.35-0.07-0.5-0.07c-1.46,0-1.74,1.27-1.74,1.74v3.47H34.3V70.45z"/>
				<path id="XMLID_342_" class="st3" d="M40.95,70.45v6.88c0,1.55-0.42,2.85-2.35,2.85c-0.27,0-0.57-0.04-0.73-0.08l0.14-1.38
					c0.15,0.04,0.32,0.05,0.45,0.05c0.77,0,0.88-0.63,0.88-1.38v-6.94H40.95z M40.13,67.28c0.59,0,1.05,0.42,1.05,0.97
					c0,0.55-0.46,0.97-1.05,0.97c-0.59,0-1.03-0.46-1.03-0.97S39.53,67.28,40.13,67.28z"/>
				<path id="XMLID_339_" class="st3" d="M49.18,74.21h-4.93c0.07,0.92,0.91,1.59,1.85,1.59c0.81,0,1.35-0.32,1.72-0.84l1.08,0.86
					c-0.64,0.86-1.55,1.3-2.78,1.3c-2,0-3.49-1.28-3.49-3.39c0-2.09,1.47-3.47,3.43-3.47c1.81,0,3.13,1.18,3.13,3.51
					C49.2,73.92,49.2,74.06,49.18,74.21z M47.57,73.04c0-0.84-0.47-1.57-1.53-1.57c-0.96,0-1.73,0.66-1.8,1.57H47.57z"/>
				<path id="XMLID_337_" class="st3" d="M49.91,71.75v-1.3h1.14v-1.88h1.59v1.88h1.62v1.3h-1.62v3.01c0,0.58,0.14,1,0.85,1
					c0.22,0,0.5-0.04,0.69-0.14l0.05,1.27c-0.28,0.11-0.72,0.18-1.08,0.18c-1.72,0-2.11-1.05-2.11-2.3v-3.03H49.91z"/>
				<path id="XMLID_334_" class="st3" d="M59.55,76.11h-0.04c-0.32,0.57-1.09,0.99-2.01,0.99c-1.04,0-2.43-0.5-2.43-2.01
					c0-1.93,2.43-2.2,4.46-2.2v-0.16c0-0.8-0.68-1.19-1.49-1.19c-0.69,0-1.35,0.32-1.77,0.74l-0.84-0.99
					c0.73-0.68,1.76-1.03,2.74-1.03c2.32,0,2.89,1.43,2.89,2.73v3.94h-1.51V76.11z M59.52,73.98h-0.37c-1.03,0-2.47,0.12-2.47,1.08
					c0,0.62,0.58,0.81,1.14,0.81c1.11,0,1.7-0.63,1.7-1.66V73.98z"/>
			</g>
		</g>
	</g>
	<g>
		<g>
			<path class="st4" d="M32.92,23.82h-6.43v5.96h7.16v1.79h-9.3V15.04h8.93v1.79h-6.8v5.23h6.43V23.82z"/>
			<path class="st4" d="M36.99,19.7l1.69,2.55c0.44,0.66,0.81,1.28,1.2,1.94h0.07c0.39-0.71,0.79-1.33,1.18-1.96l1.67-2.53h2.33
				l-4.05,5.74l4.17,6.13h-2.45l-1.74-2.67c-0.47-0.69-0.86-1.35-1.28-2.06h-0.05c-0.39,0.71-0.81,1.35-1.25,2.06l-1.72,2.67h-2.38
				l4.22-6.06l-4.02-5.81H36.99z"/>
			<path class="st4" d="M55.08,31.14c-0.56,0.29-1.82,0.69-3.41,0.69c-3.58,0-5.91-2.43-5.91-6.06c0-3.66,2.5-6.31,6.38-6.31
				c1.28,0,2.4,0.32,2.99,0.61l-0.49,1.67c-0.52-0.29-1.32-0.56-2.5-0.56c-2.72,0-4.2,2.01-4.2,4.49c0,2.75,1.77,4.44,4.12,4.44
				c1.23,0,2.04-0.32,2.65-0.59L55.08,31.14z"/>
			<path class="st4" d="M57.24,14.16h2.16v17.42h-2.16V14.16z"/>
			<path class="st4" d="M72.6,28.34c0,1.23,0.02,2.31,0.1,3.24h-1.91l-0.12-1.94h-0.05c-0.56,0.96-1.82,2.21-3.93,2.21
				c-1.86,0-4.1-1.03-4.1-5.2V19.7h2.16v6.58c0,2.26,0.69,3.78,2.65,3.78c1.45,0,2.45-1.01,2.85-1.96c0.12-0.32,0.2-0.71,0.2-1.1
				V19.7h2.16V28.34z"/>
			<path class="st4" d="M75.52,29.37c0.64,0.42,1.77,0.86,2.85,0.86c1.57,0,2.31-0.79,2.31-1.77c0-1.03-0.61-1.59-2.21-2.18
				c-2.13-0.76-3.14-1.94-3.14-3.36c0-1.91,1.55-3.48,4.1-3.48c1.2,0,2.26,0.34,2.92,0.74l-0.54,1.57
				c-0.47-0.29-1.32-0.69-2.43-0.69c-1.28,0-1.99,0.74-1.99,1.62c0,0.98,0.71,1.42,2.26,2.01c2.06,0.79,3.12,1.82,3.12,3.58
				c0,2.09-1.62,3.56-4.44,3.56c-1.3,0-2.5-0.32-3.34-0.81L75.52,29.37z"/>
			<path class="st4" d="M87.57,16.36c0.02,0.74-0.52,1.32-1.37,1.32c-0.76,0-1.3-0.59-1.3-1.32c0-0.76,0.56-1.35,1.35-1.35
				C87.05,15.01,87.57,15.6,87.57,16.36z M85.16,31.58V19.7h2.16v11.88H85.16z"/>
			<path class="st4" d="M91.37,19.7l2.33,6.67c0.39,1.08,0.71,2.06,0.96,3.04h0.07c0.27-0.98,0.61-1.96,1.01-3.04l2.31-6.67h2.26
				l-4.66,11.88h-2.06L89.07,19.7H91.37z"/>
			<path class="st4" d="M112.48,25.54c0,4.39-3.04,6.31-5.91,6.31c-3.21,0-5.69-2.36-5.69-6.11c0-3.97,2.6-6.31,5.89-6.31
				C110.17,19.43,112.48,21.91,112.48,25.54z M103.05,25.66c0,2.6,1.5,4.56,3.61,4.56c2.06,0,3.61-1.94,3.61-4.61
				c0-2.01-1.01-4.56-3.56-4.56C104.16,21.05,103.05,23.41,103.05,25.66z"/>
			<path class="st4" d="M128.13,31.14c-0.56,0.29-1.82,0.69-3.41,0.69c-3.58,0-5.91-2.43-5.91-6.06c0-3.66,2.5-6.31,6.38-6.31
				c1.28,0,2.41,0.32,2.99,0.61l-0.49,1.67c-0.52-0.29-1.33-0.56-2.5-0.56c-2.72,0-4.2,2.01-4.2,4.49c0,2.75,1.77,4.44,4.12,4.44
				c1.23,0,2.04-0.32,2.65-0.59L128.13,31.14z"/>
			<path class="st4" d="M140.9,25.54c0,4.39-3.04,6.31-5.91,6.31c-3.21,0-5.69-2.36-5.69-6.11c0-3.97,2.6-6.31,5.89-6.31
				C138.59,19.43,140.9,21.91,140.9,25.54z M131.47,25.66c0,2.6,1.5,4.56,3.61,4.56c2.06,0,3.61-1.94,3.61-4.61
				c0-2.01-1.01-4.56-3.56-4.56S131.47,23.41,131.47,25.66z"/>
			<path class="st4" d="M143.25,22.92c0-1.23-0.03-2.23-0.1-3.21h1.91l0.12,1.96h0.05c0.59-1.13,1.96-2.23,3.93-2.23
				c1.64,0,4.2,0.98,4.2,5.05v7.09h-2.16v-6.85c0-1.91-0.71-3.51-2.75-3.51c-1.42,0-2.53,1.01-2.89,2.21
				c-0.1,0.27-0.15,0.64-0.15,1.01v7.14h-2.16V22.92z"/>
			<path class="st4" d="M155.99,21.66c0-0.91,0.61-1.55,1.47-1.55s1.42,0.64,1.45,1.55c0,0.86-0.56,1.52-1.47,1.52
				C156.58,23.19,155.99,22.52,155.99,21.66z M155.99,30.33c0-0.91,0.61-1.55,1.47-1.55s1.42,0.64,1.45,1.55
				c0,0.86-0.56,1.52-1.47,1.52C156.58,31.85,155.99,31.18,155.99,30.33z"/>
		</g>
	</g>
</g>
</svg>
