<svg xmlns="http://www.w3.org/2000/svg" viewBox="0 0 1080.3 203.73"><defs><style>.cls-1{fill:#bf0811;}.cls-2{fill:#4c4c4c;}</style></defs><g id="Capa_2" data-name="Capa 2"><g id="Capa_1-2" data-name="Capa 1"><path class="cls-1" d="M619.85,67.43c15.36-.1,14,12.59,14,12.59S634,95,611.8,96.56a64,64,0,0,1-16-1s1.31-27.95,24.08-28.11ZM955.16,134c-25.47-.39-24.22-30.33-24.22-33.87s0-32.57,25-32.57,24.23,32.94,24.23,32.94,1.07,33.87-25,33.5Zm98.75-42s-6.31-2.36-8.57-3.38c-2.49-1.14-10.95-3.63-11.49-10.85s5.47-10.9,14.32-10.9c6.14,0,9.74,1.26,19.35,5.39a12.59,12.59,0,0,0,2.59.8h0a4.73,4.73,0,0,0,.54,0l.14,0a3.6,3.6,0,0,0,3.33-2.44,5.37,5.37,0,0,0,.19-1.33s0,0,0,0h0V59.85a6.85,6.85,0,0,0-.25-1.79c-1.2-4.07-6.27-6.26-11.2-7.48-4.49-1.13-11-2.33-21.37-1.58a48.68,48.68,0,0,0-16,4.1c-.19.08-.36.17-.55.24l0,0a27.94,27.94,0,0,0-4.13,48.86c.39.25,1.75,1.13,2.85,1.8,3.18,1.92,11.95,5.6,21.77,9.65,9,3.76,9,8,9.06,11.23a9.81,9.81,0,0,1-6.32,9.15,13.41,13.41,0,0,1-2.09.76,35.07,35.07,0,0,1-8,.93,34.48,34.48,0,0,1-5.87-.38,42.17,42.17,0,0,1-17.4-7.2c-4.31-2.67-5.59.69-5.94,4a44.55,44.55,0,0,0,.08,8.69,10.25,10.25,0,0,0,5.74,8.29c5.15,2.55,12.81,5.56,28.19,5.3,16.6-.28,36.17-8.38,37.35-29.64s-14.62-28.62-26.33-32.72Zm-50.51,8.72s1.51-53.43-47.08-53.43-48.62,47.1-48.62,52.82c0,2.68-.5,14.56,3.88,26.61A20.92,20.92,0,0,1,895,134.71c-13.32,0-12.64-12.5-12.64-12.5V29c0-.6,0-1.17,0-1.74v-4.6C882.35,8.45,875.25,9,859.89,9V122.43c0,1.43.94,12.43-13.15,12.43s-14-11.55-14-12.43-.06-61-.07-61.15c-.48-12.68-7.45-12.5-21.94-12.48-.56,0-.93,0-.93,0s0,61.45,0,66.75.21,19.17-19.11,19.17-19.35-12.54-19.35-18.89,0-48.78,0-48.78H782.3c12.56,0,12.08-4.61,12.08-18.26h-23V23c0-12.1-5.06-13.7-15.86-13.89h-7.06V48.83l-43.11-.07v0c-1.78,0-3.7.07-5.78.22a48.87,48.87,0,0,0-16,4.1l-.55.25,0,0a28,28,0,0,0-4.13,48.86c.38.25,1.76,1.13,2.85,1.8,3.18,1.91,12,5.59,21.77,9.66,9,3.75,9,8,9.06,11.21a9.81,9.81,0,0,1-6.31,9.17,14.06,14.06,0,0,1-2.11.75,34.77,34.77,0,0,1-8,.93,34.43,34.43,0,0,1-5.86-.38,42.06,42.06,0,0,1-17.41-7.2c-4.31-2.67-5.58.69-5.93,4a44.41,44.41,0,0,0,.07,8.69,10.26,10.26,0,0,0,5.74,8.3c5.15,2.54,12.82,5.56,28.2,5.3,16.58-.29,36.17-8.38,37.34-29.63S723.7,96.16,712,92.07c0,0-6.31-2.36-8.56-3.38-2.51-1.15-11-3.63-11.48-10.85-.48-6.9,5-10.6,13.32-10.87,34.14,0,38.82,0,43.19,0v52.88a66.84,66.84,0,0,0,.78,11.6v0c0,.19.07.36.12.54s0,.24.08.37.1.38.14.58,0,.23.09.35.12.42.16.62a3.18,3.18,0,0,1,.1.33c.07.21.14.44.2.64s.07.21.11.32.15.46.24.69.06.17.09.26.18.48.29.73a1.43,1.43,0,0,0,.08.22c.11.27.22.53.35.79a1.22,1.22,0,0,0,.07.17c.12.27.25.53.37.81a.37.37,0,0,1,.08.15c.14.29.29.56.44.83l.07.12c.15.28.32.56.49.85a.46.46,0,0,1,.05.1l.55.84a.47.47,0,0,1,.06.09c.18.28.38.57.6.85l0,.06c.21.29.44.58.67.87l0,0c.25.29.49.58.74.86,0,0,0,0,0,0a8.07,8.07,0,0,0,.8.86h0c5,5.06,13.16,8.86,26.42,8.86,18.29,0,28.1-10.29,30.1-12.64.05,0,.07-.08.11-.12s0,0,.05-.06l.28-.32v.06h0a1.13,1.13,0,0,0,.09.2,17.64,17.64,0,0,0,7.66,8.55c4.28,2.72,10.31,4.55,18.77,4.55,15.89,0,24.28-9.13,25.73-10.88,4.39,5.87,12.35,10.67,26.74,10.67,17.49,0,26.69-10.1,28.25-12,.07-.08.15-.15.23-.23,7,7.37,17.63,12.8,34,13,50.71.61,48.6-54.34,48.6-54.34ZM821.34,35.22a13.91,13.91,0,1,1,13.92-13.9,13.89,13.89,0,0,1-13.92,13.9ZM657.52,128.86c-.68-3.23-2.29-6.44-6.31-3.34a41.85,41.85,0,0,1-16.47,8.88,49.54,49.54,0,0,1-10.62.7c-23.44-.67-26-21.38-26-21.38,59.4,9.86,58.14-33,58.14-33s.58-30.62-33.14-31.91c-50.28-1.45-51.48,51-51.48,51s-3.11,53.35,50.27,54.9c0,0,17.11.22,30-7.34a32.79,32.79,0,0,0,2.9-2.11,10.43,10.43,0,0,0,3.43-7.76A42.85,42.85,0,0,0,657.52,128.86Z"/><polygon class="cls-2" points="118.25 0 0 0 0 15.75 50.4 15.75 50.4 152.69 67.85 152.69 67.85 15.75 118.25 15.75 118.25 0"/><path class="cls-2" d="M183.74,129.29V85.7c0-23-15.24-37.22-39.77-37.22-15.86,0-30.77,5.44-39.89,14.56l-.7.7L112.85,75l.83-.82c7.13-7.13,17.89-11.38,28.8-11.38C159.4,62.75,168,71,168,87.4v2.12c-35.67.06-70.18,3-70.18,34.46,0,21.48,18.42,31.27,35.52,31.27,15.55,0,26.62-5.31,35.56-17.14a103.6,103.6,0,0,0,1.45,13.7l.15.88h15.18l-.25-1.27A135.07,135.07,0,0,1,183.74,129.29ZM168,102.94v6.37c0,15.35-9.65,31.88-30.83,31.88-5.23,0-22.32-1.29-22.32-17.85,0-18.29,28.52-20.4,50-20.4Z"/><path class="cls-2" d="M261.18,65.23l1.25.47,2.23-15.86-.9-.25a35,35,0,0,0-9.86-1.11,36.66,36.66,0,0,0-31.31,17.3c-.13-4.3-.47-9.76-.79-13.76l-.08-1h-16l.11,1.18c.67,7.11.85,17,.85,21.8v78.68h16.6v-52.1c0-27,14.5-36.57,28.06-36.57A37.89,37.89,0,0,1,261.18,65.23Z"/><path class="cls-2" d="M279.84,2.55a11.44,11.44,0,0,0-11.28,11.28,11.28,11.28,0,0,0,22.56,0A11.44,11.44,0,0,0,279.84,2.55Z"/><path class="cls-2" d="M271.54,169.06c0,12.78-2.12,20.19-13,20.19a32.64,32.64,0,0,1-8.83-1.23l-1.16-.36-2.5,14.26.91.27a46.89,46.89,0,0,0,11.79,1.54c19.2,0,29.35-11.18,29.35-32.33V51h-16.6Z"/><path class="cls-2" d="M356.39,48.48c-29.22,0-51.26,23-51.26,53.38s22.59,53.39,52.54,53.39c17.73,0,32.39-7.22,43.58-21.47l.66-.84L389.28,123l-.63,1a36.42,36.42,0,0,1-31,16.72c-19,0-34.3-14.85-35.25-34H404.8l.08-1c.21-2.6.21-5,.21-6.89C405.09,68.27,386,48.48,356.39,48.48Zm-33.7,44.66C324.4,78,337.2,62.75,356.39,62.75c18.42,0,30.53,11.61,31.82,30.39Z"/><path class="cls-2" d="M466.69,136.41a28.48,28.48,0,0,1-12.06,3.08c-7.18,0-13.81-2.09-13.81-17.21v-57h28.06V51H440.82V23H424.21V51H403.59V65.3h20.62v61c0,25,18.6,27.65,26.59,27.65a48,48,0,0,0,17.39-3.05l.73-.27-.76-15Z"/><path class="cls-2" d="M557.32,151.42a135.07,135.07,0,0,1-1.68-22.13V85.7c0-23-15.24-37.22-39.77-37.22C500,48.48,485.1,53.92,476,63l-.7.7L484.75,75l.83-.82c7.13-7.13,17.89-11.38,28.8-11.38,16.92,0,25.51,8.29,25.51,24.65v2.12c-35.67.06-70.18,3-70.18,34.46,0,21.48,18.42,31.27,35.52,31.27,15.55,0,26.61-5.31,35.55-17.13a105.21,105.21,0,0,0,1.46,13.69l.15.88h15.18Zm-17.43-48.48v6.37c0,15.35-9.65,31.88-30.83,31.88-5.23,0-22.32-1.29-22.32-17.85,0-18.29,28.52-20.4,50-20.4Z"/></g></g></svg>