<svg xmlns="http://www.w3.org/2000/svg" xmlns:xlink="http://www.w3.org/1999/xlink" viewBox="0 0 1120.77 374.27"><defs><style>.cls-1,.cls-2,.cls-3,.cls-5,.cls-6{fill:#edeef0;}.cls-1{clip-rule:evenodd;}.cls-3,.cls-5{stroke:#9a999e;stroke-miterlimit:10;}.cls-3{stroke-width:4px;}.cls-3,.cls-4,.cls-5,.cls-6{fill-rule:evenodd;}.cls-4{fill:none;}.cls-5{stroke-width:3px;}.cls-7{clip-path:url(#clip-path);}</style><clipPath id="clip-path"><path class="cls-1" d="M503.27,175.59l35-.09-2.41,18c-.95,8.82-4.81,14.45-11.68,14l-22,.28-.17,108.21c-18.79.28-37.62,3.43-37.44-21l.17-87.19-31.21-.53c1.76-12.81,1.56-32.4,17.86-31.53l14.39-.08c.3-42.4,13-61.12,73.28-57.62,1.28,53-37.68,5.48-35.85,57.63Zm97.83,125.7V297c-29.36,31.23-79.89,18.27-79.89-25.8,0-38.65,35.06-44.74,67-44.74h12.82c-1.48-25-8.16-21.08-41.51-21.22-10.33,0-16.84-11.73-17-29.57a362.06,362.06,0,0,1,63.45.05c21.7,2.07,30.18,17.34,30.18,41.58V314.4c-16,0-33.9,5.64-35.09-13.11Zm484.58,0V297c-29.37,31.23-79.9,18.27-79.9-25.8,0-38.65,35.06-44.74,67-44.74h12.83c-1.49-25-8.17-21.08-41.52-21.22-10.33,0-16.84-11.73-17-29.57a362.05,362.05,0,0,1,63.45.05c21.7,2.07,30.19,17.34,30.19,41.58V314.4c-16,0-33.91,5.64-35.09-13.11Zm-484.6-51.62c-16.81,0-44.36-2.83-44.36,20.3,0,19,18.66,21.24,31,13.7A59.3,59.3,0,0,0,601.08,272V249.67Zm484.58,0c-16.83,0-44.36-2.83-44.36,20.3,0,19,18.65,21.24,31,13.7A59.77,59.77,0,0,0,1085.66,272V249.67Zm-244,64.67v.19c-24.72,0-37.35,1.29-37.09-25.11V227.73c0-14-4.37-29.58-20.82-29.58-18.17,0-20.14,19.8-20.14,33.61v82.77c-35.6,3.12-37.09-5.37-37.09-24.7v-62.1c0-14-4.28-29.58-20.77-29.58-20.11,0-20.19,18.92-20.19,36.4v80c-20.48,0-37.09,1.2-37.09-18.77V169.53l13.68,0c11.53,0,22.47,5.7,22.92,19.86,9.44-14,19.73-21,37.48-20.44,12.66.43,23.26,7.77,30,22.4,9.84-13.83,19.43-23,42.36-23.9,21.39-.8,34.24,7.89,40.91,22.43,4.11,9,5.89,19.85,5.89,31.7v92.79Zm13.35-79.79v80c20.49,0,37.1,1.2,37.1-18.77V180.23l-13.69,0c-11.53,0-23.22,5.7-23.67,19.86l.26,34.49Zm104.32,0v80c20.48,0,37.09,1.2,37.09-18.77V180.23l-13.69,0c-11.53,0-23.21,5.7-23.67,19.86l.26,34.49Zm-52-49.55V314.53c20.49,0,37.09,1.2,37.09-18.77V120l-13.68,0c-11.53,0-23.22,5.71-23.67,19.87l.26,45.19Zm-36-57a21,21,0,1,1-21.06,21,21,21,0,0,1,21.06-21Zm104.32,0a21,21,0,1,1-21,21,21,21,0,0,1,21-21Zm-451-29.51a1.66,1.66,0,0,1-.31,1,2.5,2.5,0,0,1-1,.72,7.93,7.93,0,0,1-1.9.43,24.37,24.37,0,0,1-3,.16,25.34,25.34,0,0,1-3.1-.16,7.93,7.93,0,0,1-1.9-.43,2.5,2.5,0,0,1-1-.72,1.72,1.72,0,0,1-.31-1V59a39.32,39.32,0,0,0-.9-9.3,19.25,19.25,0,0,0-2.61-6.1,11.56,11.56,0,0,0-4.44-3.89,14.19,14.19,0,0,0-6.31-1.35,15.72,15.72,0,0,0-9.25,3.3A50.09,50.09,0,0,0,479,51.29V98.51a1.72,1.72,0,0,1-.3,1,2.62,2.62,0,0,1-1,.72,7.83,7.83,0,0,1-1.89.43,25.46,25.46,0,0,1-3.08.16,24.79,24.79,0,0,1-3-.16,8.13,8.13,0,0,1-1.92-.43,2.28,2.28,0,0,1-1-.72,1.86,1.86,0,0,1-.26-1V31a2,2,0,0,1,.24-1,2,2,0,0,1,.89-.74,5,5,0,0,1,1.75-.47c.69-.07,1.64-.1,2.79-.1s2,0,2.74.1a4.33,4.33,0,0,1,1.72.47,2.91,2.91,0,0,1,.88.74,2.11,2.11,0,0,1,.25,1v8.94a40.53,40.53,0,0,1,11.36-9.37,24.24,24.24,0,0,1,11.4-3,25.63,25.63,0,0,1,11.36,2.28A20.57,20.57,0,0,1,519.34,36a24.43,24.43,0,0,1,4.08,9,53.77,53.77,0,0,1,1.23,12.34V98.51Zm66.25,0a1.86,1.86,0,0,1-.26,1,2.21,2.21,0,0,1-.95.72,7.26,7.26,0,0,1-1.77.43,19.64,19.64,0,0,1-2.66.16,21.05,21.05,0,0,1-2.8-.16,7.09,7.09,0,0,1-1.74-.43,1.9,1.9,0,0,1-.85-.72,2.15,2.15,0,0,1-.22-1V89.57a42,42,0,0,1-11.44,9.28,24.59,24.59,0,0,1-11.41,2.92,25.53,25.53,0,0,1-11.38-2.26,19.71,19.71,0,0,1-7.49-6.12,25,25,0,0,1-4.1-9,54.59,54.59,0,0,1-1.23-12.5V31a1.91,1.91,0,0,1,.25-1,2.53,2.53,0,0,1,1-.74,5.93,5.93,0,0,1,2-.47c.79-.07,1.79-.1,3-.1s2.21,0,3,.1a5.73,5.73,0,0,1,1.92.47,2.88,2.88,0,0,1,1,.74,1.69,1.69,0,0,1,.31,1V70.29a41.22,41.22,0,0,0,.87,9.51,17.33,17.33,0,0,0,2.62,6.07A12.29,12.29,0,0,0,553,89.78a13.68,13.68,0,0,0,6.31,1.38,15.83,15.83,0,0,0,9.28-3.3,52.28,52.28,0,0,0,9.82-9.68V31a1.91,1.91,0,0,1,.25-1,2.46,2.46,0,0,1,1-.74,5.67,5.67,0,0,1,1.9-.47c.79-.07,1.79-.1,3-.1s2.2,0,3,.1a5.13,5.13,0,0,1,1.87.47,3.32,3.32,0,0,1,1,.74,1.48,1.48,0,0,1,.34,1V98.51Zm68.91-36.72c0,1.94-.48,3.33-1.45,4.17A5.11,5.11,0,0,1,655,67.19h-44.4a41.77,41.77,0,0,0,1.13,10.14,19.2,19.2,0,0,0,3.76,7.76,16.8,16.8,0,0,0,6.83,5,27.28,27.28,0,0,0,10.3,1.74,40.72,40.72,0,0,0,8.56-.8,47.89,47.89,0,0,0,6.52-1.74c1.82-.64,3.33-1.23,4.51-1.73a7.08,7.08,0,0,1,2.67-.8,1.72,1.72,0,0,1,1,.26,1.61,1.61,0,0,1,.61.79,5.26,5.26,0,0,1,.36,1.43,21.47,21.47,0,0,1,.1,2.28c0,.64,0,1.21-.07,1.69s-.11.9-.18,1.26a3.38,3.38,0,0,1-.39,1,4.53,4.53,0,0,1-.67.85,11.4,11.4,0,0,1-2.43,1.33,35.33,35.33,0,0,1-5.25,1.84,73.27,73.27,0,0,1-7.47,1.59,52.68,52.68,0,0,1-9,.72,41.35,41.35,0,0,1-14.59-2.34,26.67,26.67,0,0,1-10.53-6.88,29.54,29.54,0,0,1-6.44-11.5A53.1,53.1,0,0,1,597.67,65a50.16,50.16,0,0,1,2.26-15.65,33.07,33.07,0,0,1,6.48-11.78,28.64,28.64,0,0,1,10.26-7.43,33.85,33.85,0,0,1,13.43-2.58,32.11,32.11,0,0,1,13.54,2.56,25.53,25.53,0,0,1,9.2,6.86,27.71,27.71,0,0,1,5.28,10.14,44.19,44.19,0,0,1,1.69,12.43v2.25Zm-12.45-3.66c.15-6.51-1.28-11.63-4.34-15.34s-7.53-5.56-13.51-5.56a17.93,17.93,0,0,0-8.08,1.71,17.47,17.47,0,0,0-5.79,4.61A21,21,0,0,0,612,50.19a28.29,28.29,0,0,0-1.43,7.94Zm62.55,21.94A21.4,21.4,0,0,1,708,89.32a18.68,18.68,0,0,1-5.44,6.81,24.6,24.6,0,0,1-8.41,4.2,38.22,38.22,0,0,1-10.74,1.44,39.9,39.9,0,0,1-6.87-.56,37.2,37.2,0,0,1-5.87-1.41A32.47,32.47,0,0,1,666.28,98a12.19,12.19,0,0,1-2.62-1.67,4,4,0,0,1-1.2-2.09,13.83,13.83,0,0,1-.39-3.69,14.64,14.64,0,0,1,.16-2.39,11.73,11.73,0,0,1,.35-1.58,1.82,1.82,0,0,1,.64-.87,1.72,1.72,0,0,1,.95-.26,5.24,5.24,0,0,1,2.44,1c1.08.67,2.41,1.41,4,2.21a36.62,36.62,0,0,0,5.59,2.2,24.27,24.27,0,0,0,7.41,1,21.64,21.64,0,0,0,5.69-.69,12.9,12.9,0,0,0,4.44-2,8.93,8.93,0,0,0,2.9-3.35,11,11,0,0,0,1-4.84,7.67,7.67,0,0,0-1.46-4.79,14,14,0,0,0-3.84-3.46,32,32,0,0,0-5.41-2.66c-2-.77-4-1.59-6.18-2.43s-4.18-1.82-6.21-2.9a24,24,0,0,1-5.43-3.94,17.54,17.54,0,0,1-5.3-13.29A19.39,19.39,0,0,1,665.3,40a17.66,17.66,0,0,1,4.62-6.37,23.6,23.6,0,0,1,7.71-4.4,31.82,31.82,0,0,1,10.8-1.64,32.22,32.22,0,0,1,5.41.46,35.87,35.87,0,0,1,4.87,1.18,22.22,22.22,0,0,1,3.71,1.51,14.38,14.38,0,0,1,2.34,1.46,4.41,4.41,0,0,1,1,1.05,3,3,0,0,1,.38,1c.08.36.16.82.24,1.36a16.67,16.67,0,0,1,.1,2,19.89,19.89,0,0,1-.1,2.2,5.15,5.15,0,0,1-.39,1.51,2,2,0,0,1-.64.88,1.41,1.41,0,0,1-.82.25,4.16,4.16,0,0,1-2-.84,30.56,30.56,0,0,0-3.31-1.77,33.93,33.93,0,0,0-4.77-1.77,21.41,21.41,0,0,0-6.28-.84,19.06,19.06,0,0,0-5.57.72,10.36,10.36,0,0,0-3.94,2A8.41,8.41,0,0,0,676.4,43a9.37,9.37,0,0,0-.79,3.87,7.93,7.93,0,0,0,1.51,4.91,13.8,13.8,0,0,0,3.9,3.49A33.31,33.31,0,0,0,686.5,58l6.26,2.46c2.12.88,4.23,1.82,6.3,2.87a23.56,23.56,0,0,1,5.52,3.82,17.19,17.19,0,0,1,3.87,5.4,17.64,17.64,0,0,1,1.46,7.5Zm45.2,13.43A14.91,14.91,0,0,1,754.8,97a3.59,3.59,0,0,1-.89,1.87,5.36,5.36,0,0,1-1.8,1.13,14.47,14.47,0,0,1-2.74.87c-1,.23-2.11.41-3.26.57a26.38,26.38,0,0,1-3.44.23,26.07,26.07,0,0,1-9-1.39,14.8,14.8,0,0,1-6.15-4.2A17.59,17.59,0,0,1,724,88.91,42,42,0,0,1,723,78.77V39.38h-9.51a2.09,2.09,0,0,1-1.82-1.2,8.56,8.56,0,0,1-.67-3.92,12.33,12.33,0,0,1,.18-2.38,8.66,8.66,0,0,1,.49-1.65,2.1,2.1,0,0,1,.79-.89,2.27,2.27,0,0,1,1.11-.26H723v-16a1.76,1.76,0,0,1,.26-1,2.16,2.16,0,0,1,1-.8,6.32,6.32,0,0,1,1.92-.49,24.77,24.77,0,0,1,3-.15,25.63,25.63,0,0,1,3.08.15,6.25,6.25,0,0,1,1.9.49,2.34,2.34,0,0,1,1,.8,1.58,1.58,0,0,1,.31,1v16h17.23a2,2,0,0,1,1.05.26,2.28,2.28,0,0,1,.77.89,5.21,5.21,0,0,1,.48,1.65,14.42,14.42,0,0,1,.16,2.38,8.72,8.72,0,0,1-.66,3.92,2.08,2.08,0,0,1-1.8,1.2H735.42V77q0,7,2.05,10.5c1.36,2.39,3.82,3.56,7.36,3.56a12.4,12.4,0,0,0,3-.33,23,23,0,0,0,2.38-.72c.69-.25,1.29-.48,1.8-.72a3.19,3.19,0,0,1,1.33-.33,1.4,1.4,0,0,1,.72.18,1.38,1.38,0,0,1,.51.72,8.3,8.3,0,0,1,.33,1.43,12.9,12.9,0,0,1,.16,2.26Zm46.37-58.17c0,1.1,0,2-.08,2.77a7.15,7.15,0,0,1-.3,1.77,2.27,2.27,0,0,1-.57,1,1.15,1.15,0,0,1-.92.33,3.9,3.9,0,0,1-1.46-.33c-.6-.23-1.23-.46-1.95-.67s-1.54-.43-2.44-.64a13.43,13.43,0,0,0-2.92-.3,9.86,9.86,0,0,0-3.69.73,14.39,14.39,0,0,0-3.77,2.52,31.88,31.88,0,0,0-4.18,4.59c-1.43,1.91-3.05,4.24-4.79,7V98.51a1.72,1.72,0,0,1-.31,1,2.58,2.58,0,0,1-1,.72,8,8,0,0,1-1.9.43,25.34,25.34,0,0,1-3.08.16,24.61,24.61,0,0,1-3-.16,8.11,8.11,0,0,1-1.93-.43,2.19,2.19,0,0,1-1-.72,1.78,1.78,0,0,1-.26-1V31a2,2,0,0,1,.23-1,2.06,2.06,0,0,1,.9-.74,4.88,4.88,0,0,1,1.74-.47c.69-.07,1.64-.1,2.8-.1s2,0,2.74.1a4.43,4.43,0,0,1,1.72.47,2.86,2.86,0,0,1,.87.74,2.11,2.11,0,0,1,.25,1v9.84a54.13,54.13,0,0,1,5.21-6.64,30.23,30.23,0,0,1,4.61-4,14.79,14.79,0,0,1,4.31-2,16.76,16.76,0,0,1,4.33-.56c.65,0,1.38,0,2.21.1s1.69.23,2.59.41a20.4,20.4,0,0,1,2.43.69,5.65,5.65,0,0,1,1.54.74,1.69,1.69,0,0,1,.58.72,4.19,4.19,0,0,1,.29.85,8.48,8.48,0,0,1,.15,1.53c0,.69,0,1.59,0,2.74Zm57.4,63.26a1.7,1.7,0,0,1-.58,1.36,4.21,4.21,0,0,1-1.68.66,14.65,14.65,0,0,1-3.07.24,15.94,15.94,0,0,1-3.1-.24,3.72,3.72,0,0,1-1.7-.66,1.69,1.69,0,0,1-.53-1.36V91.83a33,33,0,0,1-9.87,7.35,26.74,26.74,0,0,1-11.54,2.59,31.61,31.61,0,0,1-9.66-1.38,20.92,20.92,0,0,1-7.36-4A18.06,18.06,0,0,1,805,89.91a21.32,21.32,0,0,1-1.69-8.71,20,20,0,0,1,2.33-9.91,18.89,18.89,0,0,1,6.7-7A32.79,32.79,0,0,1,823,60.13a66.14,66.14,0,0,1,14.21-1.39h9.32V53.47a26.92,26.92,0,0,0-.82-6.92,11.85,11.85,0,0,0-2.66-5,11.3,11.3,0,0,0-4.77-3,21.81,21.81,0,0,0-7.2-1,28,28,0,0,0-8.21,1.1,42.94,42.94,0,0,0-6.38,2.44c-1.82.9-3.36,1.69-4.59,2.43a6.17,6.17,0,0,1-2.72,1.11,1.79,1.79,0,0,1-1.05-.31,2.28,2.28,0,0,1-.79-.9,4.53,4.53,0,0,1-.5-1.51,13.28,13.28,0,0,1-.15-2.08,12.85,12.85,0,0,1,.26-2.94,4.4,4.4,0,0,1,1.28-2,17.17,17.17,0,0,1,3.49-2.3,39.16,39.16,0,0,1,5.72-2.44,54.69,54.69,0,0,1,7-1.82,41.61,41.61,0,0,1,7.72-.71,40.41,40.41,0,0,1,12.38,1.64,19.84,19.84,0,0,1,8.25,4.87A18.58,18.58,0,0,1,857.45,42a38.64,38.64,0,0,1,1.43,11V98.59ZM846.57,67.65H836a39.74,39.74,0,0,0-8.85.87,18.41,18.41,0,0,0-6.23,2.57,10.67,10.67,0,0,0-3.64,4,12.38,12.38,0,0,0-1.15,5.46A10.87,10.87,0,0,0,819.45,89c2.23,2.08,5.33,3.13,9.36,3.13a17.17,17.17,0,0,0,9-2.49A38.55,38.55,0,0,0,846.57,82V67.65Z"/></clipPath></defs><g id="Capa_2" data-name="Capa 2"><g id="Capa_1-2" data-name="Capa 1"><path class="cls-2" d="M487.9,357.26l5.18,1.65a11.73,11.73,0,0,1-4,6.43,12.45,12.45,0,0,1-15.68-1.5q-3.39-3.6-3.39-9.84,0-6.6,3.41-10.25a11.66,11.66,0,0,1,9-3.65A11,11,0,0,1,490.3,343a10.56,10.56,0,0,1,2.71,4.87l-5.29,1.27a5.47,5.47,0,0,0-5.57-4.44,6,6,0,0,0-4.77,2.11c-1.22,1.41-1.83,3.68-1.83,6.83q0,5,1.8,7.15a5.88,5.88,0,0,0,4.69,2.12,5.34,5.34,0,0,0,3.66-1.35A7.83,7.83,0,0,0,487.9,357.26Z"/><path class="cls-2" d="M496.45,357.14a10.38,10.38,0,0,1,1.24-4.89,8.6,8.6,0,0,1,3.53-3.61,10.56,10.56,0,0,1,5.09-1.24,9.57,9.57,0,0,1,7.13,2.82,9.76,9.76,0,0,1,2.78,7.14,9.88,9.88,0,0,1-2.81,7.2,9.46,9.46,0,0,1-7.06,2.86,11.16,11.16,0,0,1-5-1.19,8.2,8.2,0,0,1-3.64-3.49A11.62,11.62,0,0,1,496.45,357.14Zm5.19.27a6.29,6.29,0,0,0,1.36,4.36,4.41,4.41,0,0,0,6.66,0,6.4,6.4,0,0,0,1.34-4.4,6.28,6.28,0,0,0-1.34-4.32,4.41,4.41,0,0,0-6.66,0A6.29,6.29,0,0,0,501.64,357.41Z"/><path class="cls-2" d="M519,357.14a10.4,10.4,0,0,1,1.25-4.89,8.52,8.52,0,0,1,3.52-3.61,10.57,10.57,0,0,1,5.1-1.24,9.57,9.57,0,0,1,7.12,2.82,9.76,9.76,0,0,1,2.78,7.14,9.88,9.88,0,0,1-2.81,7.2,9.46,9.46,0,0,1-7.06,2.86,11.16,11.16,0,0,1-5-1.19,8.17,8.17,0,0,1-3.63-3.49A11.62,11.62,0,0,1,519,357.14Zm5.19.27a6.34,6.34,0,0,0,1.36,4.36,4.41,4.41,0,0,0,6.66,0,6.4,6.4,0,0,0,1.34-4.4,6.28,6.28,0,0,0-1.34-4.32,4.41,4.41,0,0,0-6.66,0A6.34,6.34,0,0,0,524.2,357.41Z"/><path class="cls-2" d="M542.6,347.83h4.72v2.82a7.21,7.21,0,0,1,2.49-2.35,6.89,6.89,0,0,1,3.48-.9A7.3,7.3,0,0,1,559,350q2.32,2.61,2.32,7.28c0,3.2-.78,5.68-2.34,7.46a7.33,7.33,0,0,1-5.68,2.66,6.48,6.48,0,0,1-2.88-.63,9.56,9.56,0,0,1-2.71-2.17v9.65H542.6Zm5,9.25a7.37,7.37,0,0,0,1.28,4.77A3.94,3.94,0,0,0,552,363.4,3.67,3.67,0,0,0,555,362c.78-.94,1.17-2.49,1.17-4.64a7,7,0,0,0-1.2-4.48,3.77,3.77,0,0,0-3-1.46,3.87,3.87,0,0,0-3.08,1.44A6.35,6.35,0,0,0,547.61,357.08Z"/><path class="cls-2" d="M576.39,360.89l5.05.85a8.3,8.3,0,0,1-3.07,4.23,9.11,9.11,0,0,1-5.26,1.45q-5,0-7.39-3.27a11,11,0,0,1-1.9-6.6,10.55,10.55,0,0,1,2.49-7.45,8.2,8.2,0,0,1,6.3-2.7,8.5,8.5,0,0,1,6.74,2.82c1.65,1.88,2.44,4.77,2.36,8.65H569a5.12,5.12,0,0,0,1.22,3.51,3.88,3.88,0,0,0,2.93,1.25,3.12,3.12,0,0,0,2-.65A4,4,0,0,0,576.39,360.89Zm.29-5.12a4.87,4.87,0,0,0-1.13-3.35,3.67,3.67,0,0,0-5.38.07,4.68,4.68,0,0,0-1.06,3.28Z"/><path class="cls-2" d="M590.69,367h-5.06V347.83h4.7v2.73a8.17,8.17,0,0,1,2.18-2.55,4.05,4.05,0,0,1,2.19-.61,6.4,6.4,0,0,1,3.33,1l-1.56,4.41a4.48,4.48,0,0,0-2.39-.82,2.84,2.84,0,0,0-1.8.58,4,4,0,0,0-1.16,2.12,30.11,30.11,0,0,0-.43,6.42Z"/><path class="cls-2" d="M604,353.68l-4.59-.83a7.13,7.13,0,0,1,2.66-4.11,9.79,9.79,0,0,1,5.63-1.34,12.23,12.23,0,0,1,5,.8,5.08,5.08,0,0,1,2.34,2,10.5,10.5,0,0,1,.67,4.54l0,5.91a20.93,20.93,0,0,0,.24,3.73,11.07,11.07,0,0,0,.91,2.57h-5c-.13-.34-.3-.84-.49-1.5q-.12-.45-.18-.6a8.9,8.9,0,0,1-2.78,1.9,7.91,7.91,0,0,1-3.15.63,6.52,6.52,0,0,1-4.66-1.61,5.32,5.32,0,0,1-1.71-4.05,5.43,5.43,0,0,1,.78-2.9,5.07,5.07,0,0,1,2.17-1.95,17.24,17.24,0,0,1,4-1.18,27.51,27.51,0,0,0,4.92-1.24V354a2.62,2.62,0,0,0-.72-2.08,4.27,4.27,0,0,0-2.72-.62,3.68,3.68,0,0,0-2.11.53A3.77,3.77,0,0,0,604,353.68Zm6.78,4.11c-.64.21-1.67.47-3.08.77a9.12,9.12,0,0,0-2.76.89,2.11,2.11,0,0,0-1,1.78,2.47,2.47,0,0,0,.79,1.84,2.76,2.76,0,0,0,2,.78,4.4,4.4,0,0,0,2.62-.9,3.26,3.26,0,0,0,1.21-1.68,10.25,10.25,0,0,0,.19-2.47Z"/><path class="cls-2" d="M629.54,347.83v4h-3.46v7.72a18.41,18.41,0,0,0,.1,2.73,1,1,0,0,0,.45.64,1.41,1.41,0,0,0,.85.26,6.72,6.72,0,0,0,2-.49l.43,3.93a9.94,9.94,0,0,1-4,.76,6.47,6.47,0,0,1-2.47-.46,3.6,3.6,0,0,1-1.61-1.19,4.74,4.74,0,0,1-.72-2,26,26,0,0,1-.16-3.57v-8.35h-2.32v-4H621V344l5.09-3v6.76Z"/><path class="cls-2" d="M633.06,345.24v-4.69h5.06v4.69Zm0,21.75V347.83h5.06V367Z"/><path class="cls-2" d="M648.58,367l-7.72-19.16h5.32l3.61,9.78,1.05,3.26c.27-.83.45-1.37.52-1.64q.25-.81.54-1.62l3.64-9.78h5.22L653.15,367Z"/><path class="cls-2" d="M667.65,353.68l-4.6-.83a7.1,7.1,0,0,1,2.67-4.11,9.73,9.73,0,0,1,5.62-1.34,12.2,12.2,0,0,1,5,.8,5.08,5.08,0,0,1,2.34,2,10.5,10.5,0,0,1,.67,4.54l0,5.91a20.93,20.93,0,0,0,.24,3.73,11.56,11.56,0,0,0,.91,2.57h-5c-.13-.34-.29-.84-.49-1.5q-.12-.45-.18-.6a9,9,0,0,1-2.77,1.9,8,8,0,0,1-3.16.63,6.52,6.52,0,0,1-4.66-1.61,5.32,5.32,0,0,1-1.71-4.05,5.43,5.43,0,0,1,.78-2.9,5.07,5.07,0,0,1,2.17-1.95,17.24,17.24,0,0,1,4-1.18,27.93,27.93,0,0,0,4.93-1.24V354a2.59,2.59,0,0,0-.73-2.08,4.27,4.27,0,0,0-2.72-.62,3,3,0,0,0-3.33,2.4Zm6.78,4.11c-.65.21-1.68.47-3.09.77a9.34,9.34,0,0,0-2.76.89,2.11,2.11,0,0,0-1,1.78,2.48,2.48,0,0,0,.8,1.84,2.74,2.74,0,0,0,2,.78A4.39,4.39,0,0,0,673,363a3.2,3.2,0,0,0,1.21-1.68,10.1,10.1,0,0,0,.2-2.47Z"/><path class="cls-2" d="M712.23,367h-4.71v-2.82a7.64,7.64,0,0,1-2.77,2.45,7.16,7.16,0,0,1-3.22.8,7.3,7.3,0,0,1-5.65-2.66q-2.36-2.67-2.36-7.42c0-3.25.77-5.72,2.29-7.41a7.5,7.5,0,0,1,5.79-2.53,7.19,7.19,0,0,1,5.56,2.67v-9.52h5.07ZM698.7,357a8.7,8.7,0,0,0,.85,4.44,3.82,3.82,0,0,0,3.42,2,3.73,3.73,0,0,0,3-1.48,6.88,6.88,0,0,0,1.23-4.45c0-2.2-.4-3.78-1.19-4.75a3.77,3.77,0,0,0-3-1.45,3.82,3.82,0,0,0-3,1.43A6.48,6.48,0,0,0,698.7,357Z"/><path class="cls-2" d="M728.31,360.89l5.05.85a8.3,8.3,0,0,1-3.07,4.23,9.11,9.11,0,0,1-5.26,1.45c-3.33,0-5.8-1.09-7.39-3.27a10.9,10.9,0,0,1-1.9-6.6,10.55,10.55,0,0,1,2.49-7.45,8.19,8.19,0,0,1,6.29-2.7,8.52,8.52,0,0,1,6.75,2.82c1.65,1.88,2.43,4.77,2.36,8.65H720.94a5.12,5.12,0,0,0,1.22,3.51,3.86,3.86,0,0,0,2.92,1.25,3.15,3.15,0,0,0,2-.65A4,4,0,0,0,728.31,360.89Zm.29-5.12a4.88,4.88,0,0,0-1.14-3.35,3.66,3.66,0,0,0-5.37.07,4.63,4.63,0,0,0-1.06,3.28Z"/><path class="cls-2" d="M746.71,358.38l5.19-.5a6.36,6.36,0,0,0,1.9,3.84,5.76,5.76,0,0,0,3.87,1.23,6,6,0,0,0,3.89-1.1,3.22,3.22,0,0,0,1.3-2.55,2.39,2.39,0,0,0-.55-1.59,4.36,4.36,0,0,0-1.92-1.15c-.62-.21-2-.6-4.27-1.15q-4.29-1.07-6-2.62a6.86,6.86,0,0,1-2.44-5.32,6.79,6.79,0,0,1,1.15-3.78,7.11,7.11,0,0,1,3.3-2.67,13.07,13.07,0,0,1,5.2-.92c3.32,0,5.82.72,7.49,2.18a7.71,7.71,0,0,1,2.65,5.82l-5.34.24a4.53,4.53,0,0,0-1.47-2.93,5.35,5.35,0,0,0-3.38-.89,6.11,6.11,0,0,0-3.65,1,1.94,1.94,0,0,0-.84,1.64,2,2,0,0,0,.79,1.61c.67.56,2.31,1.15,4.9,1.76a26.08,26.08,0,0,1,5.77,1.91,7.49,7.49,0,0,1,2.92,2.68,7.9,7.9,0,0,1,1.05,4.21,7.79,7.79,0,0,1-1.26,4.26,7.55,7.55,0,0,1-3.57,2.95,15.05,15.05,0,0,1-5.75,1c-3.35,0-5.91-.77-7.7-2.31A10,10,0,0,1,746.71,358.38Z"/><path class="cls-2" d="M783.75,360.89l5,.85a8.32,8.32,0,0,1-3.08,4.23,9.07,9.07,0,0,1-5.25,1.45c-3.34,0-5.8-1.09-7.4-3.27a11,11,0,0,1-1.89-6.6,10.55,10.55,0,0,1,2.49-7.45,8.18,8.18,0,0,1,6.29-2.7,8.48,8.48,0,0,1,6.74,2.82c1.65,1.88,2.44,4.77,2.37,8.65h-12.7a5.17,5.17,0,0,0,1.23,3.51,3.84,3.84,0,0,0,2.92,1.25,3.12,3.12,0,0,0,2-.65A4,4,0,0,0,783.75,360.89Zm.29-5.12a4.93,4.93,0,0,0-1.14-3.35,3.66,3.66,0,0,0-5.37.07,4.64,4.64,0,0,0-1.07,3.28Z"/><path class="cls-2" d="M798.05,367H793V347.83h4.71v2.73a8.17,8.17,0,0,1,2.17-2.55,4.05,4.05,0,0,1,2.19-.61,6.41,6.41,0,0,1,3.34,1l-1.57,4.41a4.48,4.48,0,0,0-2.38-.82,2.84,2.84,0,0,0-1.81.58,4,4,0,0,0-1.16,2.12,30.34,30.34,0,0,0-.42,6.42Z"/><path class="cls-2" d="M812.84,367l-7.72-19.16h5.32l3.6,9.78,1.05,3.26c.28-.83.45-1.37.52-1.64q.25-.81.54-1.62l3.65-9.78H825L817.4,367Z"/><path class="cls-2" d="M828.11,345.24v-4.69h5.07v4.69Zm0,21.75V347.83h5.07V367Z"/><path class="cls-2" d="M855.07,353.5l-5,.9a3.64,3.64,0,0,0-1.15-2.26,3.48,3.48,0,0,0-2.32-.75,3.79,3.79,0,0,0-3,1.3c-.75.88-1.12,2.33-1.12,4.38,0,2.27.38,3.87,1.14,4.81a3.76,3.76,0,0,0,3.08,1.41,3.46,3.46,0,0,0,2.36-.82,5,5,0,0,0,1.3-2.82l5,.84a8.78,8.78,0,0,1-3,5.18,9.19,9.19,0,0,1-5.9,1.75,8.8,8.8,0,0,1-6.7-2.65,10.32,10.32,0,0,1-2.5-7.34c0-3.16.84-5.63,2.51-7.39a8.9,8.9,0,0,1,6.78-2.64,9.19,9.19,0,0,1,5.56,1.51A8.29,8.29,0,0,1,855.07,353.5Z"/><path class="cls-2" d="M858.91,345.24v-4.69H864v4.69Zm0,21.75V347.83H864V367Z"/><path class="cls-2" d="M868,357.14a10.4,10.4,0,0,1,1.25-4.89,8.52,8.52,0,0,1,3.52-3.61,10.57,10.57,0,0,1,5.1-1.24,9.57,9.57,0,0,1,7.12,2.82,9.76,9.76,0,0,1,2.78,7.14,9.88,9.88,0,0,1-2.81,7.2,9.46,9.46,0,0,1-7.06,2.86,11.16,11.16,0,0,1-5-1.19,8.17,8.17,0,0,1-3.63-3.49A11.62,11.62,0,0,1,868,357.14Zm5.19.27a6.34,6.34,0,0,0,1.36,4.36,4.41,4.41,0,0,0,6.66,0,6.4,6.4,0,0,0,1.35-4.4,6.28,6.28,0,0,0-1.35-4.32,4.41,4.41,0,0,0-6.66,0A6.34,6.34,0,0,0,873.19,357.41Z"/><path class="cls-2" d="M890,361.52l5.08-.77a3.75,3.75,0,0,0,1.32,2.24,4.46,4.46,0,0,0,2.78.77,5,5,0,0,0,3-.72,1.63,1.63,0,0,0,.66-1.36,1.32,1.32,0,0,0-.36-.95,4,4,0,0,0-1.69-.67q-6.13-1.35-7.78-2.47a4.94,4.94,0,0,1-2.27-4.31,5.31,5.31,0,0,1,2-4.18q2-1.69,6.09-1.7a10.71,10.71,0,0,1,5.85,1.28,6.55,6.55,0,0,1,2.63,3.79l-4.78.88a3,3,0,0,0-1.16-1.71,4.24,4.24,0,0,0-2.45-.6,5.49,5.49,0,0,0-2.86.56,1.2,1.2,0,0,0-.58,1,1.13,1.13,0,0,0,.5.92A18.92,18.92,0,0,0,900.6,355a14.15,14.15,0,0,1,5.65,2.26,4.68,4.68,0,0,1,1.59,3.77,5.8,5.8,0,0,1-2.2,4.52q-2.21,1.91-6.51,1.9a10.68,10.68,0,0,1-6.2-1.59A7.31,7.31,0,0,1,890,361.52Z"/><path class="cls-2" d="M922.57,367V340.55h19.6V345H927.91v5.86h13.27v4.46H927.91v7.19h14.77V367Z"/><path class="cls-2" d="M945.39,361.52l5.08-.77a3.75,3.75,0,0,0,1.32,2.24,4.43,4.43,0,0,0,2.77.77,5,5,0,0,0,3-.72,1.61,1.61,0,0,0,.67-1.36,1.32,1.32,0,0,0-.36-.95,4,4,0,0,0-1.7-.67q-6.14-1.35-7.77-2.47a4.94,4.94,0,0,1-2.27-4.31,5.3,5.3,0,0,1,2-4.18c1.31-1.13,3.35-1.7,6.1-1.7a10.65,10.65,0,0,1,5.84,1.28,6.57,6.57,0,0,1,2.64,3.79l-4.78.88a3,3,0,0,0-1.17-1.71,4.21,4.21,0,0,0-2.44-.6,5.56,5.56,0,0,0-2.87.56,1.22,1.22,0,0,0-.57,1,1.1,1.1,0,0,0,.5.92A18.94,18.94,0,0,0,956,355a14.21,14.21,0,0,1,5.66,2.26,4.68,4.68,0,0,1,1.58,3.77,5.77,5.77,0,0,1-2.2,4.52q-2.19,1.91-6.51,1.9a10.67,10.67,0,0,1-6.19-1.59A7.26,7.26,0,0,1,945.39,361.52Z"/><path class="cls-2" d="M967.57,347.83h4.72v2.82a7,7,0,0,1,2.49-2.35,6.89,6.89,0,0,1,3.48-.9,7.28,7.28,0,0,1,5.66,2.62,10.57,10.57,0,0,1,2.33,7.28c0,3.2-.78,5.68-2.35,7.46a7.3,7.3,0,0,1-5.68,2.66,6.46,6.46,0,0,1-2.87-.63,9.58,9.58,0,0,1-2.72-2.17v9.65h-5.06Zm5,9.25a7.37,7.37,0,0,0,1.28,4.77A3.91,3.91,0,0,0,977,363.4a3.67,3.67,0,0,0,2.94-1.42c.78-.94,1.17-2.49,1.17-4.64a6.93,6.93,0,0,0-1.21-4.48,3.73,3.73,0,0,0-3-1.46,3.86,3.86,0,0,0-3.08,1.44A6.35,6.35,0,0,0,972.58,357.08Z"/><path class="cls-2" d="M1001.36,360.89l5,.85a8.3,8.3,0,0,1-3.07,4.23,9.11,9.11,0,0,1-5.26,1.45c-3.33,0-5.8-1.09-7.39-3.27a10.9,10.9,0,0,1-1.9-6.6,10.55,10.55,0,0,1,2.49-7.45,8.19,8.19,0,0,1,6.29-2.7,8.52,8.52,0,0,1,6.75,2.82c1.65,1.88,2.43,4.77,2.36,8.65H994a5.12,5.12,0,0,0,1.22,3.51,3.86,3.86,0,0,0,2.92,1.25,3.15,3.15,0,0,0,2-.65A4,4,0,0,0,1001.36,360.89Zm.29-5.12a4.88,4.88,0,0,0-1.14-3.35,3.66,3.66,0,0,0-5.37.07,4.63,4.63,0,0,0-1.06,3.28Z"/><path class="cls-2" d="M1027.51,353.5l-5,.9a3.63,3.63,0,0,0-1.14-2.26,3.5,3.5,0,0,0-2.32-.75,3.79,3.79,0,0,0-3,1.3,6.73,6.73,0,0,0-1.13,4.38c0,2.27.39,3.87,1.15,4.81a3.75,3.75,0,0,0,3.07,1.41,3.47,3.47,0,0,0,2.37-.82,5,5,0,0,0,1.3-2.82l5,.84a8.83,8.83,0,0,1-3,5.18,9.21,9.21,0,0,1-5.9,1.75,8.8,8.8,0,0,1-6.7-2.65,10.27,10.27,0,0,1-2.5-7.34c0-3.16.84-5.63,2.51-7.39a8.9,8.9,0,0,1,6.78-2.64,9.19,9.19,0,0,1,5.56,1.51A8.29,8.29,0,0,1,1027.51,353.5Z"/><path class="cls-2" d="M1031.35,345.24v-4.69h5.07v4.69Zm0,21.75V347.83h5.07V367Z"/><path class="cls-2" d="M1045.4,353.68l-4.6-.83a7.19,7.19,0,0,1,2.67-4.11,9.77,9.77,0,0,1,5.63-1.34,12.23,12.23,0,0,1,5.05.8,5.1,5.1,0,0,1,2.33,2,10.46,10.46,0,0,1,.68,4.54l-.05,5.91a20.93,20.93,0,0,0,.24,3.73,10.63,10.63,0,0,0,.91,2.57h-5q-.2-.51-.48-1.5l-.18-.6a9,9,0,0,1-2.78,1.9,8,8,0,0,1-3.15.63,6.54,6.54,0,0,1-4.67-1.61,5.34,5.34,0,0,1-1.7-4.05,5.51,5.51,0,0,1,.77-2.9,5.1,5.1,0,0,1,2.18-1.95,17.09,17.09,0,0,1,4-1.18,27.51,27.51,0,0,0,4.92-1.24V354a2.62,2.62,0,0,0-.72-2.08,4.29,4.29,0,0,0-2.72-.62,3,3,0,0,0-3.34,2.4Zm6.78,4.11c-.65.21-1.68.47-3.08.77a9.12,9.12,0,0,0-2.76.89,2.11,2.11,0,0,0-1,1.78,2.47,2.47,0,0,0,.79,1.84,2.76,2.76,0,0,0,2,.78,4.37,4.37,0,0,0,2.61-.9,3.15,3.15,0,0,0,1.21-1.68,9.61,9.61,0,0,0,.2-2.47Z"/><path class="cls-2" d="M1062.15,367V340.55h5.07V367Z"/><path class="cls-2" d="M1083.51,360.89l5,.85a8.32,8.32,0,0,1-3.08,4.23,9.09,9.09,0,0,1-5.26,1.45q-5,0-7.39-3.27a11,11,0,0,1-1.89-6.6,10.59,10.59,0,0,1,2.48-7.45,8.2,8.2,0,0,1,6.3-2.7,8.48,8.48,0,0,1,6.74,2.82c1.65,1.88,2.44,4.77,2.37,8.65h-12.7a5.13,5.13,0,0,0,1.23,3.51,3.84,3.84,0,0,0,2.92,1.25,3.12,3.12,0,0,0,2-.65A4,4,0,0,0,1083.51,360.89Zm.28-5.12a4.87,4.87,0,0,0-1.13-3.35,3.49,3.49,0,0,0-2.63-1.14,3.53,3.53,0,0,0-2.75,1.21,4.68,4.68,0,0,0-1.06,3.28Z"/><path class="cls-2" d="M1091.17,361.52l5.09-.77a3.7,3.7,0,0,0,1.31,2.24,4.46,4.46,0,0,0,2.78.77,5,5,0,0,0,3-.72,1.63,1.63,0,0,0,.66-1.36,1.32,1.32,0,0,0-.36-.95,3.92,3.92,0,0,0-1.69-.67q-6.14-1.35-7.78-2.47a4.94,4.94,0,0,1-2.27-4.31,5.31,5.31,0,0,1,2-4.18q2-1.69,6.09-1.7a10.71,10.71,0,0,1,5.85,1.28,6.55,6.55,0,0,1,2.63,3.79l-4.78.88a3,3,0,0,0-1.16-1.71,4.24,4.24,0,0,0-2.45-.6,5.49,5.49,0,0,0-2.86.56,1.2,1.2,0,0,0-.58,1,1.13,1.13,0,0,0,.5.92,18.92,18.92,0,0,0,4.74,1.42,14.15,14.15,0,0,1,5.65,2.26,4.68,4.68,0,0,1,1.59,3.77,5.77,5.77,0,0,1-2.2,4.52q-2.2,1.91-6.51,1.9a10.7,10.7,0,0,1-6.2-1.59A7.31,7.31,0,0,1,1091.17,361.52Z"/><path class="cls-3" d="M137.43,144h81.33c0,88.89,13.6,201-40.66,201s-40.67-112.16-40.67-201ZM178.1,56.14a40.23,40.23,0,1,1-40.28,40.23A40.25,40.25,0,0,1,178.1,56.14Z"/><path class="cls-4" d="M203.45,17c149,0,240,189.62,113.06,319.44H90.39C-49.2,201.79,54.5,17,203.45,17Z"/><path class="cls-5" d="M245.34,84.24a37.85,37.85,0,1,1-37.89,37.84,37.86,37.86,0,0,1,37.89-37.84Zm-35.48,82.84h71c0,75,.84,176.42-35.48,175.75C183.6,341.69,209.86,242,209.86,167.08Z"/><path class="cls-4" d="M203.45,17c149,0,240,189.62,113.06,319.44H90.39C-49.2,201.79,54.5,17,203.45,17Z"/><path class="cls-3" d="M167.32,187.78H222.8c0,82.57,5,154-27.74,154s-27.74-92.63-27.74-154Zm27.74-65.15a28.66,28.66,0,1,1-28.68,28.65,28.67,28.67,0,0,1,28.68-28.65Z"/><path class="cls-4" d="M203.45,17c149,0,240,189.62,113.06,319.44H90.39C-49.2,201.79,54.5,17,203.45,17Z"/><path class="cls-3" d="M204.05,218.21h51.34c0,58.79,4.76,123.53-25.67,123.53s-25.67-54.89-25.67-123.53ZM229.72,154A28.66,28.66,0,1,1,201,182.61,28.67,28.67,0,0,1,229.72,154Z"/><path class="cls-4" d="M203.45,17c149,0,240,189.62,113.06,319.44H90.39C-49.2,201.79,54.5,17,203.45,17Z"/><path class="cls-6" d="M218.37,0C330.29,0,421,90.64,421,202.45A201.63,201.63,0,0,1,362.4,344.83h74.34c-153.77,15.05-283,14.4-436.74,0H74.33A201.66,201.66,0,0,1,15.72,202.45C15.72,90.64,106.45,0,218.37,0Zm88.78,344.83a167.58,167.58,0,0,0,79.12-142.38c0-92.64-75.17-167.73-167.9-167.73S50.47,109.81,50.47,202.45a167.56,167.56,0,0,0,79.12,142.38Z"/><path class="cls-6" d="M503.27,175.59l35-.09-2.41,18c-.95,8.82-4.81,14.45-11.68,14l-22,.28-.17,108.21c-18.79.28-37.62,3.43-37.44-21l.17-87.19-31.21-.53c1.76-12.81,1.56-32.4,17.86-31.53l14.39-.08c.3-42.4,13-61.12,73.28-57.62,1.28,53-37.68,5.48-35.85,57.63Zm97.83,125.7V297c-29.36,31.23-79.89,18.27-79.89-25.8,0-38.65,35.06-44.74,67-44.74h12.82c-1.48-25-8.16-21.08-41.51-21.22-10.33,0-16.84-11.73-17-29.57a362.06,362.06,0,0,1,63.45.05c21.7,2.07,30.18,17.34,30.18,41.58V314.4c-16,0-33.9,5.64-35.09-13.11Zm484.58,0V297c-29.37,31.23-79.9,18.27-79.9-25.8,0-38.65,35.06-44.74,67-44.74h12.83c-1.49-25-8.17-21.08-41.52-21.22-10.33,0-16.84-11.73-17-29.57a362.05,362.05,0,0,1,63.45.05c21.7,2.07,30.19,17.34,30.19,41.58V314.4c-16,0-33.91,5.64-35.09-13.11Zm-484.6-51.62c-16.81,0-44.36-2.83-44.36,20.3,0,19,18.66,21.24,31,13.7A59.3,59.3,0,0,0,601.08,272V249.67Zm484.58,0c-16.83,0-44.36-2.83-44.36,20.3,0,19,18.65,21.24,31,13.7A59.77,59.77,0,0,0,1085.66,272V249.67Zm-244,64.67v.19c-24.72,0-37.35,1.29-37.09-25.11V227.73c0-14-4.37-29.58-20.82-29.58-18.17,0-20.14,19.8-20.14,33.61v82.77c-35.6,3.12-37.09-5.37-37.09-24.7v-62.1c0-14-4.28-29.58-20.77-29.58-20.11,0-20.19,18.92-20.19,36.4v80c-20.48,0-37.09,1.2-37.09-18.77V169.53l13.68,0c11.53,0,22.47,5.7,22.92,19.86,9.44-14,19.73-21,37.48-20.44,12.66.43,23.26,7.77,30,22.4,9.84-13.83,19.43-23,42.36-23.9,21.39-.8,34.24,7.89,40.91,22.43,4.11,9,5.89,19.85,5.89,31.7v92.79Zm13.35-79.79v80c20.49,0,37.1,1.2,37.1-18.77V180.23l-13.69,0c-11.53,0-23.22,5.7-23.67,19.86l.26,34.49Zm104.32,0v80c20.48,0,37.09,1.2,37.09-18.77V180.23l-13.69,0c-11.53,0-23.21,5.7-23.67,19.86l.26,34.49Zm-52-49.55V314.53c20.49,0,37.09,1.2,37.09-18.77V120l-13.68,0c-11.53,0-23.22,5.71-23.67,19.87l.26,45.19Zm-36-57a21,21,0,1,1-21.06,21,21,21,0,0,1,21.06-21Zm104.32,0a21,21,0,1,1-21,21,21,21,0,0,1,21-21Zm-451-29.51a1.66,1.66,0,0,1-.31,1,2.5,2.5,0,0,1-1,.72,7.93,7.93,0,0,1-1.9.43,24.37,24.37,0,0,1-3,.16,25.34,25.34,0,0,1-3.1-.16,7.93,7.93,0,0,1-1.9-.43,2.5,2.5,0,0,1-1-.72,1.72,1.72,0,0,1-.31-1V59a39.32,39.32,0,0,0-.9-9.3,19.25,19.25,0,0,0-2.61-6.1,11.56,11.56,0,0,0-4.44-3.89,14.19,14.19,0,0,0-6.31-1.35,15.72,15.72,0,0,0-9.25,3.3A50.09,50.09,0,0,0,479,51.29V98.51a1.72,1.72,0,0,1-.3,1,2.62,2.62,0,0,1-1,.72,7.83,7.83,0,0,1-1.89.43,25.46,25.46,0,0,1-3.08.16,24.79,24.79,0,0,1-3-.16,8.13,8.13,0,0,1-1.92-.43,2.28,2.28,0,0,1-1-.72,1.86,1.86,0,0,1-.26-1V31a2,2,0,0,1,.24-1,2,2,0,0,1,.89-.74,5,5,0,0,1,1.75-.47c.69-.07,1.64-.1,2.79-.1s2,0,2.74.1a4.33,4.33,0,0,1,1.72.47,2.91,2.91,0,0,1,.88.74,2.11,2.11,0,0,1,.25,1v8.94a40.53,40.53,0,0,1,11.36-9.37,24.24,24.24,0,0,1,11.4-3,25.63,25.63,0,0,1,11.36,2.28A20.57,20.57,0,0,1,519.34,36a24.43,24.43,0,0,1,4.08,9,53.77,53.77,0,0,1,1.23,12.34V98.51Zm66.25,0a1.86,1.86,0,0,1-.26,1,2.21,2.21,0,0,1-.95.72,7.26,7.26,0,0,1-1.77.43,19.64,19.64,0,0,1-2.66.16,21.05,21.05,0,0,1-2.8-.16,7.09,7.09,0,0,1-1.74-.43,1.9,1.9,0,0,1-.85-.72,2.15,2.15,0,0,1-.22-1V89.57a42,42,0,0,1-11.44,9.28,24.59,24.59,0,0,1-11.41,2.92,25.53,25.53,0,0,1-11.38-2.26,19.71,19.71,0,0,1-7.49-6.12,25,25,0,0,1-4.1-9,54.59,54.59,0,0,1-1.23-12.5V31a1.91,1.91,0,0,1,.25-1,2.53,2.53,0,0,1,1-.74,5.93,5.93,0,0,1,2-.47c.79-.07,1.79-.1,3-.1s2.21,0,3,.1a5.73,5.73,0,0,1,1.92.47,2.88,2.88,0,0,1,1,.74,1.69,1.69,0,0,1,.31,1V70.29a41.22,41.22,0,0,0,.87,9.51,17.33,17.33,0,0,0,2.62,6.07A12.29,12.29,0,0,0,553,89.78a13.68,13.68,0,0,0,6.31,1.38,15.83,15.83,0,0,0,9.28-3.3,52.28,52.28,0,0,0,9.82-9.68V31a1.91,1.91,0,0,1,.25-1,2.46,2.46,0,0,1,1-.74,5.67,5.67,0,0,1,1.9-.47c.79-.07,1.79-.1,3-.1s2.2,0,3,.1a5.13,5.13,0,0,1,1.87.47,3.32,3.32,0,0,1,1,.74,1.48,1.48,0,0,1,.34,1V98.51Zm68.91-36.72c0,1.94-.48,3.33-1.45,4.17A5.11,5.11,0,0,1,655,67.19h-44.4a41.77,41.77,0,0,0,1.13,10.14,19.2,19.2,0,0,0,3.76,7.76,16.8,16.8,0,0,0,6.83,5,27.28,27.28,0,0,0,10.3,1.74,40.72,40.72,0,0,0,8.56-.8,47.89,47.89,0,0,0,6.52-1.74c1.82-.64,3.33-1.23,4.51-1.73a7.08,7.08,0,0,1,2.67-.8,1.72,1.72,0,0,1,1,.26,1.61,1.61,0,0,1,.61.79,5.26,5.26,0,0,1,.36,1.43,21.47,21.47,0,0,1,.1,2.28c0,.64,0,1.21-.07,1.69s-.11.9-.18,1.26a3.38,3.38,0,0,1-.39,1,4.53,4.53,0,0,1-.67.85,11.4,11.4,0,0,1-2.43,1.33,35.33,35.33,0,0,1-5.25,1.84,73.27,73.27,0,0,1-7.47,1.59,52.68,52.68,0,0,1-9,.72,41.35,41.35,0,0,1-14.59-2.34,26.67,26.67,0,0,1-10.53-6.88,29.54,29.54,0,0,1-6.44-11.5A53.1,53.1,0,0,1,597.67,65a50.16,50.16,0,0,1,2.26-15.65,33.07,33.07,0,0,1,6.48-11.78,28.64,28.64,0,0,1,10.26-7.43,33.85,33.85,0,0,1,13.43-2.58,32.11,32.11,0,0,1,13.54,2.56,25.53,25.53,0,0,1,9.2,6.86,27.71,27.71,0,0,1,5.28,10.14,44.19,44.19,0,0,1,1.69,12.43v2.25Zm-12.45-3.66c.15-6.51-1.28-11.63-4.34-15.34s-7.53-5.56-13.51-5.56a17.93,17.93,0,0,0-8.08,1.71,17.47,17.47,0,0,0-5.79,4.61A21,21,0,0,0,612,50.19a28.29,28.29,0,0,0-1.43,7.94Zm62.55,21.94A21.4,21.4,0,0,1,708,89.32a18.68,18.68,0,0,1-5.44,6.81,24.6,24.6,0,0,1-8.41,4.2,38.22,38.22,0,0,1-10.74,1.44,39.9,39.9,0,0,1-6.87-.56,37.2,37.2,0,0,1-5.87-1.41A32.47,32.47,0,0,1,666.28,98a12.19,12.19,0,0,1-2.62-1.67,4,4,0,0,1-1.2-2.09,13.83,13.83,0,0,1-.39-3.69,14.64,14.64,0,0,1,.16-2.39,11.73,11.73,0,0,1,.35-1.58,1.82,1.82,0,0,1,.64-.87,1.72,1.72,0,0,1,.95-.26,5.24,5.24,0,0,1,2.44,1c1.08.67,2.41,1.41,4,2.21a36.62,36.62,0,0,0,5.59,2.2,24.27,24.27,0,0,0,7.41,1,21.64,21.64,0,0,0,5.69-.69,12.9,12.9,0,0,0,4.44-2,8.93,8.93,0,0,0,2.9-3.35,11,11,0,0,0,1-4.84,7.67,7.67,0,0,0-1.46-4.79,14,14,0,0,0-3.84-3.46,32,32,0,0,0-5.41-2.66c-2-.77-4-1.59-6.18-2.43s-4.18-1.82-6.21-2.9a24,24,0,0,1-5.43-3.94,17.54,17.54,0,0,1-5.3-13.29A19.39,19.39,0,0,1,665.3,40a17.66,17.66,0,0,1,4.62-6.37,23.6,23.6,0,0,1,7.71-4.4,31.82,31.82,0,0,1,10.8-1.64,32.22,32.22,0,0,1,5.41.46,35.87,35.87,0,0,1,4.87,1.18,22.22,22.22,0,0,1,3.71,1.51,14.38,14.38,0,0,1,2.34,1.46,4.41,4.41,0,0,1,1,1.05,3,3,0,0,1,.38,1c.08.36.16.82.24,1.36a16.67,16.67,0,0,1,.1,2,19.89,19.89,0,0,1-.1,2.2,5.15,5.15,0,0,1-.39,1.51,2,2,0,0,1-.64.88,1.41,1.41,0,0,1-.82.25,4.16,4.16,0,0,1-2-.84,30.56,30.56,0,0,0-3.31-1.77,33.93,33.93,0,0,0-4.77-1.77,21.41,21.41,0,0,0-6.28-.84,19.06,19.06,0,0,0-5.57.72,10.36,10.36,0,0,0-3.94,2A8.41,8.41,0,0,0,676.4,43a9.37,9.37,0,0,0-.79,3.87,7.93,7.93,0,0,0,1.51,4.91,13.8,13.8,0,0,0,3.9,3.49A33.31,33.31,0,0,0,686.5,58l6.26,2.46c2.12.88,4.23,1.82,6.3,2.87a23.56,23.56,0,0,1,5.52,3.82,17.19,17.19,0,0,1,3.87,5.4,17.64,17.64,0,0,1,1.46,7.5Zm45.2,13.43A14.91,14.91,0,0,1,754.8,97a3.59,3.59,0,0,1-.89,1.87,5.36,5.36,0,0,1-1.8,1.13,14.47,14.47,0,0,1-2.74.87c-1,.23-2.11.41-3.26.57a26.38,26.38,0,0,1-3.44.23,26.07,26.07,0,0,1-9-1.39,14.8,14.8,0,0,1-6.15-4.2A17.59,17.59,0,0,1,724,88.91,42,42,0,0,1,723,78.77V39.38h-9.51a2.09,2.09,0,0,1-1.82-1.2,8.56,8.56,0,0,1-.67-3.92,12.33,12.33,0,0,1,.18-2.38,8.66,8.66,0,0,1,.49-1.65,2.1,2.1,0,0,1,.79-.89,2.27,2.27,0,0,1,1.11-.26H723v-16a1.76,1.76,0,0,1,.26-1,2.16,2.16,0,0,1,1-.8,6.32,6.32,0,0,1,1.92-.49,24.77,24.77,0,0,1,3-.15,25.63,25.63,0,0,1,3.08.15,6.25,6.25,0,0,1,1.9.49,2.34,2.34,0,0,1,1,.8,1.58,1.58,0,0,1,.31,1v16h17.23a2,2,0,0,1,1.05.26,2.28,2.28,0,0,1,.77.89,5.21,5.21,0,0,1,.48,1.65,14.42,14.42,0,0,1,.16,2.38,8.72,8.72,0,0,1-.66,3.92,2.08,2.08,0,0,1-1.8,1.2H735.42V77q0,7,2.05,10.5c1.36,2.39,3.82,3.56,7.36,3.56a12.4,12.4,0,0,0,3-.33,23,23,0,0,0,2.38-.72c.69-.25,1.29-.48,1.8-.72a3.19,3.19,0,0,1,1.33-.33,1.4,1.4,0,0,1,.72.18,1.38,1.38,0,0,1,.51.72,8.3,8.3,0,0,1,.33,1.43,12.9,12.9,0,0,1,.16,2.26Zm46.37-58.17c0,1.1,0,2-.08,2.77a7.15,7.15,0,0,1-.3,1.77,2.27,2.27,0,0,1-.57,1,1.15,1.15,0,0,1-.92.33,3.9,3.9,0,0,1-1.46-.33c-.6-.23-1.23-.46-1.95-.67s-1.54-.43-2.44-.64a13.43,13.43,0,0,0-2.92-.3,9.86,9.86,0,0,0-3.69.73,14.39,14.39,0,0,0-3.77,2.52,31.88,31.88,0,0,0-4.18,4.59c-1.43,1.91-3.05,4.24-4.79,7V98.51a1.72,1.72,0,0,1-.31,1,2.58,2.58,0,0,1-1,.72,8,8,0,0,1-1.9.43,25.34,25.34,0,0,1-3.08.16,24.61,24.61,0,0,1-3-.16,8.11,8.11,0,0,1-1.93-.43,2.19,2.19,0,0,1-1-.72,1.78,1.78,0,0,1-.26-1V31a2,2,0,0,1,.23-1,2.06,2.06,0,0,1,.9-.74,4.88,4.88,0,0,1,1.74-.47c.69-.07,1.64-.1,2.8-.1s2,0,2.74.1a4.43,4.43,0,0,1,1.72.47,2.86,2.86,0,0,1,.87.74,2.11,2.11,0,0,1,.25,1v9.84a54.13,54.13,0,0,1,5.21-6.64,30.23,30.23,0,0,1,4.61-4,14.79,14.79,0,0,1,4.31-2,16.76,16.76,0,0,1,4.33-.56c.65,0,1.38,0,2.21.1s1.69.23,2.59.41a20.4,20.4,0,0,1,2.43.69,5.65,5.65,0,0,1,1.54.74,1.69,1.69,0,0,1,.58.72,4.19,4.19,0,0,1,.29.85,8.48,8.48,0,0,1,.15,1.53c0,.69,0,1.59,0,2.74Zm57.4,63.26a1.7,1.7,0,0,1-.58,1.36,4.21,4.21,0,0,1-1.68.66,14.65,14.65,0,0,1-3.07.24,15.94,15.94,0,0,1-3.1-.24,3.72,3.72,0,0,1-1.7-.66,1.69,1.69,0,0,1-.53-1.36V91.83a33,33,0,0,1-9.87,7.35,26.74,26.74,0,0,1-11.54,2.59,31.61,31.61,0,0,1-9.66-1.38,20.92,20.92,0,0,1-7.36-4A18.06,18.06,0,0,1,805,89.91a21.32,21.32,0,0,1-1.69-8.71,20,20,0,0,1,2.33-9.91,18.89,18.89,0,0,1,6.7-7A32.79,32.79,0,0,1,823,60.13a66.14,66.14,0,0,1,14.21-1.39h9.32V53.47a26.92,26.92,0,0,0-.82-6.92,11.85,11.85,0,0,0-2.66-5,11.3,11.3,0,0,0-4.77-3,21.81,21.81,0,0,0-7.2-1,28,28,0,0,0-8.21,1.1,42.94,42.94,0,0,0-6.38,2.44c-1.82.9-3.36,1.69-4.59,2.43a6.17,6.17,0,0,1-2.72,1.11,1.79,1.79,0,0,1-1.05-.31,2.28,2.28,0,0,1-.79-.9,4.53,4.53,0,0,1-.5-1.51,13.28,13.28,0,0,1-.15-2.08,12.85,12.85,0,0,1,.26-2.94,4.4,4.4,0,0,1,1.28-2,17.17,17.17,0,0,1,3.49-2.3,39.16,39.16,0,0,1,5.72-2.44,54.69,54.69,0,0,1,7-1.82,41.61,41.61,0,0,1,7.72-.71,40.41,40.41,0,0,1,12.38,1.64,19.84,19.84,0,0,1,8.25,4.87A18.58,18.58,0,0,1,857.45,42a38.64,38.64,0,0,1,1.43,11V98.59ZM846.57,67.65H836a39.74,39.74,0,0,0-8.85.87,18.41,18.41,0,0,0-6.23,2.57,10.67,10.67,0,0,0-3.64,4,12.38,12.38,0,0,0-1.15,5.46A10.87,10.87,0,0,0,819.45,89c2.23,2.08,5.33,3.13,9.36,3.13a17.17,17.17,0,0,0,9-2.49A38.55,38.55,0,0,0,846.57,82V67.65Z"/><g class="cls-7"><rect class="cls-2" x="433.59" y="10.64" width="687.18" height="317.61"/></g></g></g></svg>