<?xml version="1.0" encoding="utf-8"?>
<!-- Generator: Adobe Illustrator 25.0.0, SVG Export Plug-In . SVG Version: 6.00 Build 0)  -->
<svg version="1.1" id="Capa_1" xmlns="http://www.w3.org/2000/svg" xmlns:xlink="http://www.w3.org/1999/xlink" x="0px" y="0px"
	 viewBox="0 0 472.9 331.2" style="enable-background:new 0 0 472.9 331.2;" xml:space="preserve">
<style type="text/css">
	.st0{fill:#FFFFFF;}
	.st1{fill:url(#XMLID_32_);}
	.st2{fill:#E3241D;}
	.st3{fill:#434141;}
</style>
<path id="XMLID_60_" class="st0" d="M448.2,284.7c0,11.3-9.1,20.4-20.2,20.4h-383c-11.2,0-20.2-9.1-20.2-20.4V56.5
	c0-11.3,9.1-20.4,20.2-20.4h383c11.2,0,20.2,9.1,20.2,20.4V284.7z"/>
<g id="XMLID_1_">
	<g id="XMLID_2_">
		<linearGradient id="XMLID_32_" gradientUnits="userSpaceOnUse" x1="75.1525" y1="8.486" x2="399.8478" y2="333.1812">
			<stop  offset="0" style="stop-color:#AF801D"/>
			<stop  offset="0.5051" style="stop-color:#E3C074"/>
			<stop  offset="0.6513" style="stop-color:#D3AE5C"/>
			<stop  offset="0.9551" style="stop-color:#AD8425"/>
			<stop  offset="0.995" style="stop-color:#A87F1E"/>
		</linearGradient>
		<path id="XMLID_30_" class="st1" d="M444.4,280.6c0,10.8-8.8,19.6-19.8,19.6H50.4c-10.9,0-19.8-8.8-19.8-19.6V61.1
			c0-10.8,8.8-19.6,19.8-19.6h374.2c10.9,0,19.8,8.8,19.8,19.6V280.6z"/>
		<g id="XMLID_22_">
			<path id="XMLID_23_" class="st2" d="M91,167.7c10.9-0.1,10,9,10,9s0.1,10.7-15.7,11.8c-6.1,0.4-11.4-0.7-11.4-0.7
				S74.8,167.8,91,167.7L91,167.7z M329.6,215.1c-18.1-0.3-17.2-21.6-17.2-24.1c0-2.5,0-23.2,17.8-23.2c17.8,0,17.2,23.4,17.2,23.4
				S348.2,215.4,329.6,215.1L329.6,215.1z M399.9,185.2c0,0-4.5-1.7-6.1-2.4c-1.8-0.8-7.8-2.6-8.2-7.7c-0.4-5.1,3.9-7.8,10.2-7.8
				c4.4,0,6.9,0.9,13.8,3.8c0.4,0.2,1.3,0.5,1.8,0.6v0c0.1,0,0.3,0,0.4,0c0,0,0.1,0,0.1,0c1.1,0,2-0.7,2.4-1.7
				c0.1-0.3,0.1-0.6,0.1-0.9c0,0,0,0,0,0l0,0V169v-5.4v-1.2c0-0.5-0.1-0.9-0.2-1.3c-0.9-2.9-4.5-4.5-8-5.3
				c-3.2-0.8-7.8-1.7-15.2-1.1c-4.7,0.5-8.4,1.5-11.4,2.9c-0.1,0.1-0.3,0.1-0.4,0.2l0,0c-7,3.1-11.8,10.1-11.8,18.2
				c0,6.9,3.5,13,8.9,16.6c0.3,0.2,1.2,0.8,2,1.3c2.3,1.4,8.5,4,15.5,6.9c6.4,2.7,6.4,5.7,6.4,8c0,3-1.9,5.5-4.5,6.5
				c-0.4,0.2-0.9,0.4-1.5,0.5c-0.8,0.2-2.8,0.6-5.7,0.7c-1.1,0-2.6,0-4.2-0.3c-3.4-0.5-7.7-1.9-12.4-5.1c-3.1-1.9-4,0.5-4.2,2.8
				c-0.1,1-0.3,4,0.1,6.2c0.3,2,1.1,4.4,4.1,5.9c3.7,1.8,9.1,4,20.1,3.8c11.8-0.2,25.7-6,26.6-21.1
				C419.5,193.4,408.2,188.2,399.9,185.2L399.9,185.2z M364,191.4c0,0,1.1-38-33.5-38c-34.6,0-34.6,33.5-34.6,37.6
				c0,1.9-0.4,10.4,2.8,18.9c-2.1,2.6-5.9,5.6-11.8,5.6c-9.5,0-9-8.9-9-8.9v-66.3c0-0.4,0-0.8,0-1.2v-3.3c0-10.1-5-9.7-16-9.7v80.7
				c0,1,0.7,8.8-9.4,8.8c-10,0-10-8.2-10-8.8c0-0.6,0-43.4-0.1-43.5c-0.3-9-5.3-8.9-15.6-8.9c-0.4,0-0.7,0-0.7,0s0,43.7,0,47.5
				c0,3.8,0.1,13.6-13.6,13.6c-13.7,0-13.8-8.9-13.8-13.4c0-4.5,0-34.7,0-34.7h7.8c8.9,0,8.6-3.3,8.6-13h-16.4v-18.3
				c0-8.6-3.6-9.8-11.3-9.9h-5v28.3l-30.7,0v0c-1.3,0-2.6,0.1-4.1,0.2c-4.7,0.5-8.4,1.5-11.4,2.9c-0.1,0.1-0.3,0.1-0.4,0.2
				c0,0,0,0,0,0c-7,3.1-11.8,10.1-11.8,18.2c0,6.9,3.5,13,8.9,16.6c0.3,0.2,1.3,0.8,2,1.3c2.3,1.4,8.5,4,15.5,6.9
				c6.4,2.7,6.4,5.7,6.4,8c0,3-1.9,5.5-4.5,6.5c-0.5,0.2-0.9,0.4-1.5,0.5c-0.8,0.2-2.8,0.6-5.7,0.7c-1.1,0-2.5,0-4.2-0.3
				c-3.4-0.5-7.7-1.9-12.4-5.1c-3.1-1.9-4,0.5-4.2,2.8c-0.1,1-0.3,4,0.1,6.2c0.3,2,1.1,4.4,4.1,5.9c3.7,1.8,9.1,4,20.1,3.8
				c11.8-0.2,25.7-6,26.6-21.1c0.8-15.1-10.4-20.4-18.7-23.3c0,0-4.5-1.7-6.1-2.4c-1.8-0.8-7.8-2.6-8.2-7.7
				c-0.3-4.9,3.6-7.5,9.5-7.7c24.3,0,27.6,0,30.7,0V205c0,2,0,5,0.6,8.3c0,0,0,0,0,0c0,0.1,0,0.3,0.1,0.4c0,0.1,0,0.2,0.1,0.3
				c0,0.1,0.1,0.3,0.1,0.4c0,0.1,0,0.2,0.1,0.3c0,0.1,0.1,0.3,0.1,0.4c0,0.1,0,0.2,0.1,0.2c0,0.1,0.1,0.3,0.1,0.5
				c0,0.1,0,0.2,0.1,0.2c0.1,0.2,0.1,0.3,0.2,0.5c0,0.1,0,0.1,0.1,0.2c0.1,0.2,0.1,0.3,0.2,0.5c0,0.1,0,0.1,0.1,0.2
				c0.1,0.2,0.2,0.4,0.3,0.6c0,0,0,0.1,0.1,0.1c0.1,0.2,0.2,0.4,0.3,0.6c0,0,0,0.1,0.1,0.1c0.1,0.2,0.2,0.4,0.3,0.6
				c0,0,0,0.1,0.1,0.1c0.1,0.2,0.2,0.4,0.4,0.6c0,0,0,0,0,0.1c0.1,0.2,0.3,0.4,0.4,0.6c0,0,0,0,0,0.1c0.1,0.2,0.3,0.4,0.4,0.6
				c0,0,0,0,0,0c0.2,0.2,0.3,0.4,0.5,0.6c0,0,0,0,0,0c0.2,0.2,0.3,0.4,0.5,0.6c0,0,0,0,0,0c0.2,0.2,0.4,0.4,0.6,0.6v0
				c3.6,3.6,9.4,6.3,18.8,6.3c13,0,20-7.3,21.4-9c0,0,0.1-0.1,0.1-0.1c0,0,0,0,0,0c0.1-0.1,0.2-0.2,0.2-0.2v0v0l0,0
				c0,0,0,0.1,0.1,0.1c0.3,0.7,1.6,3.8,5.4,6.1c3.1,1.9,7.3,3.2,13.4,3.2c11.3,0,17.3-6.5,18.3-7.7c3.1,4.2,8.8,7.6,19,7.6
				c12.4,0,19-7.2,20.1-8.5c0.1-0.1,0.1-0.1,0.2-0.2c5,5.2,12.5,9.1,24.2,9.3C365.5,230.5,364,191.4,364,191.4L364,191.4z
				 M234.4,144.8c-5.5,0-9.9-4.4-9.9-9.9c0-5.5,4.4-9.9,9.9-9.9c5.5,0,9.9,4.4,9.9,9.9C244.3,140.4,239.9,144.8,234.4,144.8
				L234.4,144.8z M117.8,211.4c-0.5-2.3-1.6-4.6-4.5-2.4c-4.3,3.7-8.4,5.5-11.7,6.3c-2,0.4-4.5,0.6-7.6,0.5
				c-16.7-0.5-18.5-15.2-18.5-15.2c42.3,7,41.4-23.5,41.4-23.5s0.4-21.8-23.6-22.7c-35.8-1-36.6,36.3-36.6,36.3s-2.2,38,35.8,39.1
				c0,0,12.2,0.2,21.4-5.2c0.8-0.4,2.1-1.5,2.1-1.5c1.9-1.7,2.4-3.8,2.4-5.5C118.5,215.4,118,212.4,117.8,211.4z"/>
		</g>
		<g id="XMLID_3_">
			<path id="XMLID_20_" class="st3" d="M65.1,115.2h-7.8v-4h20.2v4h-7.8v21.5h-4.5V115.2z"/>
			<path id="XMLID_17_" class="st3" d="M87.7,134.5h-0.1c-0.9,1.5-2.9,2.6-5.4,2.6c-2.8,0-6.5-1.3-6.5-5.4c0-5.1,6.5-5.9,11.9-5.9
				v-0.4c0-2.1-1.8-3.2-4-3.2c-1.8,0-3.6,0.9-4.7,2l-2.2-2.6c1.9-1.8,4.7-2.7,7.3-2.7c6.2,0,7.7,3.8,7.7,7.3v10.5h-4V134.5z
				 M87.6,128.8h-1c-2.7,0-6.6,0.3-6.6,2.9c0,1.7,1.5,2.2,3,2.2c3,0,4.5-1.7,4.5-4.4V128.8z"/>
			<path id="XMLID_15_" class="st3" d="M97,119.4h4.1v2.9h0.1c0.9-2,2.8-3.4,5-3.4c0.3,0,0.8,0,1,0.1v4c-0.6-0.1-0.9-0.2-1.3-0.2
				c-3.9,0-4.6,3.4-4.6,4.6v9.3H97V119.4z"/>
			<path id="XMLID_12_" class="st3" d="M114.7,119.4v18.3c0,4.1-1.1,7.6-6.3,7.6c-0.7,0-1.5-0.1-1.9-0.2l0.4-3.7
				c0.4,0.1,0.9,0.1,1.2,0.1c2.1,0,2.3-1.7,2.3-3.7v-18.5H114.7z M112.5,111c1.6,0,2.8,1.1,2.8,2.6s-1.2,2.6-2.8,2.6
				s-2.7-1.2-2.7-2.6S110.9,111,112.5,111z"/>
			<path id="XMLID_9_" class="st3" d="M136.7,129.4h-13.1c0.2,2.4,2.4,4.2,4.9,4.2c2.2,0,3.6-0.9,4.6-2.2l2.9,2.3
				c-1.7,2.3-4.1,3.5-7.4,3.5c-5.3,0-9.3-3.4-9.3-9c0-5.6,3.9-9.3,9.1-9.3c4.8,0,8.4,3.1,8.4,9.4C136.7,128.7,136.7,129,136.7,129.4
				z M132.4,126.3c0-2.2-1.3-4.2-4.1-4.2c-2.6,0-4.6,1.8-4.8,4.2H132.4z"/>
			<path id="XMLID_7_" class="st3" d="M138.6,122.9v-3.5h3v-5h4.3v5h4.3v3.5h-4.3v8c0,1.5,0.4,2.7,2.3,2.7c0.6,0,1.3-0.1,1.8-0.4
				l0.1,3.4c-0.8,0.3-1.9,0.5-2.9,0.5c-4.6,0-5.6-2.8-5.6-6.1v-8.1H138.6z"/>
			<path id="XMLID_4_" class="st3" d="M164.3,134.5h-0.1c-0.9,1.5-2.9,2.6-5.4,2.6c-2.8,0-6.5-1.3-6.5-5.4c0-5.1,6.5-5.9,11.9-5.9
				v-0.4c0-2.1-1.8-3.2-4-3.2c-1.8,0-3.6,0.9-4.7,2l-2.2-2.6c1.9-1.8,4.7-2.7,7.3-2.7c6.2,0,7.7,3.8,7.7,7.3v10.5h-4V134.5z
				 M164.2,128.8h-1c-2.7,0-6.6,0.3-6.6,2.9c0,1.7,1.5,2.2,3,2.2c3,0,4.5-1.7,4.5-4.4V128.8z"/>
		</g>
	</g>
</g>
</svg>
